<svg width="16" height="16" viewBox="0 0 16 16" fill="none" xmlns="http://www.w3.org/2000/svg">
<g clip-path="url(#clip0_907_49)">
<g filter="url(#filter0_d_907_49)">
<path d="M4 0H12C14.6667 0 16 1.33333 16 4V12C16 14.6667 14.6667 16 12 16H4C1.33333 16 0 14.6667 0 12V4C0 1.33333 1.33333 0 4 0Z" fill="url(#paint0_linear_907_49)"/>
</g>
<path d="M3 4H13C13.6667 4 14 4.33333 14 5V11C14 11.6667 13.6667 12 13 12H3C2.33333 12 2 11.6667 2 11V5C2 4.33333 2.33333 4 3 4Z" fill="url(#paint1_linear_907_49)"/>
<g filter="url(#filter1_i_907_49)">
<path d="M2 11L7 7C7.66667 6.5 8.33333 6.5 9 7L14 11C14 11.6667 13.6667 12 13 12H3C2.33333 12 2 11.6667 2 11Z" fill="url(#paint2_linear_907_49)"/>
</g>
<g filter="url(#filter2_d_907_49)">
<path d="M2 5C2 4.33333 2.33333 4 3 4H13C13.6667 4 14 4.33333 14 5L9 9C8.33333 9.5 7.66667 9.5 7 9L2 5Z" fill="url(#paint3_linear_907_49)"/>
</g>
</g>
<defs>
<filter id="filter0_d_907_49" x="-0.5" y="-0.25" width="17" height="17" filterUnits="userSpaceOnUse" color-interpolation-filters="sRGB">
<feFlood flood-opacity="0" result="BackgroundImageFix"/>
<feColorMatrix in="SourceAlpha" type="matrix" values="0 0 0 0 0 0 0 0 0 0 0 0 0 0 0 0 0 0 127 0" result="hardAlpha"/>
<feOffset dy="0.25"/>
<feGaussianBlur stdDeviation="0.25"/>
<feComposite in2="hardAlpha" operator="out"/>
<feColorMatrix type="matrix" values="0 0 0 0 0 0 0 0 0 0 0 0 0 0 0 0 0 0 0.25 0"/>
<feBlend mode="normal" in2="BackgroundImageFix" result="effect1_dropShadow_907_49"/>
<feBlend mode="normal" in="SourceGraphic" in2="effect1_dropShadow_907_49" result="shape"/>
</filter>
<filter id="filter1_i_907_49" x="2" y="6.625" width="12" height="7.375" filterUnits="userSpaceOnUse" color-interpolation-filters="sRGB">
<feFlood flood-opacity="0" result="BackgroundImageFix"/>
<feBlend mode="normal" in="SourceGraphic" in2="BackgroundImageFix" result="shape"/>
<feColorMatrix in="SourceAlpha" type="matrix" values="0 0 0 0 0 0 0 0 0 0 0 0 0 0 0 0 0 0 127 0" result="hardAlpha"/>
<feOffset dy="2"/>
<feGaussianBlur stdDeviation="1.5"/>
<feComposite in2="hardAlpha" operator="arithmetic" k2="-1" k3="1"/>
<feColorMatrix type="matrix" values="0 0 0 0 0 0 0 0 0 0.380392 0 0 0 0 0.878431 0 0 0 0.2 0"/>
<feBlend mode="normal" in2="shape" result="effect1_innerShadow_907_49"/>
</filter>
<filter id="filter2_d_907_49" x="-1" y="3" width="18" height="11.375" filterUnits="userSpaceOnUse" color-interpolation-filters="sRGB">
<feFlood flood-opacity="0" result="BackgroundImageFix"/>
<feColorMatrix in="SourceAlpha" type="matrix" values="0 0 0 0 0 0 0 0 0 0 0 0 0 0 0 0 0 0 127 0" result="hardAlpha"/>
<feOffset dy="2"/>
<feGaussianBlur stdDeviation="1.5"/>
<feComposite in2="hardAlpha" operator="out"/>
<feColorMatrix type="matrix" values="0 0 0 0 0 0 0 0 0 0.380392 0 0 0 0 0.878431 0 0 0 0.25 0"/>
<feBlend mode="normal" in2="BackgroundImageFix" result="effect1_dropShadow_907_49"/>
<feBlend mode="normal" in="SourceGraphic" in2="effect1_dropShadow_907_49" result="shape"/>
</filter>
<linearGradient id="paint0_linear_907_49" x1="0" y1="0" x2="0" y2="16" gradientUnits="userSpaceOnUse">
<stop stop-color="#0061E0"/>
<stop offset="1" stop-color="#00A0E8"/>
</linearGradient>
<linearGradient id="paint1_linear_907_49" x1="2" y1="4" x2="2" y2="12" gradientUnits="userSpaceOnUse">
<stop stop-color="#E7E9EC"/>
<stop offset="1" stop-color="#B0DDFF"/>
</linearGradient>
<linearGradient id="paint2_linear_907_49" x1="2" y1="6.625" x2="2" y2="12" gradientUnits="userSpaceOnUse">
<stop stop-color="#E7E9EC"/>
<stop offset="1" stop-color="#B0DDFF"/>
</linearGradient>
<linearGradient id="paint3_linear_907_49" x1="2" y1="4" x2="2" y2="9" gradientUnits="userSpaceOnUse">
<stop stop-color="#E7E9EC"/>
<stop offset="1" stop-color="#B0DDFF"/>
</linearGradient>
<clipPath id="clip0_907_49">
<rect width="16" height="16" fill="white"/>
</clipPath>
</defs>
</svg>
