<svg width="16" height="16" viewBox="0 0 16 16" fill="none" xmlns="http://www.w3.org/2000/svg">
<g clip-path="url(#clip0_907_49)">
<rect width="16" height="16" rx="4" fill="url(#paint0_linear_907_49)"/>
<path d="M0 4L1 4.5V6.5L0 6V4Z" fill="url(#paint1_linear_907_49)"/>
<path d="M0 10L1 10.5V12.5L0 12V10Z" fill="url(#paint2_linear_907_49)"/>
<path d="M0 6L1 6.5V8.5L0 8V6Z" fill="url(#paint3_linear_907_49)"/>
<path d="M0 8L1 8.5V10.5L0 10V8Z" fill="url(#paint4_linear_907_49)"/>
<path d="M15 4.5L16 4V6L15 6.5V4.5Z" fill="url(#paint5_linear_907_49)"/>
<path d="M15 10.5L16 10V12L15 12.5V10.5Z" fill="url(#paint6_linear_907_49)"/>
<path d="M15 6.5L16 6V8L15 8.5V6.5Z" fill="url(#paint7_linear_907_49)"/>
<path d="M15 8.5L16 8V10L15 10.5V8.5Z" fill="url(#paint8_linear_907_49)"/>
<g filter="url(#filter0_d_907_49)">
<path d="M0 12L7.1 6.675C7.63333 6.275 8.36667 6.275 8.9 6.675L16 12V16H0V12Z" fill="url(#paint9_linear_907_49)"/>
</g>
<g filter="url(#filter1_d_907_49)">
<path d="M0 4L7.1 9.325C7.63333 9.725 8.36667 9.725 8.9 9.325L16 4V0H0V4Z" fill="url(#paint10_linear_907_49)"/>
</g>
</g>
<defs>
<filter id="filter0_d_907_49" x="-4" y="0.375" width="24" height="17.625" filterUnits="userSpaceOnUse" color-interpolation-filters="sRGB">
<feFlood flood-opacity="0" result="BackgroundImageFix"/>
<feColorMatrix in="SourceAlpha" type="matrix" values="0 0 0 0 0 0 0 0 0 0 0 0 0 0 0 0 0 0 127 0" result="hardAlpha"/>
<feOffset dy="-2"/>
<feGaussianBlur stdDeviation="2"/>
<feComposite in2="hardAlpha" operator="out"/>
<feColorMatrix type="matrix" values="0 0 0 0 0 0 0 0 0 0.380392 0 0 0 0 0.878431 0 0 0 0.1 0"/>
<feBlend mode="normal" in2="BackgroundImageFix" result="effect1_dropShadow_907_49"/>
<feBlend mode="normal" in="SourceGraphic" in2="effect1_dropShadow_907_49" result="shape"/>
</filter>
<filter id="filter1_d_907_49" x="-4" y="0" width="24" height="17.625" filterUnits="userSpaceOnUse" color-interpolation-filters="sRGB">
<feFlood flood-opacity="0" result="BackgroundImageFix"/>
<feColorMatrix in="SourceAlpha" type="matrix" values="0 0 0 0 0 0 0 0 0 0 0 0 0 0 0 0 0 0 127 0" result="hardAlpha"/>
<feOffset dy="4"/>
<feGaussianBlur stdDeviation="2"/>
<feComposite in2="hardAlpha" operator="out"/>
<feColorMatrix type="matrix" values="0 0 0 0 0 0 0 0 0 0.380392 0 0 0 0 0.878431 0 0 0 0.25 0"/>
<feBlend mode="normal" in2="BackgroundImageFix" result="effect1_dropShadow_907_49"/>
<feBlend mode="normal" in="SourceGraphic" in2="effect1_dropShadow_907_49" result="shape"/>
</filter>
<linearGradient id="paint0_linear_907_49" x1="8" y1="0" x2="8" y2="16" gradientUnits="userSpaceOnUse">
<stop stop-color="white"/>
<stop offset="1" stop-color="#B0DDFF"/>
</linearGradient>
<linearGradient id="paint1_linear_907_49" x1="0.5" y1="4" x2="0.5" y2="6.5" gradientUnits="userSpaceOnUse">
<stop stop-color="#B0DDFF"/>
<stop offset="1" stop-color="white"/>
</linearGradient>
<linearGradient id="paint2_linear_907_49" x1="0.5" y1="10" x2="0.5" y2="12.5" gradientUnits="userSpaceOnUse">
<stop stop-color="#B0DDFF"/>
<stop offset="1" stop-color="white"/>
</linearGradient>
<linearGradient id="paint3_linear_907_49" x1="0.5" y1="6" x2="0.5" y2="8.5" gradientUnits="userSpaceOnUse">
<stop stop-color="#C00040"/>
<stop offset="1" stop-color="#FF6040"/>
</linearGradient>
<linearGradient id="paint4_linear_907_49" x1="0.5" y1="8" x2="0.5" y2="10.5" gradientUnits="userSpaceOnUse">
<stop stop-color="#0061E0"/>
<stop offset="1" stop-color="#00A0E8"/>
</linearGradient>
<linearGradient id="paint5_linear_907_49" x1="15.5" y1="4" x2="15.5" y2="6.5" gradientUnits="userSpaceOnUse">
<stop stop-color="#B0DDFF"/>
<stop offset="1" stop-color="white"/>
</linearGradient>
<linearGradient id="paint6_linear_907_49" x1="15.5" y1="10" x2="15.5" y2="12.5" gradientUnits="userSpaceOnUse">
<stop stop-color="#B0DDFF"/>
<stop offset="1" stop-color="white"/>
</linearGradient>
<linearGradient id="paint7_linear_907_49" x1="15.5" y1="6" x2="15.5" y2="8.5" gradientUnits="userSpaceOnUse">
<stop stop-color="#C00040"/>
<stop offset="1" stop-color="#FF6040"/>
</linearGradient>
<linearGradient id="paint8_linear_907_49" x1="15.5" y1="8" x2="15.5" y2="10.5" gradientUnits="userSpaceOnUse">
<stop stop-color="#0061E0"/>
<stop offset="1" stop-color="#00A0E8"/>
</linearGradient>
<linearGradient id="paint9_linear_907_49" x1="8" y1="6.5" x2="8" y2="16" gradientUnits="userSpaceOnUse">
<stop stop-color="white"/>
<stop offset="1" stop-color="#B0DDFF"/>
</linearGradient>
<linearGradient id="paint10_linear_907_49" x1="8" y1="2" x2="8" y2="10" gradientUnits="userSpaceOnUse">
<stop stop-color="white"/>
<stop offset="1" stop-color="#B0DDFF"/>
</linearGradient>
<clipPath id="clip0_907_49">
<rect width="16" height="16" rx="4" fill="white"/>
</clipPath>
</defs>
</svg>
