<svg width="16" height="16" viewBox="0 0 16 16" fill="none" xmlns="http://www.w3.org/2000/svg">
<rect width="16" height="16" rx="4" fill="url(#paint0_linear_657_159)"/>
<path d="M2 6C2 5.44772 2.44772 5 3 5H9C9.55228 5 10 5.44772 10 6V11C10 12.1046 9.10457 13 8 13H3.5C2.67157 13 2 12.3284 2 11.5V6Z" fill="url(#paint1_linear_657_159)"/>
<g filter="url(#filter0_d_657_159)">
<path d="M5 4C5 3.44772 5.44772 3 6 3H13C13.5523 3 14 3.44772 14 4V11C14 12.1046 13.1046 13 12 13H3.5C4.32843 13 5 12.3284 5 11.5V4Z" fill="url(#paint2_linear_657_159)"/>
</g>
<rect x="6" y="8" width="7" height="1" rx="0.5" fill="#858585" fill-opacity="0.67"/>
<rect x="7" y="10" width="5" height="1" rx="0.5" fill="#858585" fill-opacity="0.33"/>
<rect x="10" y="4" width="3" height="1" rx="0.5" fill="#858585"/>
<rect x="10" y="6" width="3" height="1" rx="0.5" fill="#858585"/>
<rect x="6" y="4" width="3" height="3" rx="1" fill="url(#paint3_linear_657_159)"/>
<defs>
<filter id="filter0_d_657_159" x="1.5" y="2" width="14.5" height="14" filterUnits="userSpaceOnUse" color-interpolation-filters="sRGB">
<feFlood flood-opacity="0" result="BackgroundImageFix"/>
<feColorMatrix in="SourceAlpha" type="matrix" values="0 0 0 0 0 0 0 0 0 0 0 0 0 0 0 0 0 0 127 0" result="hardAlpha"/>
<feOffset dy="1"/>
<feGaussianBlur stdDeviation="1"/>
<feComposite in2="hardAlpha" operator="out"/>
<feColorMatrix type="matrix" values="0 0 0 0 0 0 0 0 0 0 0 0 0 0 0 0 0 0 0.1 0"/>
<feBlend mode="normal" in2="BackgroundImageFix" result="effect1_dropShadow_657_159"/>
<feBlend mode="normal" in="SourceGraphic" in2="effect1_dropShadow_657_159" result="shape"/>
</filter>
<linearGradient id="paint0_linear_657_159" x1="8" y1="0" x2="8" y2="16" gradientUnits="userSpaceOnUse">
<stop stop-color="#333537"/>
<stop offset="1" stop-color="#101214"/>
</linearGradient>
<linearGradient id="paint1_linear_657_159" x1="6" y1="5" x2="6" y2="13" gradientUnits="userSpaceOnUse">
<stop offset="0.504166" stop-color="#FF6040"/>
<stop offset="1" stop-color="#FFC000"/>
</linearGradient>
<linearGradient id="paint2_linear_657_159" x1="9" y1="3" x2="9" y2="13" gradientUnits="userSpaceOnUse">
<stop offset="0.7232" stop-color="white"/>
<stop offset="1" stop-color="#B0DDFF"/>
</linearGradient>
<linearGradient id="paint3_linear_657_159" x1="7.5" y1="4" x2="7.5" y2="7" gradientUnits="userSpaceOnUse">
<stop stop-color="#FFC000"/>
<stop offset="1" stop-color="#FF6040"/>
</linearGradient>
</defs>
</svg>
