<svg width="82" height="28" viewBox="0 0 82 28" fill="none" xmlns="http://www.w3.org/2000/svg">
<path d="M55 8C55 3.58172 58.5817 0 63 0H78C80.2091 0 82 1.79086 82 4V19C82 23.4183 78.4183 27 74 27H59C56.7909 27 55 25.2091 55 23V8Z" fill="white"/>
<g filter="url(#filter0_b_373_3)">
<path d="M63.416 19.66C62.5947 19.66 61.832 19.516 61.128 19.228C60.4347 18.94 59.832 18.54 59.32 18.028C58.8187 17.5053 58.424 16.892 58.136 16.188C57.8587 15.484 57.72 14.7107 57.72 13.868C57.72 13.036 57.8587 12.268 58.136 11.564C58.424 10.86 58.8187 10.2467 59.32 9.724C59.832 9.20133 60.4347 8.796 61.128 8.508C61.832 8.22 62.5947 8.076 63.416 8.076C64.2373 8.076 64.9893 8.22 65.672 8.508C66.3653 8.796 66.968 9.20133 67.48 9.724C67.992 10.2467 68.3867 10.86 68.664 11.564C68.952 12.268 69.096 13.0413 69.096 13.884C69.096 14.7053 68.952 15.468 68.664 16.172C68.3867 16.876 67.992 17.4893 67.48 18.012C66.968 18.5347 66.3653 18.94 65.672 19.228C64.9893 19.516 64.2373 19.66 63.416 19.66ZM63.416 17.388C63.8853 17.388 64.3173 17.3027 64.712 17.132C65.1067 16.9507 65.448 16.7053 65.736 16.396C66.0347 16.076 66.264 15.7027 66.424 15.276C66.584 14.8493 66.664 14.3853 66.664 13.884C66.664 13.372 66.584 12.9027 66.424 12.476C66.264 12.0493 66.0347 11.676 65.736 11.356C65.448 11.036 65.1067 10.7907 64.712 10.62C64.3173 10.4387 63.8853 10.348 63.416 10.348C62.9467 10.348 62.5093 10.4387 62.104 10.62C61.7093 10.7907 61.3627 11.036 61.064 11.356C60.776 11.6653 60.552 12.0387 60.392 12.476C60.232 12.9027 60.152 13.372 60.152 13.884C60.152 14.556 60.2907 15.1587 60.568 15.692C60.856 16.2147 61.2453 16.6307 61.736 16.94C62.2267 17.2387 62.7867 17.388 63.416 17.388ZM74.9005 19.66C73.8552 19.66 72.9592 19.4733 72.2125 19.1C71.4765 18.716 70.8418 18.1613 70.3085 17.436L71.8125 15.74C72.3352 16.4653 72.8525 16.9613 73.3645 17.228C73.8872 17.484 74.4472 17.612 75.0445 17.612C75.3752 17.612 75.6685 17.564 75.9245 17.468C76.1912 17.372 76.3992 17.2387 76.5485 17.068C76.7085 16.8973 76.7885 16.7 76.7885 16.476C76.7885 16.3053 76.7512 16.1507 76.6765 16.012C76.6018 15.8627 76.4952 15.7347 76.3565 15.628C76.2178 15.5107 76.0525 15.4093 75.8605 15.324C75.6685 15.228 75.4552 15.148 75.2205 15.084C74.9858 15.02 74.7298 14.9613 74.4525 14.908C73.8552 14.78 73.3325 14.6147 72.8845 14.412C72.4365 14.2093 72.0632 13.964 71.7645 13.676C71.4658 13.388 71.2418 13.0573 71.0925 12.684C70.9538 12.3 70.8845 11.8733 70.8845 11.404C70.8845 10.7427 71.0712 10.1667 71.4445 9.676C71.8178 9.17467 72.3138 8.78533 72.9325 8.508C73.5512 8.22 74.2338 8.076 74.9805 8.076C75.9938 8.076 76.8258 8.24667 77.4765 8.588C78.1378 8.92933 78.6658 9.40933 79.0605 10.028L77.5245 11.532C77.1938 11.0733 76.8152 10.7267 76.3885 10.492C75.9618 10.2573 75.5032 10.14 75.0125 10.14C74.6712 10.14 74.3672 10.188 74.1005 10.284C73.8445 10.3693 73.6472 10.5027 73.5085 10.684C73.3698 10.8547 73.3005 11.0573 73.3005 11.292C73.3005 11.484 73.3485 11.6547 73.4445 11.804C73.5405 11.9533 73.6738 12.0867 73.8445 12.204C74.0258 12.3107 74.2445 12.4067 74.5005 12.492C74.7565 12.5773 75.0392 12.6467 75.3485 12.7C75.9352 12.8173 76.4632 12.9773 76.9325 13.18C77.4018 13.372 77.8018 13.6067 78.1325 13.884C78.4738 14.1613 78.7352 14.4813 78.9165 14.844C79.0978 15.2067 79.1885 15.612 79.1885 16.06C79.1885 16.8173 79.0072 17.4627 78.6445 17.996C78.2818 18.5293 77.7805 18.94 77.1405 19.228C76.5005 19.516 75.7538 19.66 74.9005 19.66Z" fill="#400027"/>
</g>
<mask id="mask0_373_3" style="mask-type:alpha" maskUnits="userSpaceOnUse" x="57" y="8" width="23" height="12">
<path d="M63.416 19.66C62.5947 19.66 61.832 19.516 61.128 19.228C60.4347 18.94 59.832 18.54 59.32 18.028C58.8187 17.5053 58.424 16.892 58.136 16.188C57.8587 15.484 57.72 14.7107 57.72 13.868C57.72 13.036 57.8587 12.268 58.136 11.564C58.424 10.86 58.8187 10.2467 59.32 9.724C59.832 9.20133 60.4347 8.796 61.128 8.508C61.832 8.22 62.5947 8.076 63.416 8.076C64.2373 8.076 64.9893 8.22 65.672 8.508C66.3653 8.796 66.968 9.20133 67.48 9.724C67.992 10.2467 68.3867 10.86 68.664 11.564C68.952 12.268 69.096 13.0413 69.096 13.884C69.096 14.7053 68.952 15.468 68.664 16.172C68.3867 16.876 67.992 17.4893 67.48 18.012C66.968 18.5347 66.3653 18.94 65.672 19.228C64.9893 19.516 64.2373 19.66 63.416 19.66ZM63.416 17.388C63.8853 17.388 64.3173 17.3027 64.712 17.132C65.1067 16.9507 65.448 16.7053 65.736 16.396C66.0347 16.076 66.264 15.7027 66.424 15.276C66.584 14.8493 66.664 14.3853 66.664 13.884C66.664 13.372 66.584 12.9027 66.424 12.476C66.264 12.0493 66.0347 11.676 65.736 11.356C65.448 11.036 65.1067 10.7907 64.712 10.62C64.3173 10.4387 63.8853 10.348 63.416 10.348C62.9467 10.348 62.5093 10.4387 62.104 10.62C61.7093 10.7907 61.3627 11.036 61.064 11.356C60.776 11.6653 60.552 12.0387 60.392 12.476C60.232 12.9027 60.152 13.372 60.152 13.884C60.152 14.556 60.2907 15.1587 60.568 15.692C60.856 16.2147 61.2453 16.6307 61.736 16.94C62.2267 17.2387 62.7867 17.388 63.416 17.388ZM74.9005 19.66C73.8552 19.66 72.9592 19.4733 72.2125 19.1C71.4765 18.716 70.8418 18.1613 70.3085 17.436L71.8125 15.74C72.3352 16.4653 72.8525 16.9613 73.3645 17.228C73.8872 17.484 74.4472 17.612 75.0445 17.612C75.3752 17.612 75.6685 17.564 75.9245 17.468C76.1912 17.372 76.3992 17.2387 76.5485 17.068C76.7085 16.8973 76.7885 16.7 76.7885 16.476C76.7885 16.3053 76.7512 16.1507 76.6765 16.012C76.6018 15.8627 76.4952 15.7347 76.3565 15.628C76.2178 15.5107 76.0525 15.4093 75.8605 15.324C75.6685 15.228 75.4552 15.148 75.2205 15.084C74.9858 15.02 74.7298 14.9613 74.4525 14.908C73.8552 14.78 73.3325 14.6147 72.8845 14.412C72.4365 14.2093 72.0632 13.964 71.7645 13.676C71.4658 13.388 71.2418 13.0573 71.0925 12.684C70.9538 12.3 70.8845 11.8733 70.8845 11.404C70.8845 10.7427 71.0712 10.1667 71.4445 9.676C71.8178 9.17467 72.3138 8.78533 72.9325 8.508C73.5512 8.22 74.2338 8.076 74.9805 8.076C75.9938 8.076 76.8258 8.24667 77.4765 8.588C78.1378 8.92933 78.6658 9.40933 79.0605 10.028L77.5245 11.532C77.1938 11.0733 76.8152 10.7267 76.3885 10.492C75.9618 10.2573 75.5032 10.14 75.0125 10.14C74.6712 10.14 74.3672 10.188 74.1005 10.284C73.8445 10.3693 73.6472 10.5027 73.5085 10.684C73.3698 10.8547 73.3005 11.0573 73.3005 11.292C73.3005 11.484 73.3485 11.6547 73.4445 11.804C73.5405 11.9533 73.6738 12.0867 73.8445 12.204C74.0258 12.3107 74.2445 12.4067 74.5005 12.492C74.7565 12.5773 75.0392 12.6467 75.3485 12.7C75.9352 12.8173 76.4632 12.9773 76.9325 13.18C77.4018 13.372 77.8018 13.6067 78.1325 13.884C78.4738 14.1613 78.7352 14.4813 78.9165 14.844C79.0978 15.2067 79.1885 15.612 79.1885 16.06C79.1885 16.8173 79.0072 17.4627 78.6445 17.996C78.2818 18.5293 77.7805 18.94 77.1405 19.228C76.5005 19.516 75.7538 19.66 74.9005 19.66Z" fill="#FFCAEA"/>
</mask>
<g mask="url(#mask0_373_3)">
<g opacity="0.9" filter="url(#filter1_f_373_3)">
<path d="M37.7141 14.6519C42.4004 9.96565 49.9983 9.96565 54.6846 14.6519L57.5131 17.4804C58.5544 18.5218 58.5544 20.2102 57.513 21.2516L54.6846 24.08C49.9983 28.7663 42.4003 28.7663 37.7141 24.08L34.8856 21.2516C33.8442 20.2102 33.8442 18.5218 34.8856 17.4804L37.7141 14.6519Z" fill="url(#paint0_linear_373_3)"/>
<path d="M52.152 38.5179C47.4657 33.8316 47.4657 26.2337 52.152 21.5474L54.9804 18.7189C56.0218 17.6775 57.7102 17.6775 58.7516 18.7189L61.5801 21.5474C66.2663 26.2337 66.2663 33.8316 61.5801 38.5179L58.7516 41.3464C57.7102 42.3878 56.0218 42.3878 54.9804 41.3464L52.152 38.5179Z" fill="url(#paint1_linear_373_3)"/>
<path d="M76.0179 24.08C71.3316 28.7663 63.7337 28.7663 59.0474 24.08L56.2189 21.2516C55.1775 20.2102 55.1775 18.5218 56.2189 17.4804L59.0474 14.6519C63.7337 9.96565 71.3316 9.96565 76.0179 14.6519L78.8464 17.4804C79.8878 18.5218 79.8878 20.2102 78.8464 21.2516L76.0179 24.08Z" fill="url(#paint2_linear_373_3)"/>
<path d="M61.5801 0.214059C66.2664 4.90035 66.2664 12.4983 61.5801 17.1846L58.7517 20.0131C57.7103 21.0544 56.0218 21.0544 54.9804 20.013L52.152 17.1846C47.4657 12.4983 47.4657 4.90035 52.152 0.214059L54.9804 -2.61437C56.0218 -3.65577 57.7103 -3.65577 58.7517 -2.61437L61.5801 0.214059Z" fill="url(#paint3_linear_373_3)"/>
<path d="M57 22.1667C57 20.6939 58.1939 19.5 59.6667 19.5H63.6667C70.2941 19.5 75.6667 24.8726 75.6667 31.5V35.5C75.6667 36.9728 74.4728 38.1667 73 38.1667H69C62.3726 38.1667 57 32.7941 57 26.1667V22.1667Z" fill="url(#paint4_linear_373_3)"/>
<path d="M57 12.8333C57 6.2059 62.3726 0.833313 69 0.833313H73C74.4728 0.833313 75.6667 2.02722 75.6667 3.49998V7.49998C75.6667 14.1274 70.2941 19.5 63.6667 19.5H59.6667C58.1939 19.5 57 18.3061 57 16.8333V12.8333Z" fill="url(#paint5_linear_373_3)"/>
<rect x="50.3334" y="12.8333" width="13.3333" height="13.3333" rx="6.66667" fill="url(#paint6_linear_373_3)"/>
</g>
</g>
<g filter="url(#filter2_b_373_3)">
<path d="M6.416 19.66C5.59467 19.66 4.832 19.516 4.128 19.228C3.43467 18.94 2.832 18.54 2.32 18.028C1.81867 17.5053 1.424 16.892 1.136 16.188C0.858667 15.484 0.72 14.7107 0.72 13.868C0.72 13.036 0.858667 12.268 1.136 11.564C1.424 10.86 1.81867 10.2467 2.32 9.724C2.832 9.20133 3.43467 8.796 4.128 8.508C4.832 8.22 5.59467 8.076 6.416 8.076C7.23733 8.076 7.98933 8.22 8.672 8.508C9.36533 8.796 9.968 9.20133 10.48 9.724C10.992 10.2467 11.3867 10.86 11.664 11.564C11.952 12.268 12.096 13.0413 12.096 13.884C12.096 14.7053 11.952 15.468 11.664 16.172C11.3867 16.876 10.992 17.4893 10.48 18.012C9.968 18.5347 9.36533 18.94 8.672 19.228C7.98933 19.516 7.23733 19.66 6.416 19.66ZM6.416 17.388C6.88533 17.388 7.31733 17.3027 7.712 17.132C8.10667 16.9507 8.448 16.7053 8.736 16.396C9.03467 16.076 9.264 15.7027 9.424 15.276C9.584 14.8493 9.664 14.3853 9.664 13.884C9.664 13.372 9.584 12.9027 9.424 12.476C9.264 12.0493 9.03467 11.676 8.736 11.356C8.448 11.036 8.10667 10.7907 7.712 10.62C7.31733 10.4387 6.88533 10.348 6.416 10.348C5.94667 10.348 5.50933 10.4387 5.104 10.62C4.70933 10.7907 4.36267 11.036 4.064 11.356C3.776 11.6653 3.552 12.0387 3.392 12.476C3.232 12.9027 3.152 13.372 3.152 13.884C3.152 14.556 3.29067 15.1587 3.568 15.692C3.856 16.2147 4.24533 16.6307 4.736 16.94C5.22667 17.2387 5.78667 17.388 6.416 17.388ZM13.9485 19.5V11.036H16.1405L16.2205 13.756L15.8365 13.18C15.9752 12.7533 16.1832 12.364 16.4605 12.012C16.7485 11.66 17.0845 11.3827 17.4685 11.18C17.8632 10.9667 18.2738 10.86 18.7005 10.86C18.8925 10.86 19.0685 10.876 19.2285 10.908C19.3992 10.9293 19.5432 10.9667 19.6605 11.02L19.0525 13.5C18.9352 13.4467 18.7805 13.3987 18.5885 13.356C18.4072 13.3027 18.2205 13.276 18.0285 13.276C17.7832 13.276 17.5485 13.324 17.3245 13.42C17.1112 13.5053 16.9192 13.6333 16.7485 13.804C16.5885 13.964 16.4605 14.156 16.3645 14.38C16.2792 14.604 16.2365 14.8547 16.2365 15.132V19.5H13.9485ZM24.2848 19.66C23.4741 19.66 22.7488 19.468 22.1088 19.084C21.4688 18.7 20.9621 18.1773 20.5888 17.516C20.2261 16.844 20.0448 16.0973 20.0448 15.276C20.0448 14.4333 20.2261 13.6813 20.5888 13.02C20.9621 12.348 21.4688 11.82 22.1088 11.436C22.7488 11.052 23.4741 10.86 24.2848 10.86C25.0421 10.86 25.7301 11.004 26.3488 11.292C26.9781 11.5693 27.4688 11.9533 27.8208 12.444L26.5888 13.948C26.4394 13.7453 26.2528 13.5587 26.0288 13.388C25.8048 13.2173 25.5594 13.084 25.2928 12.988C25.0368 12.892 24.7701 12.844 24.4928 12.844C24.0554 12.844 23.6661 12.9507 23.3248 13.164C22.9834 13.3667 22.7168 13.6547 22.5248 14.028C22.3328 14.3907 22.2368 14.8013 22.2368 15.26C22.2368 15.708 22.3381 16.1133 22.5408 16.476C22.7434 16.8387 23.0154 17.1267 23.3568 17.34C23.6981 17.5533 24.0768 17.66 24.4928 17.66C24.7701 17.66 25.0314 17.6227 25.2768 17.548C25.5328 17.4627 25.7674 17.34 25.9808 17.18C26.1941 17.02 26.3968 16.8333 26.5888 16.62L27.8208 18.124C27.4688 18.5827 26.9674 18.956 26.3168 19.244C25.6768 19.5213 24.9994 19.66 24.2848 19.66ZM29.2766 19.5V7.66H31.5326V12.764L31.0846 12.956C31.1913 12.572 31.3993 12.2253 31.7086 11.916C32.018 11.596 32.386 11.34 32.8126 11.148C33.2393 10.956 33.682 10.86 34.1406 10.86C34.7806 10.86 35.314 10.988 35.7406 11.244C36.178 11.5 36.5033 11.8893 36.7166 12.412C36.9406 12.924 37.0526 13.564 37.0526 14.332V19.5H34.7806V14.492C34.7806 14.108 34.7273 13.788 34.6206 13.532C34.514 13.276 34.354 13.0893 34.1406 12.972C33.9273 12.8547 33.6553 12.8013 33.3246 12.812C33.0686 12.812 32.834 12.8547 32.6206 12.94C32.4073 13.0147 32.2153 13.1267 32.0446 13.276C31.8846 13.4253 31.762 13.596 31.6766 13.788C31.5913 13.98 31.5486 14.1933 31.5486 14.428V19.5H30.4126C30.178 19.5 29.9646 19.5 29.7726 19.5C29.5806 19.5 29.4153 19.5 29.2766 19.5ZM39.4218 19.5V11.036H41.6938V19.5H39.4218ZM40.5578 9.292C40.1098 9.292 39.7631 9.18533 39.5178 8.972C39.2724 8.75867 39.1497 8.45467 39.1497 8.06C39.1497 7.69733 39.2724 7.404 39.5178 7.18C39.7738 6.94533 40.1204 6.828 40.5578 6.828C40.9844 6.828 41.3204 6.93467 41.5658 7.148C41.8111 7.36133 41.9338 7.66533 41.9338 8.06C41.9338 8.43333 41.8111 8.732 41.5658 8.956C41.3204 9.18 40.9844 9.292 40.5578 9.292ZM47.464 19.66C46.728 19.66 46.0613 19.4733 45.464 19.1C44.8773 18.7267 44.4133 18.2093 44.072 17.548C43.7413 16.876 43.576 16.1187 43.576 15.276C43.576 14.4227 43.7413 13.6653 44.072 13.004C44.4133 12.3427 44.8773 11.82 45.464 11.436C46.0507 11.052 46.7173 10.86 47.464 10.86C47.8587 10.86 48.2373 10.924 48.6 11.052C48.9733 11.1693 49.304 11.3347 49.592 11.548C49.88 11.7613 50.1147 12.0013 50.296 12.268C50.4773 12.524 50.584 12.7907 50.616 13.068L50.04 13.18V7.66H52.296V19.5H50.152L50.056 17.548L50.504 17.612C50.4933 17.868 50.4027 18.1187 50.232 18.364C50.0613 18.6093 49.832 18.8333 49.544 19.036C49.2667 19.228 48.9467 19.3827 48.584 19.5C48.232 19.6067 47.8587 19.66 47.464 19.66ZM47.96 17.772C48.3973 17.772 48.7707 17.6653 49.08 17.452C49.4 17.2387 49.6507 16.9453 49.832 16.572C50.0133 16.1987 50.104 15.7667 50.104 15.276C50.104 14.7747 50.0133 14.3373 49.832 13.964C49.6507 13.58 49.4 13.2867 49.08 13.084C48.7707 12.8707 48.3973 12.764 47.96 12.764C47.544 12.764 47.176 12.8707 46.856 13.084C46.536 13.2867 46.2853 13.58 46.104 13.964C45.9333 14.3373 45.848 14.7747 45.848 15.276C45.848 15.7667 45.9333 16.1987 46.104 16.572C46.2853 16.9453 46.536 17.2387 46.856 17.452C47.176 17.6653 47.544 17.772 47.96 17.772Z" fill="#333333"/>
</g>
<path d="M13.1943 26V22.5H14.6343C14.8876 22.5 15.1193 22.5433 15.3293 22.63C15.5393 22.7133 15.7193 22.8333 15.8693 22.99C16.0193 23.1433 16.1343 23.3283 16.2143 23.545C16.2943 23.7583 16.3343 23.9933 16.3343 24.25C16.3343 24.51 16.2943 24.7467 16.2143 24.96C16.1343 25.1733 16.0193 25.3583 15.8693 25.515C15.7193 25.6683 15.5393 25.7883 15.3293 25.875C15.1226 25.9583 14.8909 26 14.6343 26H13.1943ZM13.9443 25.45L13.8643 25.325H14.6093C14.7593 25.325 14.8926 25.3 15.0093 25.25C15.1293 25.2 15.2309 25.1283 15.3143 25.035C15.4009 24.9383 15.4659 24.825 15.5093 24.695C15.5526 24.5617 15.5743 24.4133 15.5743 24.25C15.5743 24.0867 15.5526 23.94 15.5093 23.81C15.4659 23.6767 15.4009 23.5633 15.3143 23.47C15.2309 23.3733 15.1293 23.3 15.0093 23.25C14.8926 23.2 14.7593 23.175 14.6093 23.175H13.8493L13.9443 23.06V25.45ZM18.1676 26.05C17.881 26.05 17.6293 25.9917 17.4126 25.875C17.1993 25.7583 17.0326 25.5983 16.9126 25.395C16.796 25.1917 16.7376 24.96 16.7376 24.7C16.7376 24.4933 16.771 24.305 16.8376 24.135C16.9043 23.9617 16.9976 23.8133 17.1176 23.69C17.2376 23.5667 17.3793 23.4717 17.5426 23.405C17.7093 23.335 17.891 23.3 18.0876 23.3C18.2676 23.3 18.4326 23.3333 18.5826 23.4C18.736 23.4633 18.8676 23.555 18.9776 23.675C19.091 23.7917 19.1776 23.93 19.2376 24.09C19.2976 24.25 19.326 24.425 19.3226 24.615L19.3176 24.835H17.1926L17.0776 24.395H18.7326L18.6476 24.485V24.38C18.641 24.2867 18.611 24.205 18.5576 24.135C18.5076 24.065 18.4426 24.01 18.3626 23.97C18.2826 23.9267 18.1943 23.905 18.0976 23.905C17.9476 23.905 17.821 23.935 17.7176 23.995C17.6176 24.0517 17.541 24.135 17.4876 24.245C17.4376 24.3517 17.4126 24.485 17.4126 24.645C17.4126 24.8017 17.446 24.94 17.5126 25.06C17.5793 25.1767 17.6743 25.2667 17.7976 25.33C17.9243 25.3933 18.0726 25.425 18.2426 25.425C18.3593 25.425 18.466 25.4067 18.5626 25.37C18.6593 25.3333 18.7643 25.27 18.8776 25.18L19.2126 25.655C19.1193 25.7383 19.0143 25.81 18.8976 25.87C18.781 25.93 18.661 25.975 18.5376 26.005C18.4143 26.035 18.291 26.05 18.1676 26.05ZM20.6334 26L19.5234 23.355H20.2984L21.0034 25.32L20.8434 25.35L21.5834 23.355H22.3434L21.1784 26H20.6334ZM23.9586 26.05C23.672 26.05 23.4203 25.9917 23.2036 25.875C22.9903 25.7583 22.8236 25.5983 22.7036 25.395C22.587 25.1917 22.5286 24.96 22.5286 24.7C22.5286 24.4933 22.562 24.305 22.6286 24.135C22.6953 23.9617 22.7886 23.8133 22.9086 23.69C23.0286 23.5667 23.1703 23.4717 23.3336 23.405C23.5003 23.335 23.682 23.3 23.8786 23.3C24.0586 23.3 24.2236 23.3333 24.3736 23.4C24.527 23.4633 24.6586 23.555 24.7686 23.675C24.882 23.7917 24.9686 23.93 25.0286 24.09C25.0886 24.25 25.117 24.425 25.1136 24.615L25.1086 24.835H22.9836L22.8686 24.395H24.5236L24.4386 24.485V24.38C24.432 24.2867 24.402 24.205 24.3486 24.135C24.2986 24.065 24.2336 24.01 24.1536 23.97C24.0736 23.9267 23.9853 23.905 23.8886 23.905C23.7386 23.905 23.612 23.935 23.5086 23.995C23.4086 24.0517 23.332 24.135 23.2786 24.245C23.2286 24.3517 23.2036 24.485 23.2036 24.645C23.2036 24.8017 23.237 24.94 23.3036 25.06C23.3703 25.1767 23.4653 25.2667 23.5886 25.33C23.7153 25.3933 23.8636 25.425 24.0336 25.425C24.1503 25.425 24.257 25.4067 24.3536 25.37C24.4503 25.3333 24.5553 25.27 24.6686 25.18L25.0036 25.655C24.9103 25.7383 24.8053 25.81 24.6886 25.87C24.572 25.93 24.452 25.975 24.3286 26.005C24.2053 26.035 24.082 26.05 23.9586 26.05ZM25.6432 26V22.3H26.3532V26H25.6432ZM28.245 26.05C27.9784 26.05 27.7384 25.9917 27.525 25.875C27.315 25.755 27.1484 25.5917 27.025 25.385C26.905 25.1783 26.845 24.9433 26.845 24.68C26.845 24.41 26.905 24.1717 27.025 23.965C27.1484 23.7583 27.315 23.5967 27.525 23.48C27.7384 23.36 27.9784 23.3 28.245 23.3C28.515 23.3 28.755 23.36 28.965 23.48C29.175 23.5967 29.34 23.7583 29.46 23.965C29.5834 24.1717 29.645 24.41 29.645 24.68C29.645 24.9433 29.5834 25.1783 29.46 25.385C29.34 25.5917 29.175 25.755 28.965 25.875C28.755 25.9917 28.515 26.05 28.245 26.05ZM28.245 25.435C28.3784 25.435 28.495 25.4017 28.595 25.335C28.6984 25.2683 28.7784 25.1783 28.835 25.065C28.895 24.9517 28.9234 24.8233 28.92 24.68C28.9234 24.53 28.895 24.3983 28.835 24.285C28.7784 24.1683 28.6984 24.0783 28.595 24.015C28.495 23.9483 28.3784 23.915 28.245 23.915C28.115 23.915 27.9984 23.9483 27.895 24.015C27.7917 24.0817 27.71 24.1717 27.65 24.285C27.59 24.3983 27.5617 24.53 27.565 24.68C27.5617 24.8233 27.59 24.9517 27.65 25.065C27.71 25.1783 27.7917 25.2683 27.895 25.335C27.9984 25.4017 28.115 25.435 28.245 25.435ZM30.1792 27.1V23.355H30.8642L30.8892 23.945L30.7592 23.9C30.7792 23.7967 30.8342 23.7 30.9242 23.61C31.0176 23.52 31.1326 23.4467 31.2692 23.39C31.4059 23.3333 31.5492 23.305 31.6992 23.305C31.9292 23.305 32.1326 23.3633 32.3092 23.48C32.4892 23.5967 32.6309 23.7583 32.7342 23.965C32.8376 24.1717 32.8892 24.41 32.8892 24.68C32.8892 24.94 32.8376 25.1733 32.7342 25.38C32.6309 25.5867 32.4892 25.75 32.3092 25.87C32.1292 25.9867 31.9259 26.045 31.6992 26.045C31.5459 26.045 31.3992 26.015 31.2592 25.955C31.1226 25.895 31.0059 25.8183 30.9092 25.725C30.8126 25.6317 30.7526 25.53 30.7292 25.42L30.8942 25.35V27.1H30.1792ZM31.5392 25.435C31.6726 25.435 31.7876 25.4033 31.8842 25.34C31.9842 25.2767 32.0609 25.1883 32.1142 25.075C32.1709 24.9583 32.1992 24.8267 32.1992 24.68C32.1992 24.53 32.1709 24.3983 32.1142 24.285C32.0609 24.1683 31.9842 24.0783 31.8842 24.015C31.7876 23.9517 31.6726 23.92 31.5392 23.92C31.4059 23.92 31.2892 23.9517 31.1892 24.015C31.0892 24.0783 31.0109 24.1667 30.9542 24.28C30.8976 24.3933 30.8692 24.5267 30.8692 24.68C30.8692 24.8267 30.8976 24.9583 30.9542 25.075C31.0109 25.1883 31.0892 25.2767 31.1892 25.34C31.2892 25.4033 31.4059 25.435 31.5392 25.435ZM34.6813 26.05C34.3946 26.05 34.143 25.9917 33.9263 25.875C33.713 25.7583 33.5463 25.5983 33.4263 25.395C33.3096 25.1917 33.2513 24.96 33.2513 24.7C33.2513 24.4933 33.2846 24.305 33.3513 24.135C33.418 23.9617 33.5113 23.8133 33.6313 23.69C33.7513 23.5667 33.893 23.4717 34.0563 23.405C34.223 23.335 34.4046 23.3 34.6013 23.3C34.7813 23.3 34.9463 23.3333 35.0963 23.4C35.2496 23.4633 35.3813 23.555 35.4913 23.675C35.6046 23.7917 35.6913 23.93 35.7513 24.09C35.8113 24.25 35.8396 24.425 35.8363 24.615L35.8313 24.835H33.7063L33.5913 24.395H35.2463L35.1613 24.485V24.38C35.1546 24.2867 35.1246 24.205 35.0713 24.135C35.0213 24.065 34.9563 24.01 34.8763 23.97C34.7963 23.9267 34.708 23.905 34.6113 23.905C34.4613 23.905 34.3346 23.935 34.2313 23.995C34.1313 24.0517 34.0546 24.135 34.0013 24.245C33.9513 24.3517 33.9263 24.485 33.9263 24.645C33.9263 24.8017 33.9596 24.94 34.0263 25.06C34.093 25.1767 34.188 25.2667 34.3113 25.33C34.438 25.3933 34.5863 25.425 34.7563 25.425C34.873 25.425 34.9796 25.4067 35.0763 25.37C35.173 25.3333 35.278 25.27 35.3913 25.18L35.7263 25.655C35.633 25.7383 35.528 25.81 35.4113 25.87C35.2946 25.93 35.1746 25.975 35.0513 26.005C34.928 26.035 34.8046 26.05 34.6813 26.05ZM36.3609 26V23.355H37.0459L37.0709 24.205L36.9509 24.025C36.9942 23.8917 37.0592 23.77 37.1459 23.66C37.2359 23.55 37.3409 23.4633 37.4609 23.4C37.5842 23.3333 37.7125 23.3 37.8459 23.3C37.9059 23.3 37.9609 23.305 38.0109 23.315C38.0642 23.3217 38.1092 23.3333 38.1459 23.35L37.9559 24.125C37.9192 24.1083 37.8709 24.0933 37.8109 24.08C37.7542 24.0633 37.6959 24.055 37.6359 24.055C37.5592 24.055 37.4859 24.07 37.4159 24.1C37.3492 24.1267 37.2892 24.1667 37.2359 24.22C37.1859 24.27 37.1459 24.33 37.1159 24.4C37.0892 24.47 37.0759 24.5483 37.0759 24.635V26H36.3609ZM40.1816 26V22.5H41.7016C41.9382 22.5 42.1366 22.535 42.2966 22.605C42.4566 22.6717 42.5782 22.77 42.6616 22.9C42.7482 23.0267 42.7916 23.1833 42.7916 23.37C42.7916 23.5633 42.7399 23.7267 42.6366 23.86C42.5366 23.9933 42.3949 24.0867 42.2116 24.14L42.2066 24.035C42.3599 24.0717 42.4932 24.1333 42.6066 24.22C42.7232 24.3033 42.8132 24.4067 42.8766 24.53C42.9432 24.6533 42.9766 24.7933 42.9766 24.95C42.9766 25.1233 42.9466 25.2767 42.8866 25.41C42.8299 25.54 42.7466 25.65 42.6366 25.74C42.5299 25.8267 42.4016 25.8917 42.2516 25.935C42.1016 25.9783 41.9349 26 41.7516 26H40.1816ZM40.9016 25.35H41.7216C41.8816 25.35 42.0066 25.3133 42.0966 25.24C42.1866 25.1633 42.2316 25.0567 42.2316 24.92C42.2316 24.8333 42.2099 24.76 42.1666 24.7C42.1232 24.64 42.0616 24.595 41.9816 24.565C41.9016 24.535 41.8066 24.52 41.6966 24.52H40.9016V25.35ZM40.9016 23.915H41.6116C41.7049 23.915 41.7832 23.9 41.8466 23.87C41.9132 23.8367 41.9649 23.7917 42.0016 23.735C42.0382 23.675 42.0566 23.6067 42.0566 23.53C42.0566 23.41 42.0149 23.3167 41.9316 23.25C41.8516 23.1833 41.7316 23.15 41.5716 23.15H40.9016V23.915ZM44.4632 26.05C44.2732 26.05 44.1082 26.0083 43.9682 25.925C43.8282 25.8383 43.7199 25.7167 43.6432 25.56C43.5699 25.4 43.5332 25.21 43.5332 24.99V23.355H44.2432V24.86C44.2432 25.0467 44.2866 25.1933 44.3732 25.3C44.4632 25.4033 44.5866 25.455 44.7432 25.455C44.8232 25.455 44.8949 25.4433 44.9582 25.42C45.0249 25.3933 45.0816 25.3567 45.1282 25.31C45.1749 25.2633 45.2116 25.2083 45.2382 25.145C45.2649 25.0817 45.2782 25.0117 45.2782 24.935V23.355H45.9882V26H45.3132L45.2932 25.455L45.4182 25.395C45.3816 25.5183 45.3149 25.63 45.2182 25.73C45.1249 25.83 45.0132 25.9083 44.8832 25.965C44.7532 26.0217 44.6132 26.05 44.4632 26.05ZM46.7627 26V23.355H47.4727V26H46.7627ZM47.1177 22.81C46.9777 22.81 46.8693 22.7767 46.7927 22.71C46.716 22.6433 46.6777 22.5483 46.6777 22.425C46.6777 22.3117 46.716 22.22 46.7927 22.15C46.8727 22.0767 46.981 22.04 47.1177 22.04C47.251 22.04 47.356 22.0733 47.4327 22.14C47.5093 22.2067 47.5477 22.3017 47.5477 22.425C47.5477 22.5417 47.5093 22.635 47.4327 22.705C47.356 22.775 47.251 22.81 47.1177 22.81ZM48.2409 26V22.3H48.9509V26H48.2409ZM50.6577 26.05C50.4277 26.05 50.2194 25.9917 50.0327 25.875C49.8494 25.7583 49.7044 25.5967 49.5977 25.39C49.4944 25.18 49.4427 24.9433 49.4427 24.68C49.4427 24.4133 49.4944 24.1767 49.5977 23.97C49.7044 23.7633 49.8494 23.6 50.0327 23.48C50.216 23.36 50.4244 23.3 50.6577 23.3C50.781 23.3 50.8994 23.32 51.0127 23.36C51.1294 23.3967 51.2327 23.4483 51.3227 23.515C51.4127 23.5817 51.486 23.6567 51.5427 23.74C51.5994 23.82 51.6327 23.9033 51.6427 23.99L51.4627 24.025V22.3H52.1677V26H51.4977L51.4677 25.39L51.6077 25.41C51.6044 25.49 51.576 25.5683 51.5227 25.645C51.4694 25.7217 51.3977 25.7917 51.3077 25.855C51.221 25.915 51.121 25.9633 51.0077 26C50.8977 26.0333 50.781 26.05 50.6577 26.05ZM50.8127 25.46C50.9494 25.46 51.066 25.4267 51.1627 25.36C51.2627 25.2933 51.341 25.2017 51.3977 25.085C51.4544 24.9683 51.4827 24.8333 51.4827 24.68C51.4827 24.5233 51.4544 24.3867 51.3977 24.27C51.341 24.15 51.2627 24.0583 51.1627 23.995C51.066 23.9283 50.9494 23.895 50.8127 23.895C50.6827 23.895 50.5677 23.9283 50.4677 23.995C50.3677 24.0583 50.2894 24.15 50.2327 24.27C50.1794 24.3867 50.1527 24.5233 50.1527 24.68C50.1527 24.8333 50.1794 24.9683 50.2327 25.085C50.2894 25.2017 50.3677 25.2933 50.4677 25.36C50.5677 25.4267 50.6827 25.46 50.8127 25.46Z" fill="url(#paint7_linear_373_3)"/>
<defs>
<filter id="filter0_b_373_3" x="55.72" y="6.07599" width="25.4685" height="15.584" filterUnits="userSpaceOnUse" color-interpolation-filters="sRGB">
<feFlood flood-opacity="0" result="BackgroundImageFix"/>
<feGaussianBlur in="BackgroundImageFix" stdDeviation="1"/>
<feComposite in2="SourceAlpha" operator="in" result="effect1_backgroundBlur_373_3"/>
<feBlend mode="normal" in="SourceGraphic" in2="effect1_backgroundBlur_373_3" result="shape"/>
</filter>
<filter id="filter1_f_373_3" x="29" y="-8.5" width="56" height="56" filterUnits="userSpaceOnUse" color-interpolation-filters="sRGB">
<feFlood flood-opacity="0" result="BackgroundImageFix"/>
<feBlend mode="normal" in="SourceGraphic" in2="BackgroundImageFix" result="shape"/>
<feGaussianBlur stdDeviation="2" result="effect1_foregroundBlur_373_3"/>
</filter>
<filter id="filter2_b_373_3" x="-1.28003" y="4.828" width="55.576" height="16.832" filterUnits="userSpaceOnUse" color-interpolation-filters="sRGB">
<feFlood flood-opacity="0" result="BackgroundImageFix"/>
<feGaussianBlur in="BackgroundImageFix" stdDeviation="1"/>
<feComposite in2="SourceAlpha" operator="in" result="effect1_backgroundBlur_373_3"/>
<feBlend mode="normal" in="SourceGraphic" in2="effect1_backgroundBlur_373_3" result="shape"/>
</filter>
<linearGradient id="paint0_linear_373_3" x1="33" y1="19.366" x2="59.3987" y2="19.366" gradientUnits="userSpaceOnUse">
<stop stop-color="#C00040"/>
<stop offset="1" stop-color="#7F006A"/>
</linearGradient>
<linearGradient id="paint1_linear_373_3" x1="56.866" y1="43.232" x2="56.866" y2="16.8333" gradientUnits="userSpaceOnUse">
<stop stop-color="#C00040"/>
<stop offset="1" stop-color="#7F006A"/>
</linearGradient>
<linearGradient id="paint2_linear_373_3" x1="80.732" y1="19.366" x2="54.3333" y2="19.366" gradientUnits="userSpaceOnUse">
<stop stop-color="#C00040"/>
<stop offset="1" stop-color="#7F006A"/>
</linearGradient>
<linearGradient id="paint3_linear_373_3" x1="56.866" y1="-4.49999" x2="56.866" y2="21.8987" gradientUnits="userSpaceOnUse">
<stop stop-color="#C00040"/>
<stop offset="1" stop-color="#7F006A"/>
</linearGradient>
<linearGradient id="paint4_linear_373_3" x1="75.6667" y1="38.1667" x2="57" y2="19.5" gradientUnits="userSpaceOnUse">
<stop stop-color="#FF60C0"/>
<stop offset="1" stop-color="#C00040"/>
</linearGradient>
<linearGradient id="paint5_linear_373_3" x1="75.6667" y1="0.833313" x2="57" y2="19.5" gradientUnits="userSpaceOnUse">
<stop stop-color="#FF60C0"/>
<stop offset="1" stop-color="#C00040"/>
</linearGradient>
<linearGradient id="paint6_linear_373_3" x1="57" y1="12.8333" x2="57" y2="26.1667" gradientUnits="userSpaceOnUse">
<stop stop-color="#FFC000"/>
<stop offset="1" stop-color="#FF6040"/>
</linearGradient>
<linearGradient id="paint7_linear_373_3" x1="12.5" y1="23.4" x2="52.5" y2="23.4" gradientUnits="userSpaceOnUse">
<stop stop-color="#00DDFF"/>
<stop offset="1" stop-color="#0061E0"/>
</linearGradient>
</defs>
</svg>
