<svg width="16" height="16" viewBox="0 0 16 16" fill="none" xmlns="http://www.w3.org/2000/svg">
<g clip-path="url(#clip0_372_32)">
<rect x="4" y="10" width="12" height="6" rx="1" fill="url(#paint0_linear_372_32)"/>
<path d="M7.84641 14.298C7.47841 14.298 7.19707 14.186 7.00241 13.962C6.80774 13.738 6.71041 13.426 6.71041 13.026C6.71041 12.7353 6.76107 12.49 6.86241 12.29C6.96374 12.09 7.10507 11.9393 7.28641 11.838C7.46774 11.7367 7.67841 11.686 7.91841 11.686C8.09441 11.686 8.27974 11.7167 8.47441 11.778L8.43441 12.242C8.28774 12.202 8.13441 12.182 7.97441 12.182C7.76641 12.182 7.61307 12.2433 7.51441 12.366C7.41574 12.486 7.36641 12.694 7.36641 12.99C7.36641 13.1927 7.38641 13.354 7.42641 13.474C7.46641 13.5913 7.53041 13.678 7.61841 13.734C7.70907 13.7873 7.83041 13.814 7.98241 13.814C8.12907 13.814 8.29307 13.7847 8.47441 13.726L8.52241 14.158C8.32241 14.2513 8.09707 14.298 7.84641 14.298ZM10.8381 14.25H10.2101L10.1021 13.798H9.36213L9.25813 14.25H8.62213L9.36613 11.734H10.1021L10.8381 14.25ZM9.72613 12.226L9.47013 13.334H9.99013L9.72613 12.226ZM12.6397 11.734H13.1797V14.25H12.4957L11.8957 13.014C11.797 12.8087 11.7117 12.618 11.6397 12.442V14.25H11.1037V11.734H11.7957L12.3717 12.906C12.4677 13.1007 12.557 13.298 12.6397 13.498V11.734Z" fill="black"/>
</g>
<defs>
<linearGradient id="paint0_linear_372_32" x1="4" y1="10" x2="16" y2="16" gradientUnits="userSpaceOnUse">
<stop stop-color="#FFC000"/>
<stop offset="1" stop-color="#FF6040"/>
</linearGradient>
<clipPath id="clip0_372_32">
<rect width="16" height="16" fill="white"/>
</clipPath>
</defs>
</svg>
