<svg width="16" height="16" viewBox="0 0 16 16" fill="none" xmlns="http://www.w3.org/2000/svg">
<g clip-path="url(#clip0_657_300)">
<rect width="16" height="16" rx="4" fill="url(#paint0_linear_657_300)"/>
<path d="M4.75 2.25C4.75 2.11193 4.86193 2 5 2C5.13807 2 5.25 2.11193 5.25 2.25V8.75C5.25 8.88807 5.13807 9 5 9C4.86193 9 4.75 8.88807 4.75 8.75V2.25Z" fill="url(#paint1_linear_657_300)"/>
<g filter="url(#filter0_i_657_300)">
<path d="M2.75 3.25C2.75 3.11193 2.86193 3 3 3C3.13807 3 3.25 3.11193 3.25 3.25V6.75C3.25 6.88807 3.13807 7 3 7C2.86193 7 2.75 6.88807 2.75 6.75V3.25Z" fill="black" fill-opacity="0.25"/>
<path d="M5.75 3.25C5.75 3.11193 5.86193 3 6 3C6.13807 3 6.25 3.11193 6.25 3.25V6.75C6.25 6.88807 6.13807 7 6 7C5.86193 7 5.75 6.88807 5.75 6.75V3.25Z" fill="black" fill-opacity="0.25"/>
<path d="M7.75 3.25C7.75 3.11193 7.86193 3 8 3C8.13807 3 8.25 3.11193 8.25 3.25V6.75C8.25 6.88807 8.13807 7 8 7C7.86193 7 7.75 6.88807 7.75 6.75V3.25Z" fill="black" fill-opacity="0.25"/>
<path d="M9.75 3.25C9.75 3.11193 9.86193 3 10 3C10.1381 3 10.25 3.11193 10.25 3.25V6.75C10.25 6.88807 10.1381 7 10 7C9.86193 7 9.75 6.88807 9.75 6.75V3.25Z" fill="black" fill-opacity="0.25"/>
<path d="M11.75 3.25C11.75 3.11193 11.8619 3 12 3C12.1381 3 12.25 3.11193 12.25 3.25V6.75C12.25 6.88807 12.1381 7 12 7C11.8619 7 11.75 6.88807 11.75 6.75V3.25Z" fill="black" fill-opacity="0.25"/>
<path d="M3.75 3.25C3.75 3.11193 3.86193 3 4 3C4.13807 3 4.25 3.11193 4.25 3.25V6.75C4.25 6.88807 4.13807 7 4 7C3.86193 7 3.75 6.88807 3.75 6.75V3.25Z" fill="black" fill-opacity="0.25"/>
<path d="M6.75 3.25C6.75 3.11193 6.86193 3 7 3C7.13807 3 7.25 3.11193 7.25 3.25V6.75C7.25 6.88807 7.13807 7 7 7C6.86193 7 6.75 6.88807 6.75 6.75V3.25Z" fill="black" fill-opacity="0.25"/>
<path d="M8.75 3.25C8.75 3.11193 8.86193 3 9 3C9.13807 3 9.25 3.11193 9.25 3.25V6.75C9.25 6.88807 9.13807 7 9 7C8.86193 7 8.75 6.88807 8.75 6.75V3.25Z" fill="black" fill-opacity="0.25"/>
<path d="M10.75 3.25C10.75 3.11193 10.8619 3 11 3C11.1381 3 11.25 3.11193 11.25 3.25V6.75C11.25 6.88807 11.1381 7 11 7C10.8619 7 10.75 6.88807 10.75 6.75V3.25Z" fill="black" fill-opacity="0.25"/>
<path d="M12.75 3.25C12.75 3.11193 12.8619 3 13 3C13.1381 3 13.25 3.11193 13.25 3.25V6.75C13.25 6.88807 13.1381 7 13 7C12.8619 7 12.75 6.88807 12.75 6.75V3.25Z" fill="black" fill-opacity="0.25"/>
</g>
<g filter="url(#filter1_ddi_657_300)">
<rect x="1.5" y="8" width="13" height="6" rx="1" fill="url(#paint2_linear_657_300)"/>
</g>
<g filter="url(#filter2_di_657_300)">
<circle cx="4.5" cy="11" r="1.75" fill="#6F6B60"/>
</g>
<g filter="url(#filter3_di_657_300)">
<circle cx="11.5" cy="11" r="1.75" fill="#6F6B60"/>
</g>
<g filter="url(#filter4_ddi_657_300)">
<circle cx="4.5" cy="11" r="1.5" fill="url(#paint3_linear_657_300)"/>
</g>
<g filter="url(#filter5_ddi_657_300)">
<circle cx="11.5" cy="11" r="1.5" fill="url(#paint4_linear_657_300)"/>
</g>
<path d="M4.25003 10.25C4.25003 10.1119 4.36196 10 4.50003 10C4.6381 10 4.75003 10.1119 4.75003 10.25V10.75C4.75003 10.8881 4.6381 11 4.50003 11C4.36196 11 4.25003 10.8881 4.25003 10.75V10.25Z" fill="#858585"/>
<path d="M11.25 10.25C11.25 10.1119 11.362 10 11.5 10C11.6381 10 11.75 10.1119 11.75 10.25V10.75C11.75 10.8881 11.6381 11 11.5 11C11.362 11 11.25 10.8881 11.25 10.75V10.25Z" fill="#858585"/>
</g>
<defs>
<filter id="filter0_i_657_300" x="2.75" y="3" width="10.5" height="4.5" filterUnits="userSpaceOnUse" color-interpolation-filters="sRGB">
<feFlood flood-opacity="0" result="BackgroundImageFix"/>
<feBlend mode="normal" in="SourceGraphic" in2="BackgroundImageFix" result="shape"/>
<feColorMatrix in="SourceAlpha" type="matrix" values="0 0 0 0 0 0 0 0 0 0 0 0 0 0 0 0 0 0 127 0" result="hardAlpha"/>
<feOffset dy="0.5"/>
<feGaussianBlur stdDeviation="0.25"/>
<feComposite in2="hardAlpha" operator="arithmetic" k2="-1" k3="1"/>
<feColorMatrix type="matrix" values="0 0 0 0 0 0 0 0 0 0 0 0 0 0 0 0 0 0 0.1 0"/>
<feBlend mode="normal" in2="shape" result="effect1_innerShadow_657_300"/>
</filter>
<filter id="filter1_ddi_657_300" x="-2.5" y="7" width="21" height="15" filterUnits="userSpaceOnUse" color-interpolation-filters="sRGB">
<feFlood flood-opacity="0" result="BackgroundImageFix"/>
<feColorMatrix in="SourceAlpha" type="matrix" values="0 0 0 0 0 0 0 0 0 0 0 0 0 0 0 0 0 0 127 0" result="hardAlpha"/>
<feOffset dy="4"/>
<feGaussianBlur stdDeviation="2"/>
<feComposite in2="hardAlpha" operator="out"/>
<feColorMatrix type="matrix" values="0 0 0 0 0 0 0 0 0 0 0 0 0 0 0 0 0 0 0.1 0"/>
<feBlend mode="normal" in2="BackgroundImageFix" result="effect1_dropShadow_657_300"/>
<feColorMatrix in="SourceAlpha" type="matrix" values="0 0 0 0 0 0 0 0 0 0 0 0 0 0 0 0 0 0 127 0" result="hardAlpha"/>
<feOffset dy="1"/>
<feGaussianBlur stdDeviation="1"/>
<feComposite in2="hardAlpha" operator="out"/>
<feColorMatrix type="matrix" values="0 0 0 0 0 0 0 0 0 0 0 0 0 0 0 0 0 0 0.25 0"/>
<feBlend mode="normal" in2="effect1_dropShadow_657_300" result="effect2_dropShadow_657_300"/>
<feBlend mode="normal" in="SourceGraphic" in2="effect2_dropShadow_657_300" result="shape"/>
<feColorMatrix in="SourceAlpha" type="matrix" values="0 0 0 0 0 0 0 0 0 0 0 0 0 0 0 0 0 0 127 0" result="hardAlpha"/>
<feOffset dy="0.5"/>
<feGaussianBlur stdDeviation="0.5"/>
<feComposite in2="hardAlpha" operator="arithmetic" k2="-1" k3="1"/>
<feColorMatrix type="matrix" values="0 0 0 0 1 0 0 0 0 1 0 0 0 0 1 0 0 0 0.25 0"/>
<feBlend mode="normal" in2="shape" result="effect3_innerShadow_657_300"/>
</filter>
<filter id="filter2_di_657_300" x="1.75" y="7.75" width="5.5" height="5.5" filterUnits="userSpaceOnUse" color-interpolation-filters="sRGB">
<feFlood flood-opacity="0" result="BackgroundImageFix"/>
<feColorMatrix in="SourceAlpha" type="matrix" values="0 0 0 0 0 0 0 0 0 0 0 0 0 0 0 0 0 0 127 0" result="hardAlpha"/>
<feOffset dy="-0.5"/>
<feGaussianBlur stdDeviation="0.5"/>
<feComposite in2="hardAlpha" operator="out"/>
<feColorMatrix type="matrix" values="0 0 0 0 0 0 0 0 0 0 0 0 0 0 0 0 0 0 0.1 0"/>
<feBlend mode="normal" in2="BackgroundImageFix" result="effect1_dropShadow_657_300"/>
<feBlend mode="normal" in="SourceGraphic" in2="effect1_dropShadow_657_300" result="shape"/>
<feColorMatrix in="SourceAlpha" type="matrix" values="0 0 0 0 0 0 0 0 0 0 0 0 0 0 0 0 0 0 127 0" result="hardAlpha"/>
<feOffset dy="0.2"/>
<feGaussianBlur stdDeviation="0.1"/>
<feComposite in2="hardAlpha" operator="arithmetic" k2="-1" k3="1"/>
<feColorMatrix type="matrix" values="0 0 0 0 0 0 0 0 0 0 0 0 0 0 0 0 0 0 0.25 0"/>
<feBlend mode="normal" in2="shape" result="effect2_innerShadow_657_300"/>
</filter>
<filter id="filter3_di_657_300" x="8.75" y="7.75" width="5.5" height="5.5" filterUnits="userSpaceOnUse" color-interpolation-filters="sRGB">
<feFlood flood-opacity="0" result="BackgroundImageFix"/>
<feColorMatrix in="SourceAlpha" type="matrix" values="0 0 0 0 0 0 0 0 0 0 0 0 0 0 0 0 0 0 127 0" result="hardAlpha"/>
<feOffset dy="-0.5"/>
<feGaussianBlur stdDeviation="0.5"/>
<feComposite in2="hardAlpha" operator="out"/>
<feColorMatrix type="matrix" values="0 0 0 0 0 0 0 0 0 0 0 0 0 0 0 0 0 0 0.1 0"/>
<feBlend mode="normal" in2="BackgroundImageFix" result="effect1_dropShadow_657_300"/>
<feBlend mode="normal" in="SourceGraphic" in2="effect1_dropShadow_657_300" result="shape"/>
<feColorMatrix in="SourceAlpha" type="matrix" values="0 0 0 0 0 0 0 0 0 0 0 0 0 0 0 0 0 0 127 0" result="hardAlpha"/>
<feOffset dy="0.2"/>
<feGaussianBlur stdDeviation="0.1"/>
<feComposite in2="hardAlpha" operator="arithmetic" k2="-1" k3="1"/>
<feColorMatrix type="matrix" values="0 0 0 0 0 0 0 0 0 0 0 0 0 0 0 0 0 0 0.25 0"/>
<feBlend mode="normal" in2="shape" result="effect2_innerShadow_657_300"/>
</filter>
<filter id="filter4_ddi_657_300" x="1" y="9.5" width="7" height="7" filterUnits="userSpaceOnUse" color-interpolation-filters="sRGB">
<feFlood flood-opacity="0" result="BackgroundImageFix"/>
<feColorMatrix in="SourceAlpha" type="matrix" values="0 0 0 0 0 0 0 0 0 0 0 0 0 0 0 0 0 0 127 0" result="hardAlpha"/>
<feOffset dy="2"/>
<feGaussianBlur stdDeviation="1"/>
<feComposite in2="hardAlpha" operator="out"/>
<feColorMatrix type="matrix" values="0 0 0 0 0 0 0 0 0 0 0 0 0 0 0 0 0 0 0.1 0"/>
<feBlend mode="normal" in2="BackgroundImageFix" result="effect1_dropShadow_657_300"/>
<feColorMatrix in="SourceAlpha" type="matrix" values="0 0 0 0 0 0 0 0 0 0 0 0 0 0 0 0 0 0 127 0" result="hardAlpha"/>
<feOffset dy="1"/>
<feGaussianBlur stdDeviation="0.5"/>
<feComposite in2="hardAlpha" operator="out"/>
<feColorMatrix type="matrix" values="0 0 0 0 0 0 0 0 0 0 0 0 0 0 0 0 0 0 0.25 0"/>
<feBlend mode="normal" in2="effect1_dropShadow_657_300" result="effect2_dropShadow_657_300"/>
<feBlend mode="normal" in="SourceGraphic" in2="effect2_dropShadow_657_300" result="shape"/>
<feColorMatrix in="SourceAlpha" type="matrix" values="0 0 0 0 0 0 0 0 0 0 0 0 0 0 0 0 0 0 127 0" result="hardAlpha"/>
<feOffset dy="0.5"/>
<feGaussianBlur stdDeviation="0.25"/>
<feComposite in2="hardAlpha" operator="arithmetic" k2="-1" k3="1"/>
<feColorMatrix type="matrix" values="0 0 0 0 1 0 0 0 0 1 0 0 0 0 1 0 0 0 1 0"/>
<feBlend mode="normal" in2="shape" result="effect3_innerShadow_657_300"/>
</filter>
<filter id="filter5_ddi_657_300" x="8" y="9.5" width="7" height="7" filterUnits="userSpaceOnUse" color-interpolation-filters="sRGB">
<feFlood flood-opacity="0" result="BackgroundImageFix"/>
<feColorMatrix in="SourceAlpha" type="matrix" values="0 0 0 0 0 0 0 0 0 0 0 0 0 0 0 0 0 0 127 0" result="hardAlpha"/>
<feOffset dy="2"/>
<feGaussianBlur stdDeviation="1"/>
<feComposite in2="hardAlpha" operator="out"/>
<feColorMatrix type="matrix" values="0 0 0 0 0 0 0 0 0 0 0 0 0 0 0 0 0 0 0.1 0"/>
<feBlend mode="normal" in2="BackgroundImageFix" result="effect1_dropShadow_657_300"/>
<feColorMatrix in="SourceAlpha" type="matrix" values="0 0 0 0 0 0 0 0 0 0 0 0 0 0 0 0 0 0 127 0" result="hardAlpha"/>
<feOffset dy="1"/>
<feGaussianBlur stdDeviation="0.5"/>
<feComposite in2="hardAlpha" operator="out"/>
<feColorMatrix type="matrix" values="0 0 0 0 0 0 0 0 0 0 0 0 0 0 0 0 0 0 0.25 0"/>
<feBlend mode="normal" in2="effect1_dropShadow_657_300" result="effect2_dropShadow_657_300"/>
<feBlend mode="normal" in="SourceGraphic" in2="effect2_dropShadow_657_300" result="shape"/>
<feColorMatrix in="SourceAlpha" type="matrix" values="0 0 0 0 0 0 0 0 0 0 0 0 0 0 0 0 0 0 127 0" result="hardAlpha"/>
<feOffset dy="0.5"/>
<feGaussianBlur stdDeviation="0.25"/>
<feComposite in2="hardAlpha" operator="arithmetic" k2="-1" k3="1"/>
<feColorMatrix type="matrix" values="0 0 0 0 1 0 0 0 0 1 0 0 0 0 1 0 0 0 1 0"/>
<feBlend mode="normal" in2="shape" result="effect3_innerShadow_657_300"/>
</filter>
<linearGradient id="paint0_linear_657_300" x1="8" y1="0" x2="8" y2="16" gradientUnits="userSpaceOnUse">
<stop stop-color="#80A1A8"/>
<stop offset="1" stop-color="#4A3F3D"/>
</linearGradient>
<linearGradient id="paint1_linear_657_300" x1="5" y1="2" x2="5" y2="9" gradientUnits="userSpaceOnUse">
<stop stop-color="#FF6040"/>
<stop offset="1" stop-color="#C00040"/>
</linearGradient>
<linearGradient id="paint2_linear_657_300" x1="8" y1="8" x2="8" y2="14" gradientUnits="userSpaceOnUse">
<stop stop-color="#BACEE3"/>
<stop offset="1" stop-color="#6E6859"/>
</linearGradient>
<linearGradient id="paint3_linear_657_300" x1="4.5" y1="9.5" x2="4.5" y2="12.5" gradientUnits="userSpaceOnUse">
<stop stop-color="#D5E9FC"/>
<stop offset="1" stop-color="#ABA28B"/>
</linearGradient>
<linearGradient id="paint4_linear_657_300" x1="11.5" y1="9.5" x2="11.5" y2="12.5" gradientUnits="userSpaceOnUse">
<stop stop-color="#D5E9FC"/>
<stop offset="1" stop-color="#ABA28B"/>
</linearGradient>
<clipPath id="clip0_657_300">
<rect width="16" height="16" rx="4" fill="white"/>
</clipPath>
</defs>
</svg>
