<svg width="16" height="16" viewBox="0 0 16 16" fill="none" xmlns="http://www.w3.org/2000/svg">
<rect width="16" height="16" rx="4" fill="url(#paint0_linear_408_98)"/>
<path d="M4.5 2.5C4.5 2.22386 4.72386 2 5 2V2C5.27614 2 5.5 2.22386 5.5 2.5V8.5C5.5 8.77614 5.27614 9 5 9V9C4.72386 9 4.5 8.77614 4.5 8.5V2.5Z" fill="url(#paint1_linear_408_98)"/>
<path d="M2.5 3.5C2.5 3.22386 2.72386 3 3 3C3.27614 3 3.5 3.22386 3.5 3.5V6.5C3.5 6.77614 3.27614 7 3 7C2.72386 7 2.5 6.77614 2.5 6.5V3.5Z" fill="url(#paint2_linear_408_98)"/>
<path d="M6.5 3.5C6.5 3.22386 6.72386 3 7 3C7.27614 3 7.5 3.22386 7.5 3.5V6.5C7.5 6.77614 7.27614 7 7 7C6.72386 7 6.5 6.77614 6.5 6.5V3.5Z" fill="url(#paint3_linear_408_98)"/>
<path d="M8.5 3.5C8.5 3.22386 8.72386 3 9 3C9.27614 3 9.5 3.22386 9.5 3.5V6.5C9.5 6.77614 9.27614 7 9 7C8.72386 7 8.5 6.77614 8.5 6.5V3.5Z" fill="url(#paint4_linear_408_98)"/>
<path d="M10.5 3.5C10.5 3.22386 10.7239 3 11 3C11.2761 3 11.5 3.22386 11.5 3.5V6.5C11.5 6.77614 11.2761 7 11 7C10.7239 7 10.5 6.77614 10.5 6.5V3.5Z" fill="url(#paint5_linear_408_98)"/>
<path d="M12.5 3.5C12.5 3.22386 12.7239 3 13 3C13.2761 3 13.5 3.22386 13.5 3.5V6.5C13.5 6.77614 13.2761 7 13 7C12.7239 7 12.5 6.77614 12.5 6.5V3.5Z" fill="url(#paint6_linear_408_98)"/>
<rect x="1.5" y="8" width="13" height="6" rx="3" fill="url(#paint7_linear_408_98)"/>
<circle cx="4.5" cy="11" r="1.5" fill="url(#paint8_linear_408_98)"/>
<circle cx="11.5" cy="11" r="1.5" fill="url(#paint9_linear_408_98)"/>
<defs>
<linearGradient id="paint0_linear_408_98" x1="8" y1="0" x2="8" y2="16" gradientUnits="userSpaceOnUse">
<stop stop-color="#80A1A8"/>
<stop offset="1" stop-color="#4A3F3D"/>
</linearGradient>
<linearGradient id="paint1_linear_408_98" x1="5" y1="2" x2="5" y2="9" gradientUnits="userSpaceOnUse">
<stop stop-color="#FF6040"/>
<stop offset="1" stop-color="#C00040"/>
</linearGradient>
<linearGradient id="paint2_linear_408_98" x1="3" y1="3" x2="3" y2="7" gradientUnits="userSpaceOnUse">
<stop stop-opacity="0.25"/>
<stop offset="1" stop-opacity="0.1"/>
</linearGradient>
<linearGradient id="paint3_linear_408_98" x1="7" y1="3" x2="7" y2="7" gradientUnits="userSpaceOnUse">
<stop stop-opacity="0.25"/>
<stop offset="1" stop-opacity="0.1"/>
</linearGradient>
<linearGradient id="paint4_linear_408_98" x1="9" y1="3" x2="9" y2="7" gradientUnits="userSpaceOnUse">
<stop stop-opacity="0.25"/>
<stop offset="1" stop-opacity="0.1"/>
</linearGradient>
<linearGradient id="paint5_linear_408_98" x1="11" y1="3" x2="11" y2="7" gradientUnits="userSpaceOnUse">
<stop stop-opacity="0.25"/>
<stop offset="1" stop-opacity="0.1"/>
</linearGradient>
<linearGradient id="paint6_linear_408_98" x1="13" y1="3" x2="13" y2="7" gradientUnits="userSpaceOnUse">
<stop stop-opacity="0.25"/>
<stop offset="1" stop-opacity="0.1"/>
</linearGradient>
<linearGradient id="paint7_linear_408_98" x1="8" y1="8" x2="8" y2="14" gradientUnits="userSpaceOnUse">
<stop stop-color="#BACEE3"/>
<stop offset="1" stop-color="#6E6859"/>
</linearGradient>
<linearGradient id="paint8_linear_408_98" x1="4.5" y1="9.5" x2="4.5" y2="12.5" gradientUnits="userSpaceOnUse">
<stop stop-color="#D5E9FC"/>
<stop offset="1" stop-color="#ABA28B"/>
</linearGradient>
<linearGradient id="paint9_linear_408_98" x1="11.5" y1="9.5" x2="11.5" y2="12.5" gradientUnits="userSpaceOnUse">
<stop stop-color="#D5E9FC"/>
<stop offset="1" stop-color="#ABA28B"/>
</linearGradient>
</defs>
</svg>
