<svg width="16" height="16" viewBox="0 0 16 16" fill="none" xmlns="http://www.w3.org/2000/svg">
<rect width="16" height="16" rx="4" fill="url(#paint0_linear_26_379)"/>
<rect width="16" height="16" rx="4" fill="url(#paint1_linear_26_379)"/>
<rect x="10" y="2.25" width="2" height="2" rx="1" fill="#C00040"/>
<rect x="4" y="2.25" width="2" height="2" rx="1" fill="#C00040"/>
<path d="M5 3.25V4.75C5 6.40685 6.34315 7.75 8 7.75V7.75C9.65685 7.75 11 6.40685 11 4.75V3.25" stroke="url(#paint2_linear_26_379)" stroke-linecap="round"/>
<path d="M3.56732 13.035C3.38765 13.035 3.22082 13.0035 3.06682 12.9405C2.91515 12.8775 2.78332 12.79 2.67132 12.678C2.56165 12.5637 2.47532 12.4295 2.41232 12.2755C2.35165 12.1215 2.32132 11.9523 2.32132 11.768C2.32132 11.586 2.35165 11.418 2.41232 11.264C2.47532 11.11 2.56165 10.9758 2.67132 10.8615C2.78332 10.7472 2.91515 10.6585 3.06682 10.5955C3.22082 10.5325 3.38765 10.501 3.56732 10.501C3.74699 10.501 3.91149 10.5325 4.06082 10.5955C4.21249 10.6585 4.34432 10.7472 4.45632 10.8615C4.56832 10.9758 4.65465 11.11 4.71532 11.264C4.77832 11.418 4.80982 11.5872 4.80982 11.7715C4.80982 11.9512 4.77832 12.118 4.71532 12.272C4.65465 12.426 4.56832 12.5602 4.45632 12.6745C4.34432 12.7888 4.21249 12.8775 4.06082 12.9405C3.91149 13.0035 3.74699 13.035 3.56732 13.035ZM3.56732 12.538C3.66999 12.538 3.76449 12.5193 3.85082 12.482C3.93715 12.4423 4.01182 12.3887 4.07482 12.321C4.14015 12.251 4.19032 12.1693 4.22532 12.076C4.26032 11.9827 4.27782 11.8812 4.27782 11.7715C4.27782 11.6595 4.26032 11.5568 4.22532 11.4635C4.19032 11.3702 4.14015 11.2885 4.07482 11.2185C4.01182 11.1485 3.93715 11.0948 3.85082 11.0575C3.76449 11.0178 3.66999 10.998 3.56732 10.998C3.46465 10.998 3.36899 11.0178 3.28032 11.0575C3.19399 11.0948 3.11815 11.1485 3.05282 11.2185C2.98982 11.2862 2.94082 11.3678 2.90582 11.4635C2.87082 11.5568 2.85332 11.6595 2.85332 11.7715C2.85332 11.9185 2.88365 12.0503 2.94432 12.167C3.00732 12.2813 3.09249 12.3723 3.19982 12.44C3.30715 12.5053 3.42965 12.538 3.56732 12.538ZM5.21505 13V11.1485H5.69455L5.71205 11.7435L5.62805 11.6175C5.65839 11.5242 5.70389 11.439 5.76455 11.362C5.82755 11.285 5.90105 11.2243 5.98505 11.18C6.07139 11.1333 6.16122 11.11 6.25455 11.11C6.29655 11.11 6.33505 11.1135 6.37005 11.1205C6.40739 11.1252 6.43889 11.1333 6.46455 11.145L6.33155 11.6875C6.30589 11.6758 6.27205 11.6653 6.23005 11.656C6.19039 11.6443 6.14955 11.6385 6.10755 11.6385C6.05389 11.6385 6.00255 11.649 5.95355 11.67C5.90689 11.6887 5.86489 11.7167 5.82755 11.754C5.79255 11.789 5.76455 11.831 5.74355 11.88C5.72489 11.929 5.71555 11.9838 5.71555 12.0445V13H5.21505ZM7.47611 13.035C7.29877 13.035 7.14011 12.993 7.00011 12.909C6.86011 12.825 6.74927 12.7107 6.66761 12.566C6.58827 12.419 6.54861 12.2557 6.54861 12.076C6.54861 11.8917 6.58827 11.7272 6.66761 11.5825C6.74927 11.4355 6.86011 11.32 7.00011 11.236C7.14011 11.152 7.29877 11.11 7.47611 11.11C7.64177 11.11 7.79227 11.1415 7.92761 11.2045C8.06527 11.2652 8.17261 11.3492 8.24961 11.4565L7.98011 11.7855C7.94744 11.7412 7.90661 11.7003 7.85761 11.663C7.80861 11.6257 7.75494 11.5965 7.69661 11.5755C7.64061 11.5545 7.58227 11.544 7.52161 11.544C7.42594 11.544 7.34077 11.5673 7.26611 11.614C7.19144 11.6583 7.13311 11.7213 7.09111 11.803C7.04911 11.8823 7.02811 11.9722 7.02811 12.0725C7.02811 12.1705 7.05027 12.2592 7.09461 12.3385C7.13894 12.4178 7.19844 12.4808 7.27311 12.5275C7.34777 12.5742 7.43061 12.5975 7.52161 12.5975C7.58227 12.5975 7.63944 12.5893 7.69311 12.573C7.74911 12.5543 7.80044 12.5275 7.84711 12.4925C7.89377 12.4575 7.93811 12.4167 7.98011 12.37L8.24961 12.699C8.17261 12.7993 8.06294 12.881 7.92061 12.944C7.78061 13.0047 7.63244 13.035 7.47611 13.035ZM8.56808 13V10.41H9.06158V11.5265L8.96358 11.5685C8.98691 11.4845 9.03241 11.4087 9.10008 11.341C9.16775 11.271 9.24825 11.215 9.34158 11.173C9.43491 11.131 9.53175 11.11 9.63208 11.11C9.77208 11.11 9.88875 11.138 9.98208 11.194C10.0777 11.25 10.1489 11.3352 10.1956 11.4495C10.2446 11.5615 10.2691 11.7015 10.2691 11.8695V13H9.77208V11.9045C9.77208 11.8205 9.76041 11.7505 9.73708 11.6945C9.71375 11.6385 9.67875 11.5977 9.63208 11.572C9.58541 11.5463 9.52591 11.5347 9.45358 11.537C9.39758 11.537 9.34625 11.5463 9.29958 11.565C9.25291 11.5813 9.21091 11.6058 9.17358 11.6385C9.13858 11.6712 9.11175 11.7085 9.09308 11.7505C9.07441 11.7925 9.06508 11.8392 9.06508 11.8905V13H8.81658C8.76525 13 8.71858 13 8.67658 13C8.63458 13 8.59841 13 8.56808 13ZM10.7873 13V11.1485H11.2843V13H10.7873ZM11.0358 10.767C10.9378 10.767 10.862 10.7437 10.8083 10.697C10.7547 10.6503 10.7278 10.5838 10.7278 10.4975C10.7278 10.4182 10.7547 10.354 10.8083 10.305C10.8643 10.2537 10.9402 10.228 11.0358 10.228C11.1292 10.228 11.2027 10.2513 11.2563 10.298C11.31 10.3447 11.3368 10.4112 11.3368 10.4975C11.3368 10.5792 11.31 10.6445 11.2563 10.6935C11.2027 10.7425 11.1292 10.767 11.0358 10.767ZM12.5466 13.035C12.3856 13.035 12.2397 12.9942 12.1091 12.9125C11.9807 12.8308 11.8792 12.7177 11.8046 12.573C11.7322 12.426 11.6961 12.2603 11.6961 12.076C11.6961 11.8893 11.7322 11.7237 11.8046 11.579C11.8792 11.4343 11.9807 11.32 12.1091 11.236C12.2374 11.152 12.3832 11.11 12.5466 11.11C12.6329 11.11 12.7157 11.124 12.7951 11.152C12.8767 11.1777 12.9491 11.2138 13.0121 11.2605C13.0751 11.3072 13.1264 11.3597 13.1661 11.418C13.2057 11.474 13.2291 11.5323 13.2361 11.593L13.1101 11.6175V10.41H13.6036V13H13.1346L13.1136 12.573L13.2116 12.587C13.2092 12.643 13.1894 12.6978 13.1521 12.7515C13.1147 12.8052 13.0646 12.8542 13.0016 12.8985C12.9409 12.9405 12.8709 12.9743 12.7916 13C12.7146 13.0233 12.6329 13.035 12.5466 13.035ZM12.6551 12.622C12.7507 12.622 12.8324 12.5987 12.9001 12.552C12.9701 12.5053 13.0249 12.4412 13.0646 12.3595C13.1042 12.2778 13.1241 12.1833 13.1241 12.076C13.1241 11.9663 13.1042 11.8707 13.0646 11.789C13.0249 11.705 12.9701 11.6408 12.9001 11.5965C12.8324 11.5498 12.7507 11.5265 12.6551 11.5265C12.5641 11.5265 12.4836 11.5498 12.4136 11.5965C12.3436 11.6408 12.2887 11.705 12.2491 11.789C12.2117 11.8707 12.1931 11.9663 12.1931 12.076C12.1931 12.1833 12.2117 12.2778 12.2491 12.3595C12.2887 12.4412 12.3436 12.5053 12.4136 12.552C12.4836 12.5987 12.5641 12.622 12.6551 12.622Z" fill="white"/>
<defs>
<linearGradient id="paint0_linear_26_379" x1="8" y1="0" x2="8" y2="16" gradientUnits="userSpaceOnUse">
<stop stop-color="#C00040"/>
<stop offset="1" stop-color="#8040A0"/>
</linearGradient>
<linearGradient id="paint1_linear_26_379" x1="8" y1="0" x2="8" y2="16" gradientUnits="userSpaceOnUse">
<stop stop-color="#FF6040"/>
<stop offset="1" stop-color="#C00040"/>
</linearGradient>
<linearGradient id="paint2_linear_26_379" x1="8.42857" y1="2.75" x2="8.42857" y2="8.47727" gradientUnits="userSpaceOnUse">
<stop stop-color="white"/>
<stop offset="1" stop-color="#B0DDFF"/>
</linearGradient>
</defs>
</svg>
