<svg width="16" height="16" viewBox="0 0 16 16" fill="none" xmlns="http://www.w3.org/2000/svg">
<rect width="16" height="16" rx="4" fill="url(#paint0_linear_657_257)"/>
<path fill-rule="evenodd" clip-rule="evenodd" d="M5 2.25C4.44772 2.25 4 2.69772 4 3.25C4 3.80228 4.44772 4.25 5 4.25C5.55228 4.25 6 3.80228 6 3.25C6 2.69772 5.55228 2.25 5 2.25ZM11 2.25C10.4477 2.25 10 2.69772 10 3.25C10 3.80228 10.4477 4.25 11 4.25C11.5523 4.25 12 3.80228 12 3.25C12 2.69772 11.5523 2.25 11 2.25Z" fill="#C00040"/>
<g filter="url(#filter0_di_657_257)">
<path d="M5 3.25V3.55848C5 4.41934 5.55086 5.18362 6.36754 5.45585L6.41886 5.47295C7.4452 5.81507 8.5548 5.81507 9.58114 5.47295L9.63246 5.45585C10.4491 5.18362 11 4.41934 11 3.55848V3.25" stroke="white" stroke-linecap="round"/>
</g>
<g filter="url(#filter1_i_657_257)">
<path d="M3.56732 12.035C3.38765 12.035 3.22082 12.0035 3.06682 11.9405C2.91515 11.8775 2.78332 11.79 2.67132 11.678C2.56165 11.5637 2.47532 11.4295 2.41232 11.2755C2.35165 11.1215 2.32132 10.9523 2.32132 10.768C2.32132 10.586 2.35165 10.418 2.41232 10.264C2.47532 10.11 2.56165 9.97583 2.67132 9.8615C2.78332 9.74717 2.91515 9.6585 3.06682 9.5955C3.22082 9.5325 3.38765 9.501 3.56732 9.501C3.74699 9.501 3.91149 9.5325 4.06082 9.5955C4.21249 9.6585 4.34432 9.74717 4.45632 9.8615C4.56832 9.97583 4.65465 10.11 4.71532 10.264C4.77832 10.418 4.80982 10.5872 4.80982 10.7715C4.80982 10.9512 4.77832 11.118 4.71532 11.272C4.65465 11.426 4.56832 11.5602 4.45632 11.6745C4.34432 11.7888 4.21249 11.8775 4.06082 11.9405C3.91149 12.0035 3.74699 12.035 3.56732 12.035ZM3.56732 11.538C3.66999 11.538 3.76449 11.5193 3.85082 11.482C3.93715 11.4423 4.01182 11.3887 4.07482 11.321C4.14015 11.251 4.19032 11.1693 4.22532 11.076C4.26032 10.9827 4.27782 10.8812 4.27782 10.7715C4.27782 10.6595 4.26032 10.5568 4.22532 10.4635C4.19032 10.3702 4.14015 10.2885 4.07482 10.2185C4.01182 10.1485 3.93715 10.0948 3.85082 10.0575C3.76449 10.0178 3.66999 9.998 3.56732 9.998C3.46465 9.998 3.36899 10.0178 3.28032 10.0575C3.19399 10.0948 3.11815 10.1485 3.05282 10.2185C2.98982 10.2862 2.94082 10.3678 2.90582 10.4635C2.87082 10.5568 2.85332 10.6595 2.85332 10.7715C2.85332 10.9185 2.88365 11.0503 2.94432 11.167C3.00732 11.2813 3.09249 11.3723 3.19982 11.44C3.30715 11.5053 3.42965 11.538 3.56732 11.538ZM5.21505 12V10.1485H5.69455L5.71205 10.7435L5.62805 10.6175C5.65839 10.5242 5.70389 10.439 5.76455 10.362C5.82755 10.285 5.90105 10.2243 5.98505 10.18C6.07139 10.1333 6.16122 10.11 6.25455 10.11C6.29655 10.11 6.33505 10.1135 6.37005 10.1205C6.40739 10.1252 6.43889 10.1333 6.46455 10.145L6.33155 10.6875C6.30589 10.6758 6.27205 10.6653 6.23005 10.656C6.19039 10.6443 6.14955 10.6385 6.10755 10.6385C6.05389 10.6385 6.00255 10.649 5.95355 10.67C5.90689 10.6887 5.86489 10.7167 5.82755 10.754C5.79255 10.789 5.76455 10.831 5.74355 10.88C5.72489 10.929 5.71555 10.9838 5.71555 11.0445V12H5.21505ZM7.47611 12.035C7.29877 12.035 7.14011 11.993 7.00011 11.909C6.86011 11.825 6.74927 11.7107 6.66761 11.566C6.58827 11.419 6.54861 11.2557 6.54861 11.076C6.54861 10.8917 6.58827 10.7272 6.66761 10.5825C6.74927 10.4355 6.86011 10.32 7.00011 10.236C7.14011 10.152 7.29877 10.11 7.47611 10.11C7.64177 10.11 7.79227 10.1415 7.92761 10.2045C8.06527 10.2652 8.17261 10.3492 8.24961 10.4565L7.98011 10.7855C7.94744 10.7412 7.90661 10.7003 7.85761 10.663C7.80861 10.6257 7.75494 10.5965 7.69661 10.5755C7.64061 10.5545 7.58227 10.544 7.52161 10.544C7.42594 10.544 7.34077 10.5673 7.26611 10.614C7.19144 10.6583 7.13311 10.7213 7.09111 10.803C7.04911 10.8823 7.02811 10.9722 7.02811 11.0725C7.02811 11.1705 7.05027 11.2592 7.09461 11.3385C7.13894 11.4178 7.19844 11.4808 7.27311 11.5275C7.34777 11.5742 7.43061 11.5975 7.52161 11.5975C7.58227 11.5975 7.63944 11.5893 7.69311 11.573C7.74911 11.5543 7.80044 11.5275 7.84711 11.4925C7.89377 11.4575 7.93811 11.4167 7.98011 11.37L8.24961 11.699C8.17261 11.7993 8.06294 11.881 7.92061 11.944C7.78061 12.0047 7.63244 12.035 7.47611 12.035ZM8.56808 12V9.41H9.06158V10.5265L8.96358 10.5685C8.98691 10.4845 9.03241 10.4087 9.10008 10.341C9.16775 10.271 9.24825 10.215 9.34158 10.173C9.43491 10.131 9.53175 10.11 9.63208 10.11C9.77208 10.11 9.88875 10.138 9.98208 10.194C10.0777 10.25 10.1489 10.3352 10.1956 10.4495C10.2446 10.5615 10.2691 10.7015 10.2691 10.8695V12H9.77208V10.9045C9.77208 10.8205 9.76041 10.7505 9.73708 10.6945C9.71375 10.6385 9.67875 10.5977 9.63208 10.572C9.58541 10.5463 9.52591 10.5347 9.45358 10.537C9.39758 10.537 9.34625 10.5463 9.29958 10.565C9.25291 10.5813 9.21091 10.6058 9.17358 10.6385C9.13858 10.6712 9.11175 10.7085 9.09308 10.7505C9.07441 10.7925 9.06508 10.8392 9.06508 10.8905V12H8.81658C8.76525 12 8.71858 12 8.67658 12C8.63458 12 8.59841 12 8.56808 12ZM10.7873 12V10.1485H11.2843V12H10.7873ZM11.0358 9.767C10.9378 9.767 10.862 9.74367 10.8083 9.697C10.7547 9.65033 10.7278 9.58383 10.7278 9.4975C10.7278 9.41817 10.7547 9.354 10.8083 9.305C10.8643 9.25367 10.9402 9.228 11.0358 9.228C11.1292 9.228 11.2027 9.25133 11.2563 9.298C11.31 9.34467 11.3368 9.41117 11.3368 9.4975C11.3368 9.57917 11.31 9.6445 11.2563 9.6935C11.2027 9.7425 11.1292 9.767 11.0358 9.767ZM12.5466 12.035C12.3856 12.035 12.2397 11.9942 12.1091 11.9125C11.9807 11.8308 11.8792 11.7177 11.8046 11.573C11.7322 11.426 11.6961 11.2603 11.6961 11.076C11.6961 10.8893 11.7322 10.7237 11.8046 10.579C11.8792 10.4343 11.9807 10.32 12.1091 10.236C12.2374 10.152 12.3832 10.11 12.5466 10.11C12.6329 10.11 12.7157 10.124 12.7951 10.152C12.8767 10.1777 12.9491 10.2138 13.0121 10.2605C13.0751 10.3072 13.1264 10.3597 13.1661 10.418C13.2057 10.474 13.2291 10.5323 13.2361 10.593L13.1101 10.6175V9.41H13.6036V12H13.1346L13.1136 11.573L13.2116 11.587C13.2092 11.643 13.1894 11.6978 13.1521 11.7515C13.1147 11.8052 13.0646 11.8542 13.0016 11.8985C12.9409 11.9405 12.8709 11.9743 12.7916 12C12.7146 12.0233 12.6329 12.035 12.5466 12.035ZM12.6551 11.622C12.7507 11.622 12.8324 11.5987 12.9001 11.552C12.9701 11.5053 13.0249 11.4412 13.0646 11.3595C13.1042 11.2778 13.1241 11.1833 13.1241 11.076C13.1241 10.9663 13.1042 10.8707 13.0646 10.789C13.0249 10.705 12.9701 10.6408 12.9001 10.5965C12.8324 10.5498 12.7507 10.5265 12.6551 10.5265C12.5641 10.5265 12.4836 10.5498 12.4136 10.5965C12.3436 10.6408 12.2887 10.705 12.2491 10.789C12.2117 10.8707 12.1931 10.9663 12.1931 11.076C12.1931 11.1833 12.2117 11.2778 12.2491 11.3595C12.2887 11.4412 12.3436 11.5053 12.4136 11.552C12.4836 11.5987 12.5641 11.622 12.6551 11.622Z" fill="url(#paint1_linear_657_257)"/>
</g>
<defs>
<filter id="filter0_di_657_257" x="4" y="2.25" width="8" height="5.47952" filterUnits="userSpaceOnUse" color-interpolation-filters="sRGB">
<feFlood flood-opacity="0" result="BackgroundImageFix"/>
<feColorMatrix in="SourceAlpha" type="matrix" values="0 0 0 0 0 0 0 0 0 0 0 0 0 0 0 0 0 0 127 0" result="hardAlpha"/>
<feOffset dy="1"/>
<feGaussianBlur stdDeviation="0.25"/>
<feComposite in2="hardAlpha" operator="out"/>
<feColorMatrix type="matrix" values="0 0 0 0 0 0 0 0 0 0 0 0 0 0 0 0 0 0 0.1 0"/>
<feBlend mode="normal" in2="BackgroundImageFix" result="effect1_dropShadow_657_257"/>
<feBlend mode="normal" in="SourceGraphic" in2="effect1_dropShadow_657_257" result="shape"/>
<feColorMatrix in="SourceAlpha" type="matrix" values="0 0 0 0 0 0 0 0 0 0 0 0 0 0 0 0 0 0 127 0" result="hardAlpha"/>
<feOffset dy="-0.5"/>
<feGaussianBlur stdDeviation="0.25"/>
<feComposite in2="hardAlpha" operator="arithmetic" k2="-1" k3="1"/>
<feColorMatrix type="matrix" values="0 0 0 0 0 0 0 0 0 0 0 0 0 0 0 0 0 0 0.25 0"/>
<feBlend mode="normal" in2="shape" result="effect2_innerShadow_657_257"/>
</filter>
<filter id="filter1_i_657_257" x="2.32129" y="9.228" width="11.2823" height="3.05701" filterUnits="userSpaceOnUse" color-interpolation-filters="sRGB">
<feFlood flood-opacity="0" result="BackgroundImageFix"/>
<feBlend mode="normal" in="SourceGraphic" in2="BackgroundImageFix" result="shape"/>
<feColorMatrix in="SourceAlpha" type="matrix" values="0 0 0 0 0 0 0 0 0 0 0 0 0 0 0 0 0 0 127 0" result="hardAlpha"/>
<feOffset dy="0.25"/>
<feGaussianBlur stdDeviation="0.125"/>
<feComposite in2="hardAlpha" operator="arithmetic" k2="-1" k3="1"/>
<feColorMatrix type="matrix" values="0 0 0 0 1 0 0 0 0 1 0 0 0 0 1 0 0 0 0.25 0"/>
<feBlend mode="normal" in2="shape" result="effect1_innerShadow_657_257"/>
</filter>
<linearGradient id="paint0_linear_657_257" x1="8" y1="0" x2="8" y2="16" gradientUnits="userSpaceOnUse">
<stop stop-color="#FF6040"/>
<stop offset="1" stop-color="#C00040"/>
</linearGradient>
<linearGradient id="paint1_linear_657_257" x1="8" y1="9" x2="8" y2="13" gradientUnits="userSpaceOnUse">
<stop stop-color="white"/>
<stop offset="1" stop-color="white" stop-opacity="0.75"/>
</linearGradient>
</defs>
</svg>
