<svg width="16" height="16" viewBox="0 0 16 16" fill="none" xmlns="http://www.w3.org/2000/svg">
<rect width="16" height="16" rx="4" fill="url(#paint0_linear_26_379)"/>
<g filter="url(#filter0_d_26_379)">
<rect x="3" y="3" width="10" height="10" rx="1" fill="url(#paint1_linear_26_379)"/>
</g>
<g filter="url(#filter1_d_26_379)">
<path d="M6 4V3C6 2.44772 5.55228 2 5 2C4.44772 2 4 2.44772 4 3V4C4 6.5 5.5 8 8 8C10.5 8 12 6.5 12 4V3C12 2.44772 11.5523 2 11 2C10.4477 2 10 2.44772 10 3V4C10 5.5 9 6 8 6C7 6 6 5.5 6 4Z" fill="url(#paint2_linear_26_379)"/>
</g>
<defs>
<filter id="filter0_d_26_379" x="2" y="2.5" width="12" height="12" filterUnits="userSpaceOnUse" color-interpolation-filters="sRGB">
<feFlood flood-opacity="0" result="BackgroundImageFix"/>
<feColorMatrix in="SourceAlpha" type="matrix" values="0 0 0 0 0 0 0 0 0 0 0 0 0 0 0 0 0 0 127 0" result="hardAlpha"/>
<feOffset dy="0.5"/>
<feGaussianBlur stdDeviation="0.5"/>
<feComposite in2="hardAlpha" operator="out"/>
<feColorMatrix type="matrix" values="0 0 0 0 0 0 0 0 0 0 0 0 0 0 0 0 0 0 0.25 0"/>
<feBlend mode="normal" in2="BackgroundImageFix" result="effect1_dropShadow_26_379"/>
<feBlend mode="normal" in="SourceGraphic" in2="effect1_dropShadow_26_379" result="shape"/>
</filter>
<filter id="filter1_d_26_379" x="3" y="1.5" width="10" height="8" filterUnits="userSpaceOnUse" color-interpolation-filters="sRGB">
<feFlood flood-opacity="0" result="BackgroundImageFix"/>
<feColorMatrix in="SourceAlpha" type="matrix" values="0 0 0 0 0 0 0 0 0 0 0 0 0 0 0 0 0 0 127 0" result="hardAlpha"/>
<feOffset dy="0.5"/>
<feGaussianBlur stdDeviation="0.5"/>
<feComposite in2="hardAlpha" operator="out"/>
<feColorMatrix type="matrix" values="0 0 0 0 0 0 0 0 0 0 0 0 0 0 0 0 0 0 0.25 0"/>
<feBlend mode="normal" in2="BackgroundImageFix" result="effect1_dropShadow_26_379"/>
<feBlend mode="normal" in="SourceGraphic" in2="effect1_dropShadow_26_379" result="shape"/>
</filter>
<linearGradient id="paint0_linear_26_379" x1="8" y1="0" x2="8" y2="16" gradientUnits="userSpaceOnUse">
<stop stop-color="#C00040"/>
<stop offset="1" stop-color="#8040A0"/>
</linearGradient>
<linearGradient id="paint1_linear_26_379" x1="8" y1="3" x2="8" y2="13" gradientUnits="userSpaceOnUse">
<stop stop-color="#FF6040"/>
<stop offset="1" stop-color="#C00040"/>
</linearGradient>
<linearGradient id="paint2_linear_26_379" x1="8" y1="2" x2="8" y2="9" gradientUnits="userSpaceOnUse">
<stop stop-color="white"/>
<stop offset="1" stop-color="#B0DDFF"/>
</linearGradient>
</defs>
</svg>
