<svg width="16" height="16" viewBox="0 0 16 16" fill="none" xmlns="http://www.w3.org/2000/svg">
<rect width="16" height="16" rx="4" fill="url(#paint0_linear_26_382)"/>
<rect x="3" y="4" width="10" height="10" rx="1" fill="url(#paint1_linear_26_382)"/>
<rect x="2" y="3" width="12" height="4" rx="1" fill="url(#paint2_linear_26_382)"/>
<circle cx="5" cy="9" r="1" fill="#0061E0" fill-opacity="0.25"/>
<circle cx="8" cy="9" r="1" fill="#0061E0" fill-opacity="0.25"/>
<circle cx="11" cy="9" r="1" fill="#0061E0" fill-opacity="0.25"/>
<circle cx="5" cy="12" r="1" fill="#0061E0" fill-opacity="0.25"/>
<circle cx="8" cy="12" r="1" fill="#0061E0" fill-opacity="0.25"/>
<rect x="4" y="2" width="1" height="3" rx="0.5" fill="#D9D9D9"/>
<rect x="4" y="2" width="1" height="3" rx="0.5" fill="url(#paint3_linear_26_382)"/>
<rect x="11" y="2" width="1" height="3" rx="0.5" fill="#D9D9D9"/>
<rect x="11" y="2" width="1" height="3" rx="0.5" fill="url(#paint4_linear_26_382)"/>
<defs>
<linearGradient id="paint0_linear_26_382" x1="8" y1="0" x2="8" y2="16" gradientUnits="userSpaceOnUse">
<stop stop-color="#FFC000"/>
<stop offset="1" stop-color="#FF6040"/>
</linearGradient>
<linearGradient id="paint1_linear_26_382" x1="8" y1="7" x2="8" y2="14" gradientUnits="userSpaceOnUse">
<stop stop-color="#B0DDFF"/>
<stop offset="1" stop-color="white"/>
</linearGradient>
<linearGradient id="paint2_linear_26_382" x1="8" y1="3" x2="8" y2="7" gradientUnits="userSpaceOnUse">
<stop stop-color="#FF6040"/>
<stop offset="1" stop-color="#C00040"/>
</linearGradient>
<linearGradient id="paint3_linear_26_382" x1="4.5" y1="2" x2="4.5" y2="5" gradientUnits="userSpaceOnUse">
<stop stop-color="#80A1A8"/>
<stop offset="1" stop-color="#4A3F3D"/>
</linearGradient>
<linearGradient id="paint4_linear_26_382" x1="11.5" y1="2" x2="11.5" y2="5" gradientUnits="userSpaceOnUse">
<stop stop-color="#80A1A8"/>
<stop offset="1" stop-color="#4A3F3D"/>
</linearGradient>
</defs>
</svg>
