<svg width="16" height="16" viewBox="0 0 16 16" fill="none" xmlns="http://www.w3.org/2000/svg">
<rect width="16" height="16" rx="4" fill="url(#paint0_linear_26_390)"/>
<path d="M1 4C1 2.34315 2.34315 1 4 1H12C13.6569 1 15 2.34315 15 4V7C15 7.55228 14.5523 8 14 8H10.2C8.98497 8 8 8.98497 8 10.2V14C8 14.5523 7.55228 15 7 15H4C2.34315 15 1 13.6569 1 12V4Z" fill="url(#paint1_linear_26_390)"/>
<rect x="9.5" y="10" width="4" height="1" rx="0.5" fill="white" fill-opacity="0.75"/>
<rect x="9.5" y="12" width="4" height="1" rx="0.5" fill="white" fill-opacity="0.75"/>
<path d="M3 4.5H6M4.5 3V6M10 4.5H13M3 10L6 13M6 10L3 13" stroke="#333333" stroke-linecap="round" stroke-linejoin="round"/>
<defs>
<linearGradient id="paint0_linear_26_390" x1="8" y1="-8.25295e-08" x2="8" y2="16" gradientUnits="userSpaceOnUse">
<stop stop-color="#00DDFF"/>
<stop offset="1" stop-color="#0061E0"/>
</linearGradient>
<linearGradient id="paint1_linear_26_390" x1="8" y1="1" x2="8" y2="15" gradientUnits="userSpaceOnUse">
<stop stop-color="white"/>
<stop offset="1" stop-color="#B0DDFF"/>
</linearGradient>
</defs>
</svg>
