<svg width="16" height="16" viewBox="0 0 16 16" fill="none" xmlns="http://www.w3.org/2000/svg">
<rect width="16" height="16" rx="4" fill="url(#paint0_linear_26_346)"/>
<path d="M2 5C2 4.11522 2.39141 3.23045 3.86687 2.34567C4.23602 2.12431 4.70529 2.20529 5.00965 2.50965L6.29289 3.79289C6.68341 4.18341 6.68296 4.81754 6.3433 5.25303C5.93992 5.77022 5.49997 6.45843 5.49997 7C5.49997 8 5.74997 8.75 6.49997 9.5C7.24997 10.25 8 10.5 9 10.5C9.54157 10.5 10.2298 10.0601 10.747 9.65669C11.1825 9.31703 11.8166 9.31658 12.2071 9.70711L13.4903 10.9903C13.7947 11.2947 13.8757 11.764 13.6543 12.1331C12.7696 13.6086 11.8848 14 11 14C10 14 7.49997 12.5 5.49997 10.5C3.49997 8.5 2 6 2 5Z" fill="url(#paint1_linear_26_346)"/>
<defs>
<linearGradient id="paint0_linear_26_346" x1="8" y1="0" x2="8" y2="16" gradientUnits="userSpaceOnUse">
<stop stop-color="#60FF80"/>
<stop offset="1" stop-color="#40A060"/>
</linearGradient>
<linearGradient id="paint1_linear_26_346" x1="8.15002" y1="2.15" x2="8.15002" y2="12.8587" gradientUnits="userSpaceOnUse">
<stop stop-color="white"/>
<stop offset="1" stop-color="#B0DDFF"/>
</linearGradient>
</defs>
</svg>
