<svg width="16" height="16" viewBox="0 0 16 16" fill="none" xmlns="http://www.w3.org/2000/svg">
<rect width="16" height="16" rx="4" fill="url(#paint0_linear_26_346)"/>
<g filter="url(#filter0_d_26_346)">
<path fill-rule="evenodd" clip-rule="evenodd" d="M2.5 3.5C2.5 2.94772 2.94772 2.5 3.5 2.5H6.5C7.05228 2.5 7.5 2.94772 7.5 3.5V5.5C7.5 6.05228 7.05228 6.5 6.5 6.5H5.0681C5.35921 9.38191 6.61809 10.6408 9.5 10.9319V9.5C9.5 8.94772 9.94772 8.5 10.5 8.5H12.5C13.0523 8.5 13.5 8.94772 13.5 9.5V12.5C13.5 13.0523 13.0523 13.5 12.5 13.5H10.5C10.4018 13.5 10.3069 13.4859 10.2173 13.4595C10.1472 13.472 10.0743 13.4766 9.99957 13.4723C5.1695 13.1953 2.80475 10.8305 2.52769 6.00043C2.5234 5.92568 2.52799 5.85281 2.54052 5.78269C2.51415 5.69305 2.5 5.59818 2.5 5.5V3.5Z" fill="url(#paint1_linear_26_346)"/>
</g>
<defs>
<filter id="filter0_d_26_346" x="1.5" y="2" width="13" height="13" filterUnits="userSpaceOnUse" color-interpolation-filters="sRGB">
<feFlood flood-opacity="0" result="BackgroundImageFix"/>
<feColorMatrix in="SourceAlpha" type="matrix" values="0 0 0 0 0 0 0 0 0 0 0 0 0 0 0 0 0 0 127 0" result="hardAlpha"/>
<feOffset dy="0.5"/>
<feGaussianBlur stdDeviation="0.5"/>
<feComposite in2="hardAlpha" operator="out"/>
<feColorMatrix type="matrix" values="0 0 0 0 0 0 0 0 0 0 0 0 0 0 0 0 0 0 0.25 0"/>
<feBlend mode="normal" in2="BackgroundImageFix" result="effect1_dropShadow_26_346"/>
<feBlend mode="normal" in="SourceGraphic" in2="effect1_dropShadow_26_346" result="shape"/>
</filter>
<linearGradient id="paint0_linear_26_346" x1="8" y1="0" x2="8" y2="16" gradientUnits="userSpaceOnUse">
<stop stop-color="#60FF80"/>
<stop offset="1" stop-color="#40A060"/>
</linearGradient>
<linearGradient id="paint1_linear_26_346" x1="8" y1="3" x2="8" y2="13" gradientUnits="userSpaceOnUse">
<stop stop-color="white"/>
<stop offset="1" stop-color="#B0DDFF"/>
</linearGradient>
</defs>
</svg>
