<svg width="16" height="16" viewBox="0 0 16 16" fill="none" xmlns="http://www.w3.org/2000/svg">
<g clip-path="url(#clip0_26_339)">
<rect width="16" height="16" rx="4" fill="url(#paint0_linear_26_339)"/>
<rect width="4" height="16" fill="url(#paint1_linear_26_339)" fill-opacity="0.5"/>
<path fill-rule="evenodd" clip-rule="evenodd" d="M10 2.5C8.34315 2.5 7 3.84315 7 5.5C7 7.15685 8.34315 8.5 10 8.5C11.6569 8.5 13 7.15685 13 5.5C13 3.84315 11.6569 2.5 10 2.5ZM9.625 9.25C7.76104 9.25 6.25 10.761 6.25 12.625C6.25 13.1082 6.64175 13.5 7.125 13.5H12.875C13.3582 13.5 13.75 13.1082 13.75 12.625C13.75 10.761 12.239 9.25 10.375 9.25H9.625Z" fill="url(#paint2_linear_26_339)"/>
<rect x="-1" y="3.5" width="4" height="1" rx="0.5" fill="url(#paint3_linear_26_339)"/>
<rect x="-1" y="7.5" width="4" height="1" rx="0.5" fill="url(#paint4_linear_26_339)"/>
<rect x="-1" y="11.5" width="4" height="1" rx="0.5" fill="url(#paint5_linear_26_339)"/>
</g>
<defs>
<linearGradient id="paint0_linear_26_339" x1="8" y1="0" x2="8" y2="16" gradientUnits="userSpaceOnUse">
<stop stop-color="#FFC000"/>
<stop offset="1" stop-color="#FF6040"/>
</linearGradient>
<linearGradient id="paint1_linear_26_339" x1="2" y1="0" x2="2" y2="16" gradientUnits="userSpaceOnUse">
<stop stop-color="#FF6040"/>
<stop offset="1" stop-color="#C00040"/>
</linearGradient>
<linearGradient id="paint2_linear_26_339" x1="10" y1="2.5" x2="10" y2="12.7431" gradientUnits="userSpaceOnUse">
<stop stop-color="#DEEBFF"/>
<stop offset="1" stop-color="white"/>
</linearGradient>
<linearGradient id="paint3_linear_26_339" x1="-1" y1="4" x2="3" y2="4" gradientUnits="userSpaceOnUse">
<stop stop-color="#80A1A8"/>
<stop offset="1" stop-color="#4A3F3D"/>
</linearGradient>
<linearGradient id="paint4_linear_26_339" x1="-1" y1="8" x2="3" y2="8" gradientUnits="userSpaceOnUse">
<stop stop-color="#80A1A8"/>
<stop offset="1" stop-color="#4A3F3D"/>
</linearGradient>
<linearGradient id="paint5_linear_26_339" x1="-1" y1="12" x2="3" y2="12" gradientUnits="userSpaceOnUse">
<stop stop-color="#80A1A8"/>
<stop offset="1" stop-color="#4A3F3D"/>
</linearGradient>
<clipPath id="clip0_26_339">
<rect width="16" height="16" rx="4" fill="white"/>
</clipPath>
</defs>
</svg>
