<svg width="16" height="16" viewBox="0 0 16 16" fill="none" xmlns="http://www.w3.org/2000/svg">
<g clip-path="url(#clip0_657_213)">
<rect width="16" height="16" rx="4" fill="url(#paint0_linear_657_213)"/>
<g filter="url(#filter0_di_657_213)">
<rect width="5" height="16" fill="url(#paint1_linear_657_213)" fill-opacity="0.5" shape-rendering="crispEdges"/>
</g>
<g filter="url(#filter1_i_657_213)">
<path fill-rule="evenodd" clip-rule="evenodd" d="M10.5 2.5C8.84315 2.5 7.5 3.84315 7.5 5.5C7.5 7.15685 8.84315 8.5 10.5 8.5C12.1569 8.5 13.5 7.15685 13.5 5.5C13.5 3.84315 12.1569 2.5 10.5 2.5ZM10.125 9.25C8.26104 9.25 6.75 10.761 6.75 12.625C6.75 13.1082 7.14175 13.5 7.625 13.5H13.375C13.8582 13.5 14.25 13.1082 14.25 12.625C14.25 10.761 12.739 9.25 10.875 9.25H10.125Z" fill="url(#paint2_linear_657_213)" fill-opacity="0.5"/>
</g>
<path fill-rule="evenodd" clip-rule="evenodd" d="M1.5 4C1.5 3.44772 1.94772 3 2.5 3C3.05228 3 3.5 3.44772 3.5 4C3.5 4.55228 3.05228 5 2.5 5C1.94772 5 1.5 4.55228 1.5 4ZM1.5 8C1.5 7.44772 1.94772 7 2.5 7C3.05228 7 3.5 7.44772 3.5 8C3.5 8.55229 3.05228 9 2.5 9C1.94772 9 1.5 8.55229 1.5 8ZM2.5 11C1.94772 11 1.5 11.4477 1.5 12C1.5 12.5523 1.94772 13 2.5 13C3.05228 13 3.5 12.5523 3.5 12C3.5 11.4477 3.05228 11 2.5 11Z" fill="#C00040"/>
<g filter="url(#filter2_d_657_213)">
<path d="M0 3.5H2.5C2.77614 3.5 3 3.72386 3 4C3 4.27614 2.77614 4.5 2.5 4.5H0V3.5Z" fill="url(#paint3_linear_657_213)"/>
</g>
<g filter="url(#filter3_d_657_213)">
<path d="M0 7.5H2.5C2.77614 7.5 3 7.72386 3 8C3 8.27614 2.77614 8.5 2.5 8.5H0V7.5Z" fill="url(#paint4_linear_657_213)"/>
</g>
<g filter="url(#filter4_d_657_213)">
<path d="M0 11.5H2.5C2.77614 11.5 3 11.7239 3 12C3 12.2761 2.77614 12.5 2.5 12.5H0V11.5Z" fill="url(#paint5_linear_657_213)"/>
</g>
</g>
<defs>
<filter id="filter0_di_657_213" x="-0.5" y="-1" width="7.5" height="18" filterUnits="userSpaceOnUse" color-interpolation-filters="sRGB">
<feFlood flood-opacity="0" result="BackgroundImageFix"/>
<feColorMatrix in="SourceAlpha" type="matrix" values="0 0 0 0 0 0 0 0 0 0 0 0 0 0 0 0 0 0 127 0" result="hardAlpha"/>
<feOffset dx="1"/>
<feGaussianBlur stdDeviation="0.5"/>
<feComposite in2="hardAlpha" operator="out"/>
<feColorMatrix type="matrix" values="0 0 0 0 1 0 0 0 0 1 0 0 0 0 1 0 0 0 0.05 0"/>
<feBlend mode="normal" in2="BackgroundImageFix" result="effect1_dropShadow_657_213"/>
<feBlend mode="normal" in="SourceGraphic" in2="effect1_dropShadow_657_213" result="shape"/>
<feColorMatrix in="SourceAlpha" type="matrix" values="0 0 0 0 0 0 0 0 0 0 0 0 0 0 0 0 0 0 127 0" result="hardAlpha"/>
<feOffset dx="-0.5"/>
<feGaussianBlur stdDeviation="0.5"/>
<feComposite in2="hardAlpha" operator="arithmetic" k2="-1" k3="1"/>
<feColorMatrix type="matrix" values="0 0 0 0 0 0 0 0 0 0 0 0 0 0 0 0 0 0 0.1 0"/>
<feBlend mode="normal" in2="shape" result="effect2_innerShadow_657_213"/>
</filter>
<filter id="filter1_i_657_213" x="6.75" y="2.5" width="7.5" height="11.5" filterUnits="userSpaceOnUse" color-interpolation-filters="sRGB">
<feFlood flood-opacity="0" result="BackgroundImageFix"/>
<feBlend mode="normal" in="SourceGraphic" in2="BackgroundImageFix" result="shape"/>
<feColorMatrix in="SourceAlpha" type="matrix" values="0 0 0 0 0 0 0 0 0 0 0 0 0 0 0 0 0 0 127 0" result="hardAlpha"/>
<feOffset dy="0.5"/>
<feGaussianBlur stdDeviation="0.5"/>
<feComposite in2="hardAlpha" operator="arithmetic" k2="-1" k3="1"/>
<feColorMatrix type="matrix" values="0 0 0 0 0 0 0 0 0 0 0 0 0 0 0 0 0 0 0.1 0"/>
<feBlend mode="normal" in2="shape" result="effect1_innerShadow_657_213"/>
</filter>
<filter id="filter2_d_657_213" x="-0.5" y="3.5" width="4" height="2" filterUnits="userSpaceOnUse" color-interpolation-filters="sRGB">
<feFlood flood-opacity="0" result="BackgroundImageFix"/>
<feColorMatrix in="SourceAlpha" type="matrix" values="0 0 0 0 0 0 0 0 0 0 0 0 0 0 0 0 0 0 127 0" result="hardAlpha"/>
<feOffset dy="0.5"/>
<feGaussianBlur stdDeviation="0.25"/>
<feComposite in2="hardAlpha" operator="out"/>
<feColorMatrix type="matrix" values="0 0 0 0 0 0 0 0 0 0 0 0 0 0 0 0 0 0 0.1 0"/>
<feBlend mode="normal" in2="BackgroundImageFix" result="effect1_dropShadow_657_213"/>
<feBlend mode="normal" in="SourceGraphic" in2="effect1_dropShadow_657_213" result="shape"/>
</filter>
<filter id="filter3_d_657_213" x="-0.5" y="7.5" width="4" height="2" filterUnits="userSpaceOnUse" color-interpolation-filters="sRGB">
<feFlood flood-opacity="0" result="BackgroundImageFix"/>
<feColorMatrix in="SourceAlpha" type="matrix" values="0 0 0 0 0 0 0 0 0 0 0 0 0 0 0 0 0 0 127 0" result="hardAlpha"/>
<feOffset dy="0.5"/>
<feGaussianBlur stdDeviation="0.25"/>
<feComposite in2="hardAlpha" operator="out"/>
<feColorMatrix type="matrix" values="0 0 0 0 0 0 0 0 0 0 0 0 0 0 0 0 0 0 0.1 0"/>
<feBlend mode="normal" in2="BackgroundImageFix" result="effect1_dropShadow_657_213"/>
<feBlend mode="normal" in="SourceGraphic" in2="effect1_dropShadow_657_213" result="shape"/>
</filter>
<filter id="filter4_d_657_213" x="-0.5" y="11.5" width="4" height="2" filterUnits="userSpaceOnUse" color-interpolation-filters="sRGB">
<feFlood flood-opacity="0" result="BackgroundImageFix"/>
<feColorMatrix in="SourceAlpha" type="matrix" values="0 0 0 0 0 0 0 0 0 0 0 0 0 0 0 0 0 0 127 0" result="hardAlpha"/>
<feOffset dy="0.5"/>
<feGaussianBlur stdDeviation="0.25"/>
<feComposite in2="hardAlpha" operator="out"/>
<feColorMatrix type="matrix" values="0 0 0 0 0 0 0 0 0 0 0 0 0 0 0 0 0 0 0.1 0"/>
<feBlend mode="normal" in2="BackgroundImageFix" result="effect1_dropShadow_657_213"/>
<feBlend mode="normal" in="SourceGraphic" in2="effect1_dropShadow_657_213" result="shape"/>
</filter>
<linearGradient id="paint0_linear_657_213" x1="8" y1="0" x2="8" y2="16" gradientUnits="userSpaceOnUse">
<stop stop-color="#FFC000"/>
<stop offset="1" stop-color="#FF6040"/>
</linearGradient>
<linearGradient id="paint1_linear_657_213" x1="2.5" y1="0" x2="2.5" y2="16" gradientUnits="userSpaceOnUse">
<stop stop-color="#FF6040"/>
<stop offset="1" stop-color="#C00040"/>
</linearGradient>
<linearGradient id="paint2_linear_657_213" x1="10.5" y1="2.5" x2="10.5" y2="13.5" gradientUnits="userSpaceOnUse">
<stop stop-color="#FF6040"/>
<stop offset="1" stop-color="#C00040"/>
</linearGradient>
<linearGradient id="paint3_linear_657_213" x1="1.11759e-08" y1="4" x2="3" y2="4" gradientUnits="userSpaceOnUse">
<stop stop-color="#80A1A8"/>
<stop offset="1" stop-color="#4A3F3D"/>
</linearGradient>
<linearGradient id="paint4_linear_657_213" x1="1.11759e-08" y1="8" x2="3" y2="8" gradientUnits="userSpaceOnUse">
<stop stop-color="#80A1A8"/>
<stop offset="1" stop-color="#4A3F3D"/>
</linearGradient>
<linearGradient id="paint5_linear_657_213" x1="1.11759e-08" y1="12" x2="3" y2="12" gradientUnits="userSpaceOnUse">
<stop stop-color="#80A1A8"/>
<stop offset="1" stop-color="#4A3F3D"/>
</linearGradient>
<clipPath id="clip0_657_213">
<rect width="16" height="16" rx="4" fill="white"/>
</clipPath>
</defs>
</svg>
