<svg width="16" height="16" viewBox="0 0 16 16" fill="none" xmlns="http://www.w3.org/2000/svg">
<rect width="16" height="16" rx="4" fill="url(#paint0_linear_411_121)"/>
<rect x="8" y="3" width="5" height="10" rx="0.5" fill="url(#paint1_linear_411_121)"/>
<path d="M3 3C3 2.44772 3.44772 2 4 2H11.5C11.7761 2 12 2.22386 12 2.5V13.5C12 13.7761 11.7761 14 11.5 14H4C3.44772 14 3 13.5523 3 13V3Z" fill="url(#paint2_linear_411_121)"/>
<path d="M5 4.5C5 4.22386 5.22386 4 5.5 4L9.5 4C9.77614 4 10 4.22386 10 4.5C10 4.77614 9.77614 5 9.5 5H5.5C5.22386 5 5 4.77614 5 4.5Z" fill="black" fill-opacity="0.1"/>
<path d="M6 11.5C6 11.2239 6.22386 11 6.5 11H8.5C8.77614 11 9 11.2239 9 11.5C9 11.7761 8.77614 12 8.5 12H6.5C6.22386 12 6 11.7761 6 11.5Z" fill="black" fill-opacity="0.1"/>
<path d="M9.35155 13.5297L7.73544 13.8529C7.38557 13.9229 7.07712 13.6144 7.14709 13.2646L7.47031 11.6484C7.48967 11.5517 7.53725 11.4628 7.60705 11.393L12.6464 6.35355C12.8417 6.15829 13.1583 6.15829 13.3536 6.35355L14.6464 7.64645C14.8417 7.84171 14.8417 8.15829 14.6464 8.35355L9.60705 13.393C9.53725 13.4628 9.44835 13.5103 9.35155 13.5297Z" fill="url(#paint3_linear_411_121)"/>
<path d="M12.6464 6.35355L8 11C7.81549 11.1845 7.94617 11.5 8.20711 11.5C8.36887 11.5 8.5 11.6311 8.5 11.7929V12C8.5 12.2761 8.72386 12.5 9 12.5H9.20711C9.36887 12.5 9.5 12.6311 9.5 12.7929C9.5 13.0538 9.81549 13.1845 10 13L14.6464 8.35355C14.8417 8.15829 14.8417 7.84171 14.6464 7.64645L13.3536 6.35355C13.1583 6.15829 12.8417 6.15829 12.6464 6.35355Z" fill="url(#paint4_linear_411_121)"/>
<defs>
<linearGradient id="paint0_linear_411_121" x1="8" y1="0" x2="8" y2="16" gradientUnits="userSpaceOnUse">
<stop stop-color="#80A1A8"/>
<stop offset="1" stop-color="#4A3F3D"/>
</linearGradient>
<linearGradient id="paint1_linear_411_121" x1="10.5" y1="3" x2="10.5" y2="13" gradientUnits="userSpaceOnUse">
<stop stop-color="white"/>
<stop offset="1" stop-color="#B0DDFF"/>
</linearGradient>
<linearGradient id="paint2_linear_411_121" x1="7.5" y1="2" x2="7.5" y2="14" gradientUnits="userSpaceOnUse">
<stop stop-color="#FF6040"/>
<stop offset="1" stop-color="#C00040"/>
</linearGradient>
<linearGradient id="paint3_linear_411_121" x1="10" y1="9" x2="12" y2="11" gradientUnits="userSpaceOnUse">
<stop stop-color="#FFBF9B"/>
<stop offset="1" stop-color="#E6834C"/>
</linearGradient>
<linearGradient id="paint4_linear_411_121" x1="10" y1="9" x2="12" y2="11" gradientUnits="userSpaceOnUse">
<stop stop-color="#FFC000"/>
<stop offset="1" stop-color="#FF6040"/>
</linearGradient>
</defs>
</svg>
