<svg width="16" height="16" viewBox="0 0 16 16" fill="none" xmlns="http://www.w3.org/2000/svg">
<rect width="16" height="16" rx="4" fill="url(#paint0_linear_411_121)"/>
<g filter="url(#filter0_d_411_121)">
<rect x="8" y="3" width="5" height="10" rx="1" fill="url(#paint1_linear_411_121)"/>
</g>
<g filter="url(#filter1_d_411_121)">
<rect x="3" y="2" width="9" height="12" rx="1" fill="url(#paint2_linear_411_121)"/>
</g>
<path d="M5 4.5C5 4.22386 5.22386 4 5.5 4L9.5 4C9.77614 4 10 4.22386 10 4.5C10 4.77614 9.77614 5 9.5 5H5.5C5.22386 5 5 4.77614 5 4.5Z" fill="url(#paint3_linear_411_121)"/>
<path d="M6 11.5C6 11.2239 6.22386 11 6.5 11H8.5C8.77614 11 9 11.2239 9 11.5C9 11.7761 8.77614 12 8.5 12H6.5C6.22386 12 6 11.7761 6 11.5Z" fill="url(#paint4_linear_411_121)"/>
<g filter="url(#filter2_d_411_121)">
<path d="M8.79289 14H7.5C7.22386 14 7 13.7761 7 13.5V12.2071C7 12.0745 7.05268 11.9473 7.14645 11.8536L12.6464 6.35355C12.8417 6.15829 13.1583 6.15829 13.3536 6.35355L14.6464 7.64645C14.8417 7.84171 14.8417 8.15829 14.6464 8.35355L9.14645 13.8536C9.05268 13.9473 8.9255 14 8.79289 14Z" fill="url(#paint5_linear_411_121)"/>
</g>
<path d="M12.6464 6.35355L7.5 11.5C7.31549 11.6845 7.44617 12 7.70711 12C7.86887 12 8 12.1311 8 12.2929V12.5C8 12.7761 8.22386 13 8.5 13H8.70711C8.86887 13 9 13.1311 9 13.2929C9 13.5538 9.31549 13.6845 9.5 13.5L14.6464 8.35355C14.8417 8.15829 14.8417 7.84171 14.6464 7.64645L13.3536 6.35355C13.1583 6.15829 12.8417 6.15829 12.6464 6.35355Z" fill="url(#paint6_linear_411_121)"/>
<defs>
<filter id="filter0_d_411_121" x="7" y="2.5" width="7" height="12" filterUnits="userSpaceOnUse" color-interpolation-filters="sRGB">
<feFlood flood-opacity="0" result="BackgroundImageFix"/>
<feColorMatrix in="SourceAlpha" type="matrix" values="0 0 0 0 0 0 0 0 0 0 0 0 0 0 0 0 0 0 127 0" result="hardAlpha"/>
<feOffset dy="0.5"/>
<feGaussianBlur stdDeviation="0.5"/>
<feComposite in2="hardAlpha" operator="out"/>
<feColorMatrix type="matrix" values="0 0 0 0 0 0 0 0 0 0 0 0 0 0 0 0 0 0 0.25 0"/>
<feBlend mode="normal" in2="BackgroundImageFix" result="effect1_dropShadow_411_121"/>
<feBlend mode="normal" in="SourceGraphic" in2="effect1_dropShadow_411_121" result="shape"/>
</filter>
<filter id="filter1_d_411_121" x="2" y="1.5" width="11" height="14" filterUnits="userSpaceOnUse" color-interpolation-filters="sRGB">
<feFlood flood-opacity="0" result="BackgroundImageFix"/>
<feColorMatrix in="SourceAlpha" type="matrix" values="0 0 0 0 0 0 0 0 0 0 0 0 0 0 0 0 0 0 127 0" result="hardAlpha"/>
<feOffset dy="0.5"/>
<feGaussianBlur stdDeviation="0.5"/>
<feComposite in2="hardAlpha" operator="out"/>
<feColorMatrix type="matrix" values="0 0 0 0 0 0 0 0 0 0 0 0 0 0 0 0 0 0 0.25 0"/>
<feBlend mode="normal" in2="BackgroundImageFix" result="effect1_dropShadow_411_121"/>
<feBlend mode="normal" in="SourceGraphic" in2="effect1_dropShadow_411_121" result="shape"/>
</filter>
<filter id="filter2_d_411_121" x="6" y="5.70711" width="9.79291" height="9.79289" filterUnits="userSpaceOnUse" color-interpolation-filters="sRGB">
<feFlood flood-opacity="0" result="BackgroundImageFix"/>
<feColorMatrix in="SourceAlpha" type="matrix" values="0 0 0 0 0 0 0 0 0 0 0 0 0 0 0 0 0 0 127 0" result="hardAlpha"/>
<feOffset dy="0.5"/>
<feGaussianBlur stdDeviation="0.5"/>
<feComposite in2="hardAlpha" operator="out"/>
<feColorMatrix type="matrix" values="0 0 0 0 0 0 0 0 0 0 0 0 0 0 0 0 0 0 0.25 0"/>
<feBlend mode="normal" in2="BackgroundImageFix" result="effect1_dropShadow_411_121"/>
<feBlend mode="normal" in="SourceGraphic" in2="effect1_dropShadow_411_121" result="shape"/>
</filter>
<linearGradient id="paint0_linear_411_121" x1="8" y1="0" x2="8" y2="16" gradientUnits="userSpaceOnUse">
<stop stop-color="#80A1A8"/>
<stop offset="1" stop-color="#4A3F3D"/>
</linearGradient>
<linearGradient id="paint1_linear_411_121" x1="10.5" y1="3" x2="10.5" y2="13" gradientUnits="userSpaceOnUse">
<stop stop-color="white"/>
<stop offset="1" stop-color="#B0DDFF"/>
</linearGradient>
<linearGradient id="paint2_linear_411_121" x1="7.5" y1="2" x2="7.5" y2="14" gradientUnits="userSpaceOnUse">
<stop stop-color="#FF6040"/>
<stop offset="1" stop-color="#C00040"/>
</linearGradient>
<linearGradient id="paint3_linear_411_121" x1="7.5" y1="4" x2="7.5" y2="5" gradientUnits="userSpaceOnUse">
<stop stop-opacity="0.25"/>
<stop offset="1" stop-opacity="0.1"/>
</linearGradient>
<linearGradient id="paint4_linear_411_121" x1="7.5" y1="11" x2="7.5" y2="12" gradientUnits="userSpaceOnUse">
<stop stop-opacity="0.25"/>
<stop offset="1" stop-opacity="0.1"/>
</linearGradient>
<linearGradient id="paint5_linear_411_121" x1="10" y1="9" x2="12" y2="11" gradientUnits="userSpaceOnUse">
<stop stop-color="#FFBF9B"/>
<stop offset="1" stop-color="#E6834C"/>
</linearGradient>
<linearGradient id="paint6_linear_411_121" x1="10" y1="9" x2="12" y2="11" gradientUnits="userSpaceOnUse">
<stop stop-color="#FFC000"/>
<stop offset="1" stop-color="#FF6040"/>
</linearGradient>
</defs>
</svg>
