<svg width="16" height="16" viewBox="0 0 16 16" fill="none" xmlns="http://www.w3.org/2000/svg">
<rect width="16" height="16" rx="4" fill="url(#paint0_linear_26_342)"/>
<rect x="3" y="3.5" width="2" height="3" rx="1" fill="url(#paint1_linear_26_342)"/>
<path d="M14 11.5V5.5C14 4.94772 13.5523 4.5 13 4.5H11.4142C11.149 4.5 10.8946 4.39464 10.7071 4.20711L10.2929 3.79289C10.1054 3.60536 9.851 3.5 9.58579 3.5H6.41421C6.149 3.5 5.89464 3.60536 5.70711 3.79289L5.29289 4.20711C5.10536 4.39464 4.851 4.5 4.58579 4.5H3C2.44772 4.5 2 4.94772 2 5.5V11.5C2 12.0523 2.44772 12.5 3 12.5H13C13.5523 12.5 14 12.0523 14 11.5Z" fill="url(#paint2_linear_26_342)"/>
<circle cx="8" cy="8.5" r="3" fill="url(#paint3_linear_26_342)"/>
<circle cx="8" cy="8.5" r="2.25" fill="url(#paint4_linear_26_342)"/>
<rect x="12" y="5.5" width="1" height="1" rx="0.5" fill="#FFC000"/>
<defs>
<linearGradient id="paint0_linear_26_342" x1="8" y1="0" x2="8" y2="16" gradientUnits="userSpaceOnUse">
<stop stop-color="#80A1A8"/>
<stop offset="1" stop-color="#4A3F3D"/>
</linearGradient>
<linearGradient id="paint1_linear_26_342" x1="4" y1="3.5" x2="4" y2="6.5" gradientUnits="userSpaceOnUse">
<stop stop-color="#00DDFF"/>
<stop offset="0.545833" stop-color="#0061E0"/>
</linearGradient>
<linearGradient id="paint2_linear_26_342" x1="8" y1="4.5" x2="8" y2="12.5" gradientUnits="userSpaceOnUse">
<stop stop-color="#606060"/>
<stop offset="1" stop-color="#201918"/>
</linearGradient>
<linearGradient id="paint3_linear_26_342" x1="8" y1="5.5" x2="8" y2="11.5" gradientUnits="userSpaceOnUse">
<stop stop-color="#8F8C8C"/>
<stop offset="1" stop-color="#CBE2E7"/>
</linearGradient>
<linearGradient id="paint4_linear_26_342" x1="8" y1="6.25" x2="8" y2="10.75" gradientUnits="userSpaceOnUse">
<stop stop-color="#0061E0"/>
<stop offset="1" stop-color="#A826E9"/>
</linearGradient>
</defs>
</svg>
