<svg width="16" height="16" viewBox="0 0 16 16" fill="none" xmlns="http://www.w3.org/2000/svg">
<rect width="16" height="16" rx="4" fill="url(#paint0_linear_26_329)"/>
<g filter="url(#filter0_d_26_329)">
<path d="M13.5145 4.7087L9.5145 2.3087C9.19781 2.11869 8.80219 2.11869 8.4855 2.3087L4.4855 4.7087C4.1843 4.88942 4 5.21493 4 5.56619V10.4338C4 10.7851 4.1843 11.1106 4.4855 11.2913L8.4855 13.6913C8.80219 13.8813 9.19781 13.8813 9.5145 13.6913L13.5145 11.2913C13.8157 11.1106 14 10.7851 14 10.4338V5.56619C14 5.21493 13.8157 4.88942 13.5145 4.7087Z" fill="url(#paint1_linear_26_329)"/>
</g>
<g filter="url(#filter1_d_26_329)">
<path d="M11.5145 4.7087L7.5145 2.3087C7.19781 2.11869 6.80219 2.11869 6.4855 2.3087L2.4855 4.7087C2.1843 4.88942 2 5.21493 2 5.56619V10.4338C2 10.7851 2.1843 11.1106 2.4855 11.2913L6.4855 13.6913C6.80219 13.8813 7.19781 13.8813 7.5145 13.6913L11.5145 11.2913C11.8157 11.1106 12 10.7851 12 10.4338V5.56619C12 5.21493 11.8157 4.88942 11.5145 4.7087Z" fill="url(#paint2_linear_26_329)"/>
</g>
<g filter="url(#filter2_d_26_329)">
<circle cx="7" cy="8" r="2" fill="url(#paint3_linear_26_329)"/>
</g>
<defs>
<filter id="filter0_d_26_329" x="3" y="1.66619" width="12" height="13.6676" filterUnits="userSpaceOnUse" color-interpolation-filters="sRGB">
<feFlood flood-opacity="0" result="BackgroundImageFix"/>
<feColorMatrix in="SourceAlpha" type="matrix" values="0 0 0 0 0 0 0 0 0 0 0 0 0 0 0 0 0 0 127 0" result="hardAlpha"/>
<feOffset dy="0.5"/>
<feGaussianBlur stdDeviation="0.5"/>
<feComposite in2="hardAlpha" operator="out"/>
<feColorMatrix type="matrix" values="0 0 0 0 0 0 0 0 0 0 0 0 0 0 0 0 0 0 0.25 0"/>
<feBlend mode="normal" in2="BackgroundImageFix" result="effect1_dropShadow_26_329"/>
<feBlend mode="normal" in="SourceGraphic" in2="effect1_dropShadow_26_329" result="shape"/>
</filter>
<filter id="filter1_d_26_329" x="1" y="1.66619" width="12" height="13.6676" filterUnits="userSpaceOnUse" color-interpolation-filters="sRGB">
<feFlood flood-opacity="0" result="BackgroundImageFix"/>
<feColorMatrix in="SourceAlpha" type="matrix" values="0 0 0 0 0 0 0 0 0 0 0 0 0 0 0 0 0 0 127 0" result="hardAlpha"/>
<feOffset dy="0.5"/>
<feGaussianBlur stdDeviation="0.5"/>
<feComposite in2="hardAlpha" operator="out"/>
<feColorMatrix type="matrix" values="0 0 0 0 0 0 0 0 0 0 0 0 0 0 0 0 0 0 0.25 0"/>
<feBlend mode="normal" in2="BackgroundImageFix" result="effect1_dropShadow_26_329"/>
<feBlend mode="normal" in="SourceGraphic" in2="effect1_dropShadow_26_329" result="shape"/>
</filter>
<filter id="filter2_d_26_329" x="4" y="5.5" width="6" height="6" filterUnits="userSpaceOnUse" color-interpolation-filters="sRGB">
<feFlood flood-opacity="0" result="BackgroundImageFix"/>
<feColorMatrix in="SourceAlpha" type="matrix" values="0 0 0 0 0 0 0 0 0 0 0 0 0 0 0 0 0 0 127 0" result="hardAlpha"/>
<feOffset dy="0.5"/>
<feGaussianBlur stdDeviation="0.5"/>
<feComposite in2="hardAlpha" operator="out"/>
<feColorMatrix type="matrix" values="0 0 0 0 0 0 0 0 0 0 0 0 0 0 0 0 0 0 0.25 0"/>
<feBlend mode="normal" in2="BackgroundImageFix" result="effect1_dropShadow_26_329"/>
<feBlend mode="normal" in="SourceGraphic" in2="effect1_dropShadow_26_329" result="shape"/>
</filter>
<linearGradient id="paint0_linear_26_329" x1="8" y1="0" x2="8" y2="16" gradientUnits="userSpaceOnUse">
<stop stop-color="#80A1A8"/>
<stop offset="1" stop-color="#4A3F3D"/>
</linearGradient>
<linearGradient id="paint1_linear_26_329" x1="9" y1="2" x2="9" y2="14" gradientUnits="userSpaceOnUse">
<stop stop-color="white"/>
<stop offset="1" stop-color="#B0DDFF"/>
</linearGradient>
<linearGradient id="paint2_linear_26_329" x1="7" y1="2" x2="7" y2="14" gradientUnits="userSpaceOnUse">
<stop stop-color="#BACEE3"/>
<stop offset="1" stop-color="#6E6859"/>
</linearGradient>
<linearGradient id="paint3_linear_26_329" x1="7" y1="6" x2="7" y2="10" gradientUnits="userSpaceOnUse">
<stop stop-color="#00A0E8"/>
<stop offset="1" stop-color="#0061E0"/>
</linearGradient>
</defs>
</svg>
