<svg width="16" height="16" viewBox="0 0 16 16" fill="none" xmlns="http://www.w3.org/2000/svg">
<g clip-path="url(#clip0_26_329)">
<rect width="16" height="16" rx="4" fill="url(#paint0_linear_26_329)"/>
<g clip-path="url(#clip1_26_329)">
<path d="M13.7914 7.60391L13.039 7.48203C12.9383 7.46562 12.8633 7.38594 12.8492 7.28516C12.8351 7.19375 12.8211 7.1 12.8 7.01094C12.7789 6.9125 12.8258 6.81172 12.9125 6.7625L13.5781 6.39219C13.6836 6.33828 13.7305 6.21641 13.6906 6.10625L13.5758 5.78984C13.5359 5.67969 13.4187 5.61641 13.3039 5.64453L12.5562 5.78984C12.4555 5.80859 12.357 5.76172 12.3078 5.67031C12.2656 5.59062 12.2187 5.50859 12.1695 5.42656C12.1156 5.33984 12.125 5.22969 12.1906 5.15234L12.6898 4.57812C12.7695 4.49375 12.7742 4.36016 12.6992 4.27109L12.4836 4.01094C12.4086 3.91953 12.2773 3.90078 12.1812 3.96641L11.5273 4.36016C11.4406 4.41172 11.3305 4.4 11.2555 4.33437C11.1851 4.27344 11.1148 4.2125 11.0422 4.15391C10.9625 4.09062 10.9344 3.98516 10.9695 3.89141L11.2414 3.17656C11.2883 3.06875 11.2484 2.94219 11.1476 2.88359L10.8523 2.7125C10.7515 2.65391 10.6226 2.68203 10.5523 2.77578L10.0719 3.38281C10.0156 3.46016 9.91483 3.49062 9.82577 3.45547C9.82577 3.45547 9.66405 3.38984 9.54217 3.34766C9.44608 3.31484 9.3828 3.22578 9.38514 3.125L9.39686 2.36094C9.40389 2.24375 9.32186 2.13828 9.20702 2.11719L8.87186 2.05859C8.75702 2.0375 8.64452 2.10781 8.60936 2.22031L8.36092 2.94219C8.32811 3.03828 8.2367 3.10156 8.13592 3.09922H7.85233C7.75155 3.10156 7.66014 3.03828 7.62733 2.94219L7.38123 2.22266C7.34608 2.11016 7.23358 2.03984 7.11873 2.06094L6.78358 2.11953C6.66873 2.14062 6.5867 2.24609 6.59373 2.36328L6.60545 3.12734C6.6078 3.22812 6.54217 3.31719 6.44608 3.35C6.38045 3.37578 6.23514 3.43203 6.16717 3.45781C6.08748 3.48594 5.99139 3.4625 5.91405 3.37344L5.43827 2.7875C5.36795 2.69375 5.23905 2.66797 5.13827 2.72422L4.84295 2.89062C4.74217 2.94922 4.69998 3.07344 4.74686 3.18125L5.01873 3.89609C5.05389 3.98984 5.02577 4.09531 4.94608 4.15859C4.87342 4.21719 4.80077 4.27812 4.7328 4.33906C4.6578 4.40469 4.54764 4.41641 4.46092 4.36484L3.81639 3.96641C3.71795 3.90312 3.58905 3.92187 3.51405 4.01094L3.29842 4.27109C3.22342 4.36016 3.22811 4.49141 3.3078 4.57812L3.80702 5.15234C3.87264 5.22969 3.88202 5.33984 3.82811 5.42656C3.77889 5.50391 3.73202 5.58359 3.68983 5.67031C3.64061 5.75937 3.54217 5.80625 3.44139 5.78984L2.69373 5.64453C2.57889 5.61641 2.46405 5.67969 2.42186 5.78984L2.30702 6.10625C2.26717 6.21641 2.31405 6.33828 2.41952 6.39219L3.08514 6.7625C3.1742 6.81172 3.21873 6.9125 3.19764 7.01094C3.18123 7.10234 3.16248 7.19375 3.14842 7.28516C3.13436 7.38594 3.05702 7.46328 2.95858 7.48203L2.20389 7.60156C2.08905 7.61562 1.99998 7.71406 1.99998 7.82891V8.16641C1.99764 8.28359 2.0867 8.38437 2.20389 8.39375L2.95623 8.51562C3.05702 8.53203 3.13202 8.61172 3.14608 8.7125C3.16014 8.80391 3.1742 8.89766 3.1953 8.98672C3.21639 9.08516 3.16952 9.18594 3.0828 9.23516L2.41717 9.60547C2.3117 9.65937 2.26483 9.78125 2.30467 9.89141L2.41952 10.2078C2.45936 10.318 2.57655 10.3812 2.69139 10.3531L3.43905 10.2078C3.53983 10.1891 3.63827 10.2359 3.68748 10.3273C3.72967 10.407 3.77655 10.4891 3.82577 10.5711C3.87967 10.6578 3.8703 10.768 3.80467 10.8453L3.30545 11.4219C3.22577 11.5062 3.22108 11.6375 3.29608 11.7289L3.5117 11.9891C3.5867 12.0805 3.71795 12.0992 3.81405 12.0336L4.46795 11.6398C4.55467 11.5883 4.66483 11.6 4.73983 11.6656C4.81014 11.7266 4.88045 11.7875 4.95311 11.8461C5.0328 11.9094 5.06092 12.0148 5.02577 12.1086L4.75389 12.8234C4.70702 12.9312 4.74686 13.0555 4.84998 13.1164L5.1453 13.2875C5.24608 13.3461 5.37498 13.318 5.4453 13.2242L5.93045 12.6289C5.99139 12.5539 6.08983 12.5211 6.16717 12.5539C6.26561 12.5937 6.33123 12.6172 6.45311 12.657C6.5492 12.6875 6.61248 12.7789 6.61248 12.8797L6.60077 13.6437C6.59373 13.7609 6.67577 13.8664 6.79061 13.8875L7.12577 13.9461C7.24061 13.9672 7.35311 13.8969 7.38827 13.7844L7.6367 13.0625C7.66952 12.9664 7.76092 12.9031 7.8617 12.9055H8.1453C8.24608 12.9031 8.33748 12.9664 8.3703 13.0625L8.61873 13.7844C8.65389 13.8969 8.76639 13.9672 8.88123 13.9461L9.21639 13.8875C9.33123 13.8664 9.41327 13.7609 9.40623 13.6437L9.39452 12.8797C9.39217 12.7789 9.4578 12.6898 9.55389 12.657C9.67576 12.6172 9.75545 12.5844 9.83045 12.5562C9.90545 12.5281 9.99686 12.5281 10.0695 12.6172L10.5594 13.2219C10.6297 13.3156 10.7586 13.3437 10.8594 13.2852L11.1547 13.1141C11.2578 13.0555 11.2976 12.9289 11.2508 12.8211L10.9789 12.1062C10.9437 12.0125 10.9719 11.907 11.0515 11.8437C11.1242 11.7852 11.1969 11.7266 11.2648 11.6656C11.3398 11.6 11.45 11.5883 11.5367 11.6398L12.1883 12.0336C12.2867 12.0969 12.4156 12.0781 12.4906 11.9891L12.7062 11.7289C12.7812 11.6398 12.7765 11.5086 12.6969 11.4219L12.1953 10.8453C12.1297 10.768 12.1203 10.6578 12.1742 10.5711C12.2234 10.4937 12.2703 10.4117 12.3125 10.3273C12.3617 10.2383 12.4601 10.1914 12.5609 10.2078L13.3086 10.3531C13.4234 10.3812 13.5383 10.318 13.5805 10.2078L13.6953 9.89141C13.7351 9.78125 13.6883 9.65937 13.5828 9.60547L12.9172 9.23516C12.8281 9.18594 12.7836 9.08516 12.8047 8.98672C12.8211 8.89531 12.8398 8.80391 12.8539 8.7125C12.868 8.61172 12.9453 8.53437 13.0437 8.51562L13.7961 8.39375C13.9109 8.37969 14 8.28125 14 8.16641V7.82891C13.993 7.71172 13.9039 7.61797 13.7914 7.60391ZM6.80702 4.02969C6.84217 4.01094 6.87967 3.99453 6.91717 3.98516C7.27108 3.89141 7.63436 3.84453 7.99998 3.84687C9.89608 3.84687 11.5508 5.12891 12.0219 6.96641C12.0828 7.21484 11.9328 7.46328 11.6867 7.52656C11.6492 7.53594 11.6117 7.54062 11.5742 7.54062H8.5367C8.3703 7.54062 8.21795 7.45156 8.13592 7.30625L6.63358 4.66016C6.50702 4.4375 6.58436 4.15625 6.80702 4.02969ZM5.8203 10.8734C5.69373 11.0937 5.41014 11.1711 5.18983 11.0445C5.15467 11.0234 5.12186 11 5.09373 10.9719C4.29452 10.1867 3.84452 9.11797 3.84686 8C3.84686 6.87734 4.2992 5.79922 5.10545 5.01641C5.28592 4.83594 5.57889 4.83828 5.75936 5.01875C5.78748 5.04687 5.81327 5.07969 5.83202 5.11484L7.33905 7.76797C7.42108 7.91094 7.42108 8.08437 7.33905 8.225L5.8203 10.8734ZM12.0219 9.03594C11.5508 10.8734 9.89608 12.1555 7.99998 12.1531C7.62733 12.1531 7.25702 12.1062 6.89842 12.0102C6.65233 11.9445 6.50467 11.6914 6.5703 11.4453C6.57967 11.4055 6.59608 11.368 6.61717 11.3328L8.13358 8.69141C8.21561 8.54844 8.36795 8.45937 8.53436 8.46172H11.5742C11.8297 8.46172 12.0359 8.66797 12.0359 8.92344C12.0359 8.96094 12.0312 8.99844 12.0219 9.03594Z" fill="url(#paint1_linear_26_329)"/>
</g>
<g clip-path="url(#clip2_26_329)">
<path d="M21.7914 15.6039L21.039 15.482C20.9383 15.4656 20.8633 15.3859 20.8492 15.2852C20.8351 15.1937 20.8211 15.1 20.8 15.0109C20.7789 14.9125 20.8258 14.8117 20.9125 14.7625L21.5781 14.3922C21.6836 14.3383 21.7305 14.2164 21.6906 14.1062L21.5758 13.7898C21.5359 13.6797 21.4187 13.6164 21.3039 13.6445L20.5562 13.7898C20.4555 13.8086 20.357 13.7617 20.3078 13.6703C20.2656 13.5906 20.2187 13.5086 20.1695 13.4266C20.1156 13.3398 20.125 13.2297 20.1906 13.1523L20.6898 12.5781C20.7695 12.4937 20.7742 12.3602 20.6992 12.2711L20.4836 12.0109C20.4086 11.9195 20.2773 11.9008 20.1812 11.9664L19.5273 12.3602C19.4406 12.4117 19.3305 12.4 19.2555 12.3344C19.1851 12.2734 19.1148 12.2125 19.0422 12.1539C18.9625 12.0906 18.9344 11.9852 18.9695 11.8914L19.2414 11.1766C19.2883 11.0687 19.2484 10.9422 19.1476 10.8836L18.8523 10.7125C18.7515 10.6539 18.6226 10.682 18.5523 10.7758L18.0719 11.3828C18.0156 11.4602 17.9148 11.4906 17.8258 11.4555C17.8258 11.4555 17.664 11.3898 17.5422 11.3477C17.4461 11.3148 17.3828 11.2258 17.3851 11.125L17.3969 10.3609C17.4039 10.2437 17.3219 10.1383 17.207 10.1172L16.8719 10.0586C16.757 10.0375 16.6445 10.1078 16.6094 10.2203L16.3609 10.9422C16.3281 11.0383 16.2367 11.1016 16.1359 11.0992H15.8523C15.7515 11.1016 15.6601 11.0383 15.6273 10.9422L15.3812 10.2227C15.3461 10.1102 15.2336 10.0398 15.1187 10.0609L14.7836 10.1195C14.6687 10.1406 14.5867 10.2461 14.5937 10.3633L14.6055 11.1273C14.6078 11.2281 14.5422 11.3172 14.4461 11.35C14.3805 11.3758 14.2351 11.432 14.1672 11.4578C14.0875 11.4859 13.9914 11.4625 13.914 11.3734L13.4383 10.7875C13.368 10.6937 13.239 10.668 13.1383 10.7242L12.843 10.8906C12.7422 10.9492 12.7 11.0734 12.7469 11.1812L13.0187 11.8961C13.0539 11.9898 13.0258 12.0953 12.9461 12.1586C12.8734 12.2172 12.8008 12.2781 12.7328 12.3391C12.6578 12.4047 12.5476 12.4164 12.4609 12.3648L11.8164 11.9664C11.718 11.9031 11.589 11.9219 11.514 12.0109L11.2984 12.2711C11.2234 12.3602 11.2281 12.4914 11.3078 12.5781L11.807 13.1523C11.8726 13.2297 11.882 13.3398 11.8281 13.4266C11.7789 13.5039 11.732 13.5836 11.6898 13.6703C11.6406 13.7594 11.5422 13.8062 11.4414 13.7898L10.6937 13.6445C10.5789 13.6164 10.464 13.6797 10.4219 13.7898L10.307 14.1062C10.2672 14.2164 10.314 14.3383 10.4195 14.3922L11.0851 14.7625C11.1742 14.8117 11.2187 14.9125 11.1976 15.0109C11.1812 15.1023 11.1625 15.1937 11.1484 15.2852C11.1344 15.3859 11.057 15.4633 10.9586 15.482L10.2039 15.6016C10.089 15.6156 9.99998 15.7141 9.99998 15.8289V16.1664C9.99764 16.2836 10.0867 16.3844 10.2039 16.3937L10.9562 16.5156C11.057 16.532 11.132 16.6117 11.1461 16.7125C11.1601 16.8039 11.1742 16.8977 11.1953 16.9867C11.2164 17.0852 11.1695 17.1859 11.0828 17.2352L10.4172 17.6055C10.3117 17.6594 10.2648 17.7812 10.3047 17.8914L10.4195 18.2078C10.4594 18.318 10.5765 18.3812 10.6914 18.3531L11.439 18.2078C11.5398 18.1891 11.6383 18.2359 11.6875 18.3273C11.7297 18.407 11.7765 18.4891 11.8258 18.5711C11.8797 18.6578 11.8703 18.768 11.8047 18.8453L11.3055 19.4219C11.2258 19.5062 11.2211 19.6375 11.2961 19.7289L11.5117 19.9891C11.5867 20.0805 11.718 20.0992 11.814 20.0336L12.468 19.6398C12.5547 19.5883 12.6648 19.6 12.7398 19.6656C12.8101 19.7266 12.8805 19.7875 12.9531 19.8461C13.0328 19.9094 13.0609 20.0148 13.0258 20.1086L12.7539 20.8234C12.707 20.9312 12.7469 21.0555 12.85 21.1164L13.1453 21.2875C13.2461 21.3461 13.375 21.318 13.4453 21.2242L13.9305 20.6289C13.9914 20.5539 14.0898 20.5211 14.1672 20.5539C14.2656 20.5937 14.3312 20.6172 14.4531 20.657C14.5492 20.6875 14.6125 20.7789 14.6125 20.8797L14.6008 21.6437C14.5937 21.7609 14.6758 21.8664 14.7906 21.8875L15.1258 21.9461C15.2406 21.9672 15.3531 21.8969 15.3883 21.7844L15.6367 21.0625C15.6695 20.9664 15.7609 20.9031 15.8617 20.9055H16.1453C16.2461 20.9031 16.3375 20.9664 16.3703 21.0625L16.6187 21.7844C16.6539 21.8969 16.7664 21.9672 16.8812 21.9461L17.2164 21.8875C17.3312 21.8664 17.4133 21.7609 17.4062 21.6437L17.3945 20.8797C17.3922 20.7789 17.4578 20.6898 17.5539 20.657C17.6758 20.6172 17.7555 20.5844 17.8305 20.5562C17.9055 20.5281 17.9969 20.5281 18.0695 20.6172L18.5594 21.2219C18.6297 21.3156 18.7586 21.3437 18.8594 21.2852L19.1547 21.1141C19.2578 21.0555 19.2976 20.9289 19.2508 20.8211L18.9789 20.1062C18.9437 20.0125 18.9719 19.907 19.0515 19.8437C19.1242 19.7852 19.1969 19.7266 19.2648 19.6656C19.3398 19.6 19.45 19.5883 19.5367 19.6398L20.1883 20.0336C20.2867 20.0969 20.4156 20.0781 20.4906 19.9891L20.7062 19.7289C20.7812 19.6398 20.7765 19.5086 20.6969 19.4219L20.1953 18.8453C20.1297 18.768 20.1203 18.6578 20.1742 18.5711C20.2234 18.4937 20.2703 18.4117 20.3125 18.3273C20.3617 18.2383 20.4601 18.1914 20.5609 18.2078L21.3086 18.3531C21.4234 18.3812 21.5383 18.318 21.5805 18.2078L21.6953 17.8914C21.7351 17.7812 21.6883 17.6594 21.5828 17.6055L20.9172 17.2352C20.8281 17.1859 20.7836 17.0852 20.8047 16.9867C20.8211 16.8953 20.8398 16.8039 20.8539 16.7125C20.868 16.6117 20.9453 16.5344 21.0437 16.5156L21.7961 16.3937C21.9109 16.3797 22 16.2812 22 16.1664V15.8289C21.993 15.7117 21.9039 15.618 21.7914 15.6039ZM14.807 12.0297C14.8422 12.0109 14.8797 11.9945 14.9172 11.9852C15.2711 11.8914 15.6344 11.8445 16 11.8469C17.8961 11.8469 19.5508 13.1289 20.0219 14.9664C20.0828 15.2148 19.9328 15.4633 19.6867 15.5266C19.6492 15.5359 19.6117 15.5406 19.5742 15.5406H16.5367C16.3703 15.5406 16.218 15.4516 16.1359 15.3062L14.6336 12.6602C14.507 12.4375 14.5844 12.1562 14.807 12.0297ZM13.8203 18.8734C13.6937 19.0937 13.4101 19.1711 13.1898 19.0445C13.1547 19.0234 13.1219 19 13.0937 18.9719C12.2945 18.1867 11.8445 17.118 11.8469 16C11.8469 14.8773 12.2992 13.7992 13.1055 13.0164C13.2859 12.8359 13.5789 12.8383 13.7594 13.0187C13.7875 13.0469 13.8133 13.0797 13.832 13.1148L15.339 15.768C15.4211 15.9109 15.4211 16.0844 15.339 16.225L13.8203 18.8734ZM20.0219 17.0359C19.5508 18.8734 17.8961 20.1555 16 20.1531C15.6273 20.1531 15.257 20.1062 14.8984 20.0102C14.6523 19.9445 14.5047 19.6914 14.5703 19.4453C14.5797 19.4055 14.5961 19.368 14.6172 19.3328L16.1336 16.6914C16.2156 16.5484 16.368 16.4594 16.5344 16.4617H19.5742C19.8297 16.4617 20.0359 16.668 20.0359 16.9234C20.0359 16.9609 20.0312 16.9984 20.0219 17.0359Z" fill="url(#paint2_linear_26_329)"/>
</g>
</g>
<defs>
<linearGradient id="paint0_linear_26_329" x1="8" y1="0" x2="8" y2="16" gradientUnits="userSpaceOnUse">
<stop stop-color="#80A1A8"/>
<stop offset="1" stop-color="#4A3F3D"/>
</linearGradient>
<linearGradient id="paint1_linear_26_329" x1="7.99996" y1="2.05486" x2="7.99996" y2="13.9498" gradientUnits="userSpaceOnUse">
<stop stop-color="#D9D9D9"/>
<stop offset="1" stop-color="#858585"/>
</linearGradient>
<linearGradient id="paint2_linear_26_329" x1="16" y1="10.0549" x2="16" y2="21.9498" gradientUnits="userSpaceOnUse">
<stop stop-color="#D9D9D9"/>
<stop offset="1" stop-color="#858585"/>
</linearGradient>
<clipPath id="clip0_26_329">
<rect width="16" height="16" rx="4" fill="white"/>
</clipPath>
<clipPath id="clip1_26_329">
<rect width="12" height="12" fill="white" transform="translate(2 2)"/>
</clipPath>
<clipPath id="clip2_26_329">
<rect width="12" height="12" fill="white" transform="translate(10 10)"/>
</clipPath>
</defs>
</svg>
