<svg width="16" height="16" viewBox="0 0 16 16" fill="none" xmlns="http://www.w3.org/2000/svg">
<rect width="16" height="16" rx="4" fill="url(#paint0_linear_26_19)"/>
<g filter="url(#filter0_d_26_19)">
<path d="M11.5 7H7.99928C7.447 7 6.9999 7.44709 6.9999 7.99938V11.5C6.9999 13 8 14 9.5 14H9.99003C10.5462 14 10.9999 13.5461 10.9999 12.99V12C10.9999 11.4477 11.4476 11 11.9999 11H12.9999C13.5522 11 13.9999 10.5525 13.9999 10.0002V9.5C13.9999 8 13 7 11.5 7Z" fill="url(#paint1_linear_26_19)"/>
</g>
<g filter="url(#filter1_d_26_19)">
<path d="M3 4C3 3.44772 3.44772 3 4 3H6C8.76142 3 11 5.23858 11 8V10C11 10.5523 10.5523 11 10 11H8C5.23858 11 3 8.76142 3 6V4Z" fill="url(#paint2_linear_26_19)"/>
</g>
<circle cx="7" cy="7" r="1.5" fill="url(#paint3_linear_26_19)"/>
<defs>
<filter id="filter0_d_26_19" x="5.99988" y="6.5" width="9" height="9" filterUnits="userSpaceOnUse" color-interpolation-filters="sRGB">
<feFlood flood-opacity="0" result="BackgroundImageFix"/>
<feColorMatrix in="SourceAlpha" type="matrix" values="0 0 0 0 0 0 0 0 0 0 0 0 0 0 0 0 0 0 127 0" result="hardAlpha"/>
<feOffset dy="0.5"/>
<feGaussianBlur stdDeviation="0.5"/>
<feComposite in2="hardAlpha" operator="out"/>
<feColorMatrix type="matrix" values="0 0 0 0 0 0 0 0 0 0 0 0 0 0 0 0 0 0 0.25 0"/>
<feBlend mode="normal" in2="BackgroundImageFix" result="effect1_dropShadow_26_19"/>
<feBlend mode="normal" in="SourceGraphic" in2="effect1_dropShadow_26_19" result="shape"/>
</filter>
<filter id="filter1_d_26_19" x="2" y="2.5" width="10" height="10" filterUnits="userSpaceOnUse" color-interpolation-filters="sRGB">
<feFlood flood-opacity="0" result="BackgroundImageFix"/>
<feColorMatrix in="SourceAlpha" type="matrix" values="0 0 0 0 0 0 0 0 0 0 0 0 0 0 0 0 0 0 127 0" result="hardAlpha"/>
<feOffset dy="0.5"/>
<feGaussianBlur stdDeviation="0.5"/>
<feComposite in2="hardAlpha" operator="out"/>
<feColorMatrix type="matrix" values="0 0 0 0 0 0 0 0 0 0 0 0 0 0 0 0 0 0 0.25 0"/>
<feBlend mode="normal" in2="BackgroundImageFix" result="effect1_dropShadow_26_19"/>
<feBlend mode="normal" in="SourceGraphic" in2="effect1_dropShadow_26_19" result="shape"/>
</filter>
<linearGradient id="paint0_linear_26_19" x1="8" y1="0" x2="8" y2="16" gradientUnits="userSpaceOnUse">
<stop stop-color="#00A0E8"/>
<stop offset="1" stop-color="#0061E0"/>
</linearGradient>
<linearGradient id="paint1_linear_26_19" x1="10.4999" y1="7" x2="10.4999" y2="14" gradientUnits="userSpaceOnUse">
<stop stop-color="white"/>
<stop offset="1" stop-color="#B0DDFF"/>
</linearGradient>
<linearGradient id="paint2_linear_26_19" x1="7" y1="3" x2="7" y2="11" gradientUnits="userSpaceOnUse">
<stop stop-color="#00DDFF"/>
<stop offset="1" stop-color="#00A0E8"/>
</linearGradient>
<linearGradient id="paint3_linear_26_19" x1="7" y1="5.5" x2="7" y2="8.5" gradientUnits="userSpaceOnUse">
<stop stop-opacity="0.25"/>
<stop offset="1" stop-opacity="0.1"/>
</linearGradient>
</defs>
</svg>
