<svg width="16" height="16" viewBox="0 0 16 16" fill="none" xmlns="http://www.w3.org/2000/svg">
<rect width="16" height="16" rx="4" fill="url(#paint0_linear_26_312)"/>
<path d="M2 5.5C2 5.22386 2.22386 5 2.5 5H9.5C9.77614 5 10 5.22386 10 5.5V11C10 12.1046 9.10457 13 8 13H4C2.89543 13 2 12.1046 2 11V5.5Z" fill="url(#paint1_linear_26_312)"/>
<g filter="url(#filter0_b_26_312)">
<path d="M4 3.5C4 3.22386 4.22386 3 4.5 3H13.5C13.7761 3 14 3.22386 14 3.5V11C14 12.1046 13.1046 13 12 13H4.5C4.22386 13 4 12.7761 4 12.5V3.5Z" fill="url(#paint2_linear_26_312)"/>
</g>
<rect x="5" y="8" width="8" height="1" rx="0.5" fill="#333333" fill-opacity="0.3334"/>
<rect x="9" y="4" width="4" height="1" rx="0.5" fill="#333333" fill-opacity="0.5"/>
<rect x="9" y="6" width="4" height="1" rx="0.5" fill="#333333" fill-opacity="0.5"/>
<rect x="5" y="4" width="3" height="3" rx="1" fill="#333333" fill-opacity="0.5"/>
<rect x="6" y="10" width="6" height="1" rx="0.5" fill="#333333" fill-opacity="0.1667"/>
<defs>
<filter id="filter0_b_26_312" x="0" y="-1" width="18" height="18" filterUnits="userSpaceOnUse" color-interpolation-filters="sRGB">
<feFlood flood-opacity="0" result="BackgroundImageFix"/>
<feGaussianBlur in="BackgroundImageFix" stdDeviation="2"/>
<feComposite in2="SourceAlpha" operator="in" result="effect1_backgroundBlur_26_312"/>
<feBlend mode="normal" in="SourceGraphic" in2="effect1_backgroundBlur_26_312" result="shape"/>
</filter>
<linearGradient id="paint0_linear_26_312" x1="8" y1="0" x2="8" y2="16" gradientUnits="userSpaceOnUse">
<stop stop-color="#333537"/>
<stop offset="1" stop-color="#101214"/>
</linearGradient>
<linearGradient id="paint1_linear_26_312" x1="6" y1="5" x2="6" y2="13" gradientUnits="userSpaceOnUse">
<stop stop-color="#60FF80"/>
<stop offset="1" stop-color="#40A060"/>
</linearGradient>
<linearGradient id="paint2_linear_26_312" x1="9" y1="3" x2="9" y2="13" gradientUnits="userSpaceOnUse">
<stop stop-color="white"/>
<stop offset="1" stop-color="#B0DDFF"/>
</linearGradient>
</defs>
</svg>
