<svg width="60" height="60" viewBox="0 0 60 60" fill="none" xmlns="http://www.w3.org/2000/svg">
<g clip-path="url(#clip0_201_3)">
<g filter="url(#filter0_d_201_3)">
<path d="M29 5H31V24C31 24.5523 30.5523 25 30 25V25C29.4477 25 29 24.5523 29 24V5Z" fill="white"/>
<path d="M29 4.5H28.5V5V24C28.5 24.8284 29.1716 25.5 30 25.5C30.8284 25.5 31.5 24.8284 31.5 24V5V4.5H31H29Z" stroke="white"/>
</g>
<g filter="url(#filter1_d_201_3)">
<path d="M5 29H24C24.5523 29 25 29.4477 25 30V30C25 30.5523 24.5523 31 24 31H5V29Z" fill="white"/>
<path d="M5 28.5H4.5V29V31V31.5H5H24C24.8284 31.5 25.5 30.8284 25.5 30C25.5 29.1716 24.8284 28.5 24 28.5H5Z" stroke="white"/>
</g>
<g filter="url(#filter2_d_201_3)">
<path d="M29 36C29 35.4477 29.4477 35 30 35V35C30.5523 35 31 35.4477 31 36V55H29V36Z" fill="white"/>
<path d="M31 55.5H31.5V55V36C31.5 35.1716 30.8284 34.5 30 34.5C29.1716 34.5 28.5 35.1716 28.5 36V55V55.5H29H31Z" stroke="white"/>
</g>
<g filter="url(#filter3_d_201_3)">
<path d="M35 30C35 29.4477 35.4477 29 36 29H55V31H36C35.4477 31 35 30.5523 35 30V30Z" fill="white"/>
<path d="M55.5 29V28.5H55H36C35.1716 28.5 34.5 29.1716 34.5 30C34.5 30.8284 35.1716 31.5 36 31.5H55H55.5V31V29Z" stroke="white"/>
</g>
</g>
<defs>
<filter id="filter0_d_201_3" x="18" y="-6" width="24" height="42" filterUnits="userSpaceOnUse" color-interpolation-filters="sRGB">
<feFlood flood-opacity="0" result="BackgroundImageFix"/>
<feColorMatrix in="SourceAlpha" type="matrix" values="0 0 0 0 0 0 0 0 0 0 0 0 0 0 0 0 0 0 127 0" result="hardAlpha"/>
<feOffset/>
<feGaussianBlur stdDeviation="5"/>
<feComposite in2="hardAlpha" operator="out"/>
<feColorMatrix type="matrix" values="0 0 0 0 0 0 0 0 0 0 0 0 0 0 0 0 0 0 0.5 0"/>
<feBlend mode="normal" in2="BackgroundImageFix" result="effect1_dropShadow_201_3"/>
<feBlend mode="normal" in="SourceGraphic" in2="effect1_dropShadow_201_3" result="shape"/>
</filter>
<filter id="filter1_d_201_3" x="-6" y="18" width="42" height="24" filterUnits="userSpaceOnUse" color-interpolation-filters="sRGB">
<feFlood flood-opacity="0" result="BackgroundImageFix"/>
<feColorMatrix in="SourceAlpha" type="matrix" values="0 0 0 0 0 0 0 0 0 0 0 0 0 0 0 0 0 0 127 0" result="hardAlpha"/>
<feOffset/>
<feGaussianBlur stdDeviation="5"/>
<feComposite in2="hardAlpha" operator="out"/>
<feColorMatrix type="matrix" values="0 0 0 0 0 0 0 0 0 0 0 0 0 0 0 0 0 0 0.5 0"/>
<feBlend mode="normal" in2="BackgroundImageFix" result="effect1_dropShadow_201_3"/>
<feBlend mode="normal" in="SourceGraphic" in2="effect1_dropShadow_201_3" result="shape"/>
</filter>
<filter id="filter2_d_201_3" x="18" y="24" width="24" height="42" filterUnits="userSpaceOnUse" color-interpolation-filters="sRGB">
<feFlood flood-opacity="0" result="BackgroundImageFix"/>
<feColorMatrix in="SourceAlpha" type="matrix" values="0 0 0 0 0 0 0 0 0 0 0 0 0 0 0 0 0 0 127 0" result="hardAlpha"/>
<feOffset/>
<feGaussianBlur stdDeviation="5"/>
<feComposite in2="hardAlpha" operator="out"/>
<feColorMatrix type="matrix" values="0 0 0 0 0 0 0 0 0 0 0 0 0 0 0 0 0 0 0.5 0"/>
<feBlend mode="normal" in2="BackgroundImageFix" result="effect1_dropShadow_201_3"/>
<feBlend mode="normal" in="SourceGraphic" in2="effect1_dropShadow_201_3" result="shape"/>
</filter>
<filter id="filter3_d_201_3" x="24" y="18" width="42" height="24" filterUnits="userSpaceOnUse" color-interpolation-filters="sRGB">
<feFlood flood-opacity="0" result="BackgroundImageFix"/>
<feColorMatrix in="SourceAlpha" type="matrix" values="0 0 0 0 0 0 0 0 0 0 0 0 0 0 0 0 0 0 127 0" result="hardAlpha"/>
<feOffset/>
<feGaussianBlur stdDeviation="5"/>
<feComposite in2="hardAlpha" operator="out"/>
<feColorMatrix type="matrix" values="0 0 0 0 0 0 0 0 0 0 0 0 0 0 0 0 0 0 0.5 0"/>
<feBlend mode="normal" in2="BackgroundImageFix" result="effect1_dropShadow_201_3"/>
<feBlend mode="normal" in="SourceGraphic" in2="effect1_dropShadow_201_3" result="shape"/>
</filter>
<clipPath id="clip0_201_3">
<rect width="60" height="60" fill="white"/>
</clipPath>
</defs>
</svg>
