<svg width="16" height="16" viewBox="0 0 16 16" fill="none" xmlns="http://www.w3.org/2000/svg">
<rect width="16" height="16" rx="4" fill="url(#paint0_linear_200_2)"/>
<path d="M11.003 3.43447C9.88932 3.29468 8.6455 2.93129 7.57063 2.34428C7.21632 2.15079 6.78368 2.15079 6.42937 2.34428C5.3545 2.93129 4.11068 3.29468 2.997 3.43447C2.44901 3.50324 2 3.94772 2 4.5V7.53032C2 10.48 3.93481 13.0804 6.76009 13.928C6.91658 13.975 7.08342 13.975 7.23991 13.928C10.0652 13.0804 12 10.48 12 7.53032V4.5C12 3.94772 11.551 3.50324 11.003 3.43447Z" fill="url(#paint1_linear_200_2)"/>
<mask id="mask0_200_2" style="mask-type:alpha" maskUnits="userSpaceOnUse" x="7" y="2" width="5" height="12">
<rect x="7" y="2" width="5" height="12" fill="#D9D9D9"/>
</mask>
<g mask="url(#mask0_200_2)">
<path d="M11.003 3.43447C9.88932 3.29468 8.6455 2.93129 7.57063 2.34428C7.21632 2.15079 6.78368 2.15079 6.42937 2.34428C5.3545 2.93129 4.11068 3.29468 2.997 3.43447C2.44901 3.50324 2 3.94772 2 4.5V7.53032C2 10.48 3.93481 13.0804 6.76009 13.928C6.91658 13.975 7.08342 13.975 7.23991 13.928C10.0652 13.0804 12 10.48 12 7.53032V4.5C12 3.94772 11.551 3.50324 11.003 3.43447Z" fill="#B0DDFF"/>
</g>
<path fill-rule="evenodd" clip-rule="evenodd" d="M12 8C11.1716 8 10.5 8.67157 10.5 9.5C10.5 10.3284 11.1716 11 12 11C12.8284 11 13.5 10.3284 13.5 9.5C13.5 8.67157 12.8284 8 12 8ZM11 9.5C11 8.94772 11.4477 8.5 12 8.5C12.5523 8.5 13 8.94772 13 9.5C13 10.0523 12.5523 10.5 12 10.5C11.4477 10.5 11 10.0523 11 9.5ZM10.5 13.5C10.5 12.6716 11.1716 12 12 12C12.8284 12 13.5 12.6716 13.5 13.5V13.75C13.5 13.8881 13.6119 14 13.75 14C13.8881 14 14 13.8881 14 13.75V13.5C14 12.3954 13.1046 11.5 12 11.5C10.8954 11.5 10 12.3954 10 13.5V13.75C10 13.8881 10.1119 14 10.25 14C10.3881 14 10.5 13.8881 10.5 13.75V13.5Z" fill="white"/>
<path fill-rule="evenodd" clip-rule="evenodd" d="M9.5 6C8.39543 6 7.5 6.89543 7.5 8C7.5 9.10457 8.39543 10 9.5 10C9.54166 10 9.58302 9.99873 9.62404 9.99622C9.86417 9.98152 10 9.74058 10 9.5C10 9.45885 9.95947 9.42892 9.91996 9.44042C9.7867 9.4792 9.64578 9.5 9.5 9.5C8.67157 9.5 8 8.82843 8 8C8 7.17157 8.67157 6.5 9.5 6.5C10.1429 6.5 10.6913 6.90443 10.9047 7.47275C10.9576 7.61362 11.125 7.69472 11.265 7.6394C11.369 7.59824 11.4375 7.48945 11.403 7.38297C11.143 6.58036 10.3893 6 9.5 6ZM9.75 10.5C9.88772 10.5 10.0225 10.5124 10.1534 10.5361C10.2549 10.5544 10.3395 10.6199 10.4015 10.7022C10.5221 10.8623 10.6662 11.0037 10.8287 11.1213C10.889 11.165 10.8832 11.2614 10.8176 11.2967C10.786 11.3137 10.7477 11.3116 10.7178 11.2917C10.4406 11.1074 10.1078 11 9.75 11H9.25C8.2835 11 7.5 11.7835 7.5 12.75V14.75C7.5 14.8881 7.38807 15 7.25 15C7.11193 15 7 14.8881 7 14.75V12.75C7 11.5074 8.00736 10.5 9.25 10.5H9.75ZM11.75 14C11.6119 14 11.5 14.1119 11.5 14.25V14.75C11.5 14.8881 11.6119 15 11.75 15C11.8881 15 12 14.8881 12 14.75V14.25C12 14.1119 11.8881 14 11.75 14Z" fill="#0061E0"/>
<mask id="mask1_200_2" style="mask-type:alpha" maskUnits="userSpaceOnUse" x="7" y="2" width="5" height="12">
<mask id="mask2_200_2" style="mask-type:alpha" maskUnits="userSpaceOnUse" x="7" y="2" width="5" height="12">
<rect x="7" y="2" width="5" height="12" fill="#D9D9D9"/>
</mask>
<g mask="url(#mask2_200_2)">
<path d="M11.003 3.43447C9.88932 3.29468 8.6455 2.93129 7.57063 2.34428C7.21632 2.15079 6.78368 2.15079 6.42937 2.34428C5.3545 2.93129 4.11068 3.29468 2.997 3.43447C2.44901 3.50324 2 3.94772 2 4.5V7.53032C2 10.48 3.93481 13.0804 6.76009 13.928C6.91658 13.975 7.08342 13.975 7.23991 13.928C10.0652 13.0804 12 10.48 12 7.53032V4.5C12 3.94772 11.551 3.50324 11.003 3.43447Z" fill="#B0DDFF"/>
</g>
</mask>
<g mask="url(#mask1_200_2)">
<path fill-rule="evenodd" clip-rule="evenodd" d="M12 8C11.1716 8 10.5 8.67157 10.5 9.5C10.5 10.3284 11.1716 11 12 11C12.8284 11 13.5 10.3284 13.5 9.5C13.5 8.67157 12.8284 8 12 8ZM11 9.5C11 8.94772 11.4477 8.5 12 8.5C12.5523 8.5 13 8.94772 13 9.5C13 10.0523 12.5523 10.5 12 10.5C11.4477 10.5 11 10.0523 11 9.5ZM10.5 13.5C10.5 12.6716 11.1716 12 12 12C12.8284 12 13.5 12.6716 13.5 13.5V13.75C13.5 13.8881 13.6119 14 13.75 14C13.8881 14 14 13.8881 14 13.75V13.5C14 12.3954 13.1046 11.5 12 11.5C10.8954 11.5 10 12.3954 10 13.5V13.75C10 13.8881 10.1119 14 10.25 14C10.3881 14 10.5 13.8881 10.5 13.75V13.5Z" fill="#0061E0"/>
</g>
<defs>
<linearGradient id="paint0_linear_200_2" x1="8" y1="0" x2="8" y2="16" gradientUnits="userSpaceOnUse">
<stop stop-color="#00A0E8"/>
<stop offset="1" stop-color="#0061E0"/>
</linearGradient>
<linearGradient id="paint1_linear_200_2" x1="7" y1="2" x2="7" y2="14" gradientUnits="userSpaceOnUse">
<stop stop-color="white"/>
<stop offset="1" stop-color="#B0DDFF"/>
</linearGradient>
</defs>
</svg>
