<svg width="16" height="16" viewBox="0 0 16 16" fill="none" xmlns="http://www.w3.org/2000/svg">
<rect width="16" height="16" rx="4" fill="url(#paint0_linear_810_257)"/>
<path d="M5.5 8.86603C4.83333 8.48113 4.83333 7.51887 5.5 7.13397L11.5 3.66987C12.1667 3.28497 13 3.7661 13 4.5359V11.4641C13 12.2339 12.1667 12.715 11.5 12.3301L5.5 8.86603Z" fill="url(#paint1_linear_810_257)"/>
<g filter="url(#filter0_di_810_257)">
<path fill-rule="evenodd" clip-rule="evenodd" d="M4 3C3.44772 3 3 3.44772 3 4V12C3 12.5523 3.44772 13 4 13H5C5.55228 13 6 12.5523 6 12V4C6 3.44772 5.55228 3 5 3H4ZM9 3C8.44772 3 8 3.44772 8 4V12C8 12.5523 8.44772 13 9 13H10C10.5523 13 11 12.5523 11 12V4C11 3.44772 10.5523 3 10 3H9Z" fill="url(#paint2_linear_810_257)"/>
</g>
<g filter="url(#filter1_bd_810_257)">
<path d="M5.5 8.86603C4.83333 8.48113 4.83333 7.51887 5.5 7.13397L11.5 3.66987C12.1667 3.28497 13 3.7661 13 4.5359V11.4641C13 12.2339 12.1667 12.715 11.5 12.3301L5.5 8.86603Z" fill="url(#paint3_linear_810_257)" shape-rendering="crispEdges"/>
</g>
<defs>
<filter id="filter0_di_810_257" x="1" y="2" width="12" height="14" filterUnits="userSpaceOnUse" color-interpolation-filters="sRGB">
<feFlood flood-opacity="0" result="BackgroundImageFix"/>
<feColorMatrix in="SourceAlpha" type="matrix" values="0 0 0 0 0 0 0 0 0 0 0 0 0 0 0 0 0 0 127 0" result="hardAlpha"/>
<feOffset dy="1"/>
<feGaussianBlur stdDeviation="1"/>
<feComposite in2="hardAlpha" operator="out"/>
<feColorMatrix type="matrix" values="0 0 0 0 0 0 0 0 0 0 0 0 0 0 0 0 0 0 0.1 0"/>
<feBlend mode="normal" in2="BackgroundImageFix" result="effect1_dropShadow_810_257"/>
<feBlend mode="normal" in="SourceGraphic" in2="effect1_dropShadow_810_257" result="shape"/>
<feColorMatrix in="SourceAlpha" type="matrix" values="0 0 0 0 0 0 0 0 0 0 0 0 0 0 0 0 0 0 127 0" result="hardAlpha"/>
<feOffset dy="-0.5"/>
<feGaussianBlur stdDeviation="0.5"/>
<feComposite in2="hardAlpha" operator="arithmetic" k2="-1" k3="1"/>
<feColorMatrix type="matrix" values="0 0 0 0 0 0 0 0 0 0 0 0 0 0 0 0 0 0 0.25 0"/>
<feBlend mode="normal" in2="shape" result="effect2_innerShadow_810_257"/>
</filter>
<filter id="filter1_bd_810_257" x="3" y="2.53439" width="12" height="12.9312" filterUnits="userSpaceOnUse" color-interpolation-filters="sRGB">
<feFlood flood-opacity="0" result="BackgroundImageFix"/>
<feGaussianBlur in="BackgroundImageFix" stdDeviation="0.25"/>
<feComposite in2="SourceAlpha" operator="in" result="effect1_backgroundBlur_810_257"/>
<feColorMatrix in="SourceAlpha" type="matrix" values="0 0 0 0 0 0 0 0 0 0 0 0 0 0 0 0 0 0 127 0" result="hardAlpha"/>
<feOffset dy="1"/>
<feGaussianBlur stdDeviation="1"/>
<feComposite in2="hardAlpha" operator="out"/>
<feColorMatrix type="matrix" values="0 0 0 0 0 0 0 0 0 0 0 0 0 0 0 0 0 0 0.1 0"/>
<feBlend mode="normal" in2="effect1_backgroundBlur_810_257" result="effect2_dropShadow_810_257"/>
<feBlend mode="normal" in="SourceGraphic" in2="effect2_dropShadow_810_257" result="shape"/>
</filter>
<linearGradient id="paint0_linear_810_257" x1="8" y1="0" x2="8" y2="16" gradientUnits="userSpaceOnUse">
<stop stop-color="#FF6040"/>
<stop offset="1" stop-color="#8613C0"/>
</linearGradient>
<linearGradient id="paint1_linear_810_257" x1="10" y1="2" x2="10" y2="14" gradientUnits="userSpaceOnUse">
<stop offset="0.145345" stop-color="#FFC000"/>
<stop offset="0.853379" stop-color="#FF6040"/>
</linearGradient>
<linearGradient id="paint2_linear_810_257" x1="9.5" y1="3" x2="9.5" y2="13" gradientUnits="userSpaceOnUse">
<stop stop-color="white"/>
<stop offset="1" stop-color="#B0DDFF"/>
</linearGradient>
<linearGradient id="paint3_linear_810_257" x1="10" y1="2" x2="10" y2="14" gradientUnits="userSpaceOnUse">
<stop offset="0.145345" stop-color="#FFC000"/>
<stop offset="0.853379" stop-color="#FF6040" stop-opacity="0.75"/>
</linearGradient>
</defs>
</svg>
