<svg width="16" height="16" viewBox="0 0 16 16" fill="none" xmlns="http://www.w3.org/2000/svg">
<rect width="16" height="16" rx="4" fill="url(#paint0_linear_26_353)"/>
<g filter="url(#filter0_d_26_353)">
<path fill-rule="evenodd" clip-rule="evenodd" d="M7.88822 2.5C7.93843 2.5 7.98877 2.5001 8.03899 2.5C8.03952 2.5 8.04004 2.5 8.04057 2.5H11C11.5523 2.5 12 2.94772 12 3.5V4.5C12 5.05228 11.5523 5.5 11 5.5H10.2674C9.64129 5.5 9.16916 6.06887 9.28455 6.68429L9.77814 9.31675C9.78964 9.37807 9.80731 9.43801 9.82816 9.49681C9.93944 9.81049 10 10.1482 10 10.5C10 12.1569 8.65685 13.5 7 13.5C5.34315 13.5 4 12.1569 4 10.5C4 8.84315 5.34315 7.5 7 7.5C7.44025 7.5 7.86702 7.12412 7.78589 6.69141L7.16369 3.373C7.07863 2.91935 7.42666 2.5 7.88822 2.5Z" fill="url(#paint1_linear_26_353)"/>
</g>
<defs>
<filter id="filter0_d_26_353" x="3" y="2" width="10" height="13" filterUnits="userSpaceOnUse" color-interpolation-filters="sRGB">
<feFlood flood-opacity="0" result="BackgroundImageFix"/>
<feColorMatrix in="SourceAlpha" type="matrix" values="0 0 0 0 0 0 0 0 0 0 0 0 0 0 0 0 0 0 127 0" result="hardAlpha"/>
<feOffset dy="0.5"/>
<feGaussianBlur stdDeviation="0.5"/>
<feComposite in2="hardAlpha" operator="out"/>
<feColorMatrix type="matrix" values="0 0 0 0 0 0 0 0 0 0 0 0 0 0 0 0 0 0 0.25 0"/>
<feBlend mode="normal" in2="BackgroundImageFix" result="effect1_dropShadow_26_353"/>
<feBlend mode="normal" in="SourceGraphic" in2="effect1_dropShadow_26_353" result="shape"/>
</filter>
<linearGradient id="paint0_linear_26_353" x1="8" y1="0" x2="8" y2="16" gradientUnits="userSpaceOnUse">
<stop stop-color="#FF40A0"/>
<stop offset="1" stop-color="#C040A0"/>
</linearGradient>
<linearGradient id="paint1_linear_26_353" x1="8" y1="2.5" x2="8" y2="13.5" gradientUnits="userSpaceOnUse">
<stop stop-color="white"/>
<stop offset="1" stop-color="#FF60C0"/>
</linearGradient>
</defs>
</svg>
