<svg width="16" height="16" viewBox="0 0 16 16" fill="none" xmlns="http://www.w3.org/2000/svg">
<g clip-path="url(#clip0_810_178)">
<rect width="16" height="16" rx="4" fill="url(#paint0_linear_810_178)"/>
<g filter="url(#filter0_ddiii_810_178)">
<path d="M2 5C2 4.11522 2.39141 3.23045 3.86687 2.34567C4.23602 2.12431 4.70529 2.20529 5.00965 2.50965L6.29289 3.79289C6.68341 4.18341 6.68296 4.81754 6.3433 5.25303C5.93992 5.77022 5.49997 6.45843 5.49997 7C5.49997 8 5.74997 8.75 6.49997 9.5C7.24997 10.25 8 10.5 9 10.5C9.54157 10.5 10.2298 10.0601 10.747 9.65669C11.1825 9.31703 11.8166 9.31658 12.2071 9.70711L13.4903 10.9903C13.7947 11.2947 13.8757 11.764 13.6543 12.1331C12.7696 13.6086 11.8848 14 11 14C10 14 7.49997 12.5 5.49997 10.5C3.49997 8.5 2 6 2 5Z" fill="white"/>
</g>
</g>
<defs>
<filter id="filter0_ddiii_810_178" x="-2" y="0.21994" width="19.7801" height="21.7801" filterUnits="userSpaceOnUse" color-interpolation-filters="sRGB">
<feFlood flood-opacity="0" result="BackgroundImageFix"/>
<feColorMatrix in="SourceAlpha" type="matrix" values="0 0 0 0 0 0 0 0 0 0 0 0 0 0 0 0 0 0 127 0" result="hardAlpha"/>
<feOffset dy="4"/>
<feGaussianBlur stdDeviation="2"/>
<feComposite in2="hardAlpha" operator="out"/>
<feColorMatrix type="matrix" values="0 0 0 0 0 0 0 0 0 0 0 0 0 0 0 0 0 0 0.1 0"/>
<feBlend mode="normal" in2="BackgroundImageFix" result="effect1_dropShadow_810_178"/>
<feColorMatrix in="SourceAlpha" type="matrix" values="0 0 0 0 0 0 0 0 0 0 0 0 0 0 0 0 0 0 127 0" result="hardAlpha"/>
<feOffset dy="1"/>
<feGaussianBlur stdDeviation="1"/>
<feComposite in2="hardAlpha" operator="out"/>
<feColorMatrix type="matrix" values="0 0 0 0 0 0 0 0 0 0 0 0 0 0 0 0 0 0 0.1 0"/>
<feBlend mode="normal" in2="effect1_dropShadow_810_178" result="effect2_dropShadow_810_178"/>
<feBlend mode="normal" in="SourceGraphic" in2="effect2_dropShadow_810_178" result="shape"/>
<feColorMatrix in="SourceAlpha" type="matrix" values="0 0 0 0 0 0 0 0 0 0 0 0 0 0 0 0 0 0 127 0" result="hardAlpha"/>
<feOffset dy="-2"/>
<feGaussianBlur stdDeviation="1"/>
<feComposite in2="hardAlpha" operator="arithmetic" k2="-1" k3="1"/>
<feColorMatrix type="matrix" values="0 0 0 0 0 0 0 0 0 0 0 0 0 0 0 0 0 0 0.25 0"/>
<feBlend mode="normal" in2="shape" result="effect3_innerShadow_810_178"/>
<feColorMatrix in="SourceAlpha" type="matrix" values="0 0 0 0 0 0 0 0 0 0 0 0 0 0 0 0 0 0 127 0" result="hardAlpha"/>
<feOffset dy="-1"/>
<feGaussianBlur stdDeviation="1"/>
<feComposite in2="hardAlpha" operator="arithmetic" k2="-1" k3="1"/>
<feColorMatrix type="matrix" values="0 0 0 0 0.376471 0 0 0 0 1 0 0 0 0 0.501961 0 0 0 0.5 0"/>
<feBlend mode="normal" in2="effect3_innerShadow_810_178" result="effect4_innerShadow_810_178"/>
<feColorMatrix in="SourceAlpha" type="matrix" values="0 0 0 0 0 0 0 0 0 0 0 0 0 0 0 0 0 0 127 0" result="hardAlpha"/>
<feOffset dy="1"/>
<feGaussianBlur stdDeviation="1"/>
<feComposite in2="hardAlpha" operator="arithmetic" k2="-1" k3="1"/>
<feColorMatrix type="matrix" values="0 0 0 0 1 0 0 0 0 1 0 0 0 0 1 0 0 0 1 0"/>
<feBlend mode="normal" in2="effect4_innerShadow_810_178" result="effect5_innerShadow_810_178"/>
</filter>
<linearGradient id="paint0_linear_810_178" x1="8" y1="0" x2="8" y2="16" gradientUnits="userSpaceOnUse">
<stop stop-color="#60FF80"/>
<stop offset="1" stop-color="#40A060"/>
</linearGradient>
<clipPath id="clip0_810_178">
<rect width="16" height="16" rx="4" fill="white"/>
</clipPath>
</defs>
</svg>
