<svg width="16" height="16" viewBox="0 0 16 16" fill="none" xmlns="http://www.w3.org/2000/svg">
<g clip-path="url(#clip0_379_6)">
<rect width="16" height="16" rx="8" fill="url(#paint0_linear_379_6)"/>
<rect x="4" y="4" width="2" height="3" rx="1" fill="url(#paint1_linear_379_6)"/>
<rect x="10" y="4" width="2" height="3" rx="1" fill="url(#paint2_linear_379_6)"/>
<path d="M4 9.44444C4 9.19898 4.19898 9 4.44444 9H11.5556C11.801 9 12 9.19898 12 9.44444V9.44444C12 11.4081 10.4081 13 8.44444 13H7.55556C5.59188 13 4 11.4081 4 9.44444V9.44444Z" fill="#800010"/>
<mask id="mask0_379_6" style="mask-type:alpha" maskUnits="userSpaceOnUse" x="4" y="9" width="8" height="4">
<path d="M4 9.44444C4 9.19898 4.19898 9 4.44444 9H11.5556C11.801 9 12 9.19898 12 9.44444V9.44444C12 11.4081 10.4081 13 8.44444 13H7.55556C5.59188 13 4 11.4081 4 9.44444V9.44444Z" fill="#800010"/>
</mask>
<g mask="url(#mask0_379_6)">
<ellipse cx="8" cy="12" rx="4" ry="1" fill="url(#paint3_linear_379_6)"/>
<rect x="3" y="9" width="10" height="1" fill="url(#paint4_radial_379_6)"/>
</g>
</g>
<defs>
<linearGradient id="paint0_linear_379_6" x1="8" y1="0" x2="8" y2="16" gradientUnits="userSpaceOnUse">
<stop stop-color="#FFC000"/>
<stop offset="1" stop-color="#FF6040"/>
</linearGradient>
<linearGradient id="paint1_linear_379_6" x1="5" y1="4" x2="5" y2="7" gradientUnits="userSpaceOnUse">
<stop/>
<stop offset="1" stop-opacity="0.75"/>
</linearGradient>
<linearGradient id="paint2_linear_379_6" x1="11" y1="4" x2="11" y2="7" gradientUnits="userSpaceOnUse">
<stop/>
<stop offset="1" stop-opacity="0.75"/>
</linearGradient>
<linearGradient id="paint3_linear_379_6" x1="8" y1="11" x2="8" y2="13" gradientUnits="userSpaceOnUse">
<stop stop-color="#FF6040"/>
<stop offset="1" stop-color="#C00040"/>
</linearGradient>
<radialGradient id="paint4_radial_379_6" cx="0" cy="0" r="1" gradientUnits="userSpaceOnUse" gradientTransform="translate(8 9.5) rotate(90) scale(3 4.99825)">
<stop stop-color="#F0F6FF"/>
<stop offset="1" stop-color="#B0DDFF"/>
</radialGradient>
<clipPath id="clip0_379_6">
<rect width="16" height="16" fill="white"/>
</clipPath>
</defs>
</svg>
