<svg width="16" height="16" viewBox="0 0 16 16" fill="none" xmlns="http://www.w3.org/2000/svg">
<g clip-path="url(#clip0_657_313)">
<rect width="16" height="16" rx="4" fill="#FF6040"/>
<rect x="2.5" y="2" width="11" height="7" rx="0.5" fill="url(#paint0_linear_657_313)"/>
<rect x="2.5" y="2" width="11" height="7" rx="0.5" fill="#B0DDFF" fill-opacity="0.5"/>
<path d="M2 3.5C2 3.22386 2.22386 3 2.5 3H13.5C13.7761 3 14 3.22386 14 3.5V15.5C14 15.7761 13.7761 16 13.5 16H2.5C2.22386 16 2 15.7761 2 15.5V3.5Z" fill="url(#paint1_linear_657_313)"/>
<g filter="url(#filter0_bd_657_313)">
<path d="M0 5H6.38197C7.06717 5 7.69357 5.38713 8 6V6C8.30643 6.61287 8.93283 7 9.61803 7H16V15C16 15.5523 15.5523 16 15 16H1C0.447715 16 0 15.5523 0 15V5Z" fill="url(#paint2_linear_657_313)" shape-rendering="crispEdges"/>
</g>
<rect y="12.5" width="16" height="0.5" fill="#C00040" fill-opacity="0.25"/>
<rect y="13" width="16" height="3" fill="url(#paint3_linear_657_313)" fill-opacity="0.1"/>
<rect y="9.5" width="16" height="3" fill="url(#paint4_linear_657_313)" fill-opacity="0.1"/>
</g>
<defs>
<filter id="filter0_bd_657_313" x="-2" y="2" width="20" height="15" filterUnits="userSpaceOnUse" color-interpolation-filters="sRGB">
<feFlood flood-opacity="0" result="BackgroundImageFix"/>
<feGaussianBlur in="BackgroundImageFix" stdDeviation="0.25"/>
<feComposite in2="SourceAlpha" operator="in" result="effect1_backgroundBlur_657_313"/>
<feColorMatrix in="SourceAlpha" type="matrix" values="0 0 0 0 0 0 0 0 0 0 0 0 0 0 0 0 0 0 127 0" result="hardAlpha"/>
<feOffset dy="-1"/>
<feGaussianBlur stdDeviation="1"/>
<feComposite in2="hardAlpha" operator="out"/>
<feColorMatrix type="matrix" values="0 0 0 0 0 0 0 0 0 0 0 0 0 0 0 0 0 0 0.1 0"/>
<feBlend mode="normal" in2="effect1_backgroundBlur_657_313" result="effect2_dropShadow_657_313"/>
<feBlend mode="normal" in="SourceGraphic" in2="effect2_dropShadow_657_313" result="shape"/>
</filter>
<linearGradient id="paint0_linear_657_313" x1="2.5" y1="2" x2="2.5" y2="9" gradientUnits="userSpaceOnUse">
<stop stop-color="white"/>
<stop offset="1" stop-color="#B0DDFF"/>
</linearGradient>
<linearGradient id="paint1_linear_657_313" x1="2" y1="3" x2="2" y2="10" gradientUnits="userSpaceOnUse">
<stop stop-color="white"/>
<stop offset="1" stop-color="#B0DDFF"/>
</linearGradient>
<linearGradient id="paint2_linear_657_313" x1="7.99997" y1="5" x2="7.99997" y2="16" gradientUnits="userSpaceOnUse">
<stop stop-color="#FFC000" stop-opacity="0.75"/>
<stop offset="0.498958" stop-color="#FF9020"/>
<stop offset="1" stop-color="#FF6040"/>
</linearGradient>
<linearGradient id="paint3_linear_657_313" x1="8" y1="13" x2="8" y2="16" gradientUnits="userSpaceOnUse">
<stop stop-color="white"/>
<stop offset="1" stop-color="white" stop-opacity="0"/>
</linearGradient>
<linearGradient id="paint4_linear_657_313" x1="8" y1="9.5" x2="8" y2="12.5" gradientUnits="userSpaceOnUse">
<stop stop-color="white" stop-opacity="0"/>
<stop offset="1" stop-color="white"/>
</linearGradient>
<clipPath id="clip0_657_313">
<rect width="16" height="16" rx="4" fill="white"/>
</clipPath>
</defs>
</svg>
