<svg width="16" height="16" viewBox="0 0 16 16" fill="none" xmlns="http://www.w3.org/2000/svg">
<rect width="16" height="16" rx="4" fill="url(#paint0_linear_26_399)"/>
<rect x="2.5" y="3" width="11" height="5" rx="1" fill="url(#paint1_linear_26_399)"/>
<rect x="3" y="4" width="10" height="7" rx="0.5" fill="url(#paint2_linear_26_399)"/>
<path d="M2 6C2 5.44772 2.44772 5 3 5H13C13.5523 5 14 5.44772 14 6V12C14 12.5523 13.5523 13 13 13H3C2.44771 13 2 12.5523 2 12V6Z" fill="url(#paint3_linear_26_399)"/>
<path d="M8.73456 10.2048C8.33864 10.6334 7.66138 10.6334 7.26546 10.2048L6.08649 8.92855C5.49484 8.28807 5.94911 7.25 6.82104 7.25H9.17898C10.0509 7.25 10.5052 8.28807 9.91353 8.92855L8.73456 10.2048Z" fill="#C00040" fill-opacity="0.25"/>
<defs>
<linearGradient id="paint0_linear_26_399" x1="8" y1="0" x2="8" y2="16" gradientUnits="userSpaceOnUse">
<stop stop-color="#FF6040"/>
<stop offset="1" stop-color="#C00040"/>
</linearGradient>
<linearGradient id="paint1_linear_26_399" x1="8" y1="3" x2="8" y2="8" gradientUnits="userSpaceOnUse">
<stop stop-color="#FFA800"/>
<stop offset="1" stop-color="#FF6040"/>
</linearGradient>
<linearGradient id="paint2_linear_26_399" x1="3" y1="4" x2="13" y2="4" gradientUnits="userSpaceOnUse">
<stop stop-color="white"/>
<stop offset="1" stop-color="#B0DDFF"/>
</linearGradient>
<linearGradient id="paint3_linear_26_399" x1="7.99998" y1="5" x2="7.99998" y2="13" gradientUnits="userSpaceOnUse">
<stop stop-color="#FFC000"/>
<stop offset="1" stop-color="#FF6040"/>
</linearGradient>
</defs>
</svg>
