<svg width="16" height="16" viewBox="0 0 16 16" fill="none" xmlns="http://www.w3.org/2000/svg">
<rect width="16" height="16" rx="4" fill="url(#paint0_linear_26_399)"/>
<rect x="3" y="3" width="10" height="7" rx="0.5" fill="url(#paint1_linear_26_399)" fill-opacity="0.75"/>
<rect x="2.5" y="4" width="11" height="7" rx="0.5" fill="url(#paint2_linear_26_399)"/>
<path d="M2 5.5C2 5.22386 2.22386 5 2.5 5H13.5C13.7761 5 14 5.22386 14 5.5V11.5C14 12.3284 13.3284 13 12.5 13H3.5C2.67157 13 2 12.3284 2 11.5V5.5Z" fill="url(#paint3_linear_26_399)"/>
<path d="M8.73456 10.2048C8.33864 10.6334 7.66138 10.6334 7.26546 10.2048L6.08649 8.92855C5.49484 8.28807 5.94911 7.25 6.82104 7.25H9.17898C10.0509 7.25 10.5052 8.28807 9.91353 8.92855L8.73456 10.2048Z" fill="#C00040" fill-opacity="0.25"/>
<defs>
<linearGradient id="paint0_linear_26_399" x1="8" y1="0" x2="8" y2="16" gradientUnits="userSpaceOnUse">
<stop stop-color="#FF6040"/>
<stop offset="1" stop-color="#C00040"/>
</linearGradient>
<linearGradient id="paint1_linear_26_399" x1="3" y1="3" x2="13" y2="3" gradientUnits="userSpaceOnUse">
<stop stop-color="white"/>
<stop offset="1" stop-color="#B0DDFF"/>
</linearGradient>
<linearGradient id="paint2_linear_26_399" x1="2.5" y1="4" x2="13.5" y2="4" gradientUnits="userSpaceOnUse">
<stop stop-color="white"/>
<stop offset="1" stop-color="#B0DDFF"/>
</linearGradient>
<linearGradient id="paint3_linear_26_399" x1="7.99998" y1="5" x2="7.99998" y2="13" gradientUnits="userSpaceOnUse">
<stop stop-color="#FFC000"/>
<stop offset="1" stop-color="#FF6040"/>
</linearGradient>
</defs>
</svg>
