<svg width="16" height="16" viewBox="0 0 16 16" fill="none" xmlns="http://www.w3.org/2000/svg">
<g clip-path="url(#clip0_834_28)">
<rect width="16" height="16" rx="4" fill="url(#paint0_linear_834_28)"/>
<ellipse cx="4" cy="8" rx="4" ry="2" fill="url(#paint1_radial_834_28)"/>
<ellipse cx="12" cy="8" rx="4" ry="2" fill="url(#paint2_radial_834_28)"/>
<path d="M5.5 14H8M10.5 14H8M8 14V11.5M8 11.5V11.5C5.79086 11.5 4 9.70914 4 7.5V7M8 11.5V11.5C10.2091 11.5 12 9.70914 12 7.5V7" stroke="white" stroke-linecap="round" stroke-linejoin="round"/>
<path d="M5.5 4C5.5 2.61929 6.61929 1.5 8 1.5V1.5C9.38071 1.5 10.5 2.61929 10.5 4V7.5C10.5 8.88071 9.38071 10 8 10V10C6.61929 10 5.5 8.88071 5.5 7.5V4Z" fill="url(#paint3_linear_834_28)"/>
</g>
<defs>
<linearGradient id="paint0_linear_834_28" x1="8" y1="0" x2="8" y2="16" gradientUnits="userSpaceOnUse">
<stop stop-color="#333537"/>
<stop offset="1" stop-color="#101214"/>
</linearGradient>
<radialGradient id="paint1_radial_834_28" cx="0" cy="0" r="1" gradientUnits="userSpaceOnUse" gradientTransform="translate(4 6) rotate(90) scale(4 8)">
<stop stop-color="#FF60C0"/>
<stop offset="0.7125" stop-color="#FF60C0" stop-opacity="0"/>
</radialGradient>
<radialGradient id="paint2_radial_834_28" cx="0" cy="0" r="1" gradientUnits="userSpaceOnUse" gradientTransform="translate(12 10) rotate(-90) scale(4 8)">
<stop stop-color="#FF60C0"/>
<stop offset="0.691666" stop-color="#FF60C0" stop-opacity="0"/>
</radialGradient>
<linearGradient id="paint3_linear_834_28" x1="6" y1="1.5" x2="10" y2="10" gradientUnits="userSpaceOnUse">
<stop stop-color="#00DDFF"/>
<stop offset="1" stop-color="#0061E0"/>
</linearGradient>
<clipPath id="clip0_834_28">
<rect width="16" height="16" rx="4" fill="white"/>
</clipPath>
</defs>
</svg>
