<svg width="16" height="16" viewBox="0 0 16 16" fill="none" xmlns="http://www.w3.org/2000/svg">
<g filter="url(#filter0_d_657_365)">
<path d="M7.625 3.375C7.625 3.16789 7.79289 3 8 3V3C8.20711 3 8.375 3.16789 8.375 3.375V8.125C8.375 8.33211 8.20711 8.5 8 8.5V8.5C7.79289 8.5 7.625 8.33211 7.625 8.125V3.375Z" fill="url(#paint0_linear_657_365)"/>
<path d="M7.625 3.375C7.625 3.16789 7.79289 3 8 3V3C8.20711 3 8.375 3.16789 8.375 3.375V8.125C8.375 8.33211 8.20711 8.5 8 8.5V8.5C7.79289 8.5 7.625 8.33211 7.625 8.125V3.375Z" fill="url(#paint1_linear_657_365)"/>
</g>
<defs>
<filter id="filter0_d_657_365" x="7.375" y="3" width="1.25" height="6.25" filterUnits="userSpaceOnUse" color-interpolation-filters="sRGB">
<feFlood flood-opacity="0" result="BackgroundImageFix"/>
<feColorMatrix in="SourceAlpha" type="matrix" values="0 0 0 0 0 0 0 0 0 0 0 0 0 0 0 0 0 0 127 0" result="hardAlpha"/>
<feOffset dy="0.5"/>
<feGaussianBlur stdDeviation="0.125"/>
<feComposite in2="hardAlpha" operator="out"/>
<feColorMatrix type="matrix" values="0 0 0 0 0 0 0 0 0 0 0 0 0 0 0 0 0 0 0.1 0"/>
<feBlend mode="normal" in2="BackgroundImageFix" result="effect1_dropShadow_657_365"/>
<feBlend mode="normal" in="SourceGraphic" in2="effect1_dropShadow_657_365" result="shape"/>
</filter>
<linearGradient id="paint0_linear_657_365" x1="7.86275" y1="2.60442" x2="7.86275" y2="8.50006" gradientUnits="userSpaceOnUse">
<stop stop-color="#80A1A8"/>
<stop offset="1" stop-color="#4A3F3D"/>
</linearGradient>
<linearGradient id="paint1_linear_657_365" x1="8.73469" y1="0.581088" x2="8.73469" y2="7.40307" gradientUnits="userSpaceOnUse">
<stop stop-color="#114854"/>
<stop offset="1" stop-color="#161E25"/>
</linearGradient>
</defs>
</svg>
