<svg width="16" height="16" viewBox="0 0 16 16" fill="none" xmlns="http://www.w3.org/2000/svg">
<g filter="url(#filter0_d_1093_64)">
<path d="M7.5 3.5C7.5 3.22386 7.72386 3 8 3V3C8.27614 3 8.5 3.22386 8.5 3.5V8C8.5 8.27614 8.27614 8.5 8 8.5V8.5C7.72386 8.5 7.5 8.27614 7.5 8V3.5Z" fill="url(#paint0_linear_1093_64)"/>
<path d="M7.5 3.5C7.5 3.22386 7.72386 3 8 3V3C8.27614 3 8.5 3.22386 8.5 3.5V8C8.5 8.27614 8.27614 8.5 8 8.5V8.5C7.72386 8.5 7.5 8.27614 7.5 8V3.5Z" fill="url(#paint1_linear_1093_64)"/>
</g>
<defs>
<filter id="filter0_d_1093_64" x="7" y="3" width="2" height="7" filterUnits="userSpaceOnUse" color-interpolation-filters="sRGB">
<feFlood flood-opacity="0" result="BackgroundImageFix"/>
<feColorMatrix in="SourceAlpha" type="matrix" values="0 0 0 0 0 0 0 0 0 0 0 0 0 0 0 0 0 0 127 0" result="hardAlpha"/>
<feOffset dy="1"/>
<feGaussianBlur stdDeviation="0.25"/>
<feComposite in2="hardAlpha" operator="out"/>
<feColorMatrix type="matrix" values="0 0 0 0 0 0 0 0 0 0 0 0 0 0 0 0 0 0 0.1 0"/>
<feBlend mode="normal" in2="BackgroundImageFix" result="effect1_dropShadow_1093_64"/>
<feBlend mode="normal" in="SourceGraphic" in2="effect1_dropShadow_1093_64" result="shape"/>
</filter>
<linearGradient id="paint0_linear_1093_64" x1="7.817" y1="2.60442" x2="7.817" y2="8.50006" gradientUnits="userSpaceOnUse">
<stop stop-color="#80A1A8"/>
<stop offset="1" stop-color="#4A3F3D"/>
</linearGradient>
<linearGradient id="paint1_linear_1093_64" x1="8.97958" y1="0.581088" x2="8.97958" y2="7.40307" gradientUnits="userSpaceOnUse">
<stop stop-color="#114854"/>
<stop offset="1" stop-color="#161E25"/>
</linearGradient>
</defs>
</svg>
