<svg width="16" height="16" viewBox="0 0 16 16" fill="none" xmlns="http://www.w3.org/2000/svg">
<g clip-path="url(#clip0_832_10)">
<rect width="16" height="16" rx="4" fill="url(#paint0_linear_832_10)"/>
<rect x="7.75" y="1.5" width="0.5" height="2" rx="0.25" fill="#0061E0" fill-opacity="0.2"/>
<rect x="7.75" y="12.5" width="0.5" height="2" rx="0.25" fill="#0061E0" fill-opacity="0.2"/>
<rect x="1.5" y="8.25" width="0.5" height="2" rx="0.25" transform="rotate(-90 1.5 8.25)" fill="#0061E0" fill-opacity="0.2"/>
<rect x="12.5" y="8.25" width="0.5" height="2" rx="0.25" transform="rotate(-90 12.5 8.25)" fill="#0061E0" fill-opacity="0.2"/>
<rect x="4.53351" y="2.49582" width="0.5" height="2" rx="0.25" transform="rotate(-30 4.53351 2.49582)" fill="#0061E0" fill-opacity="0.2"/>
<rect x="10.0335" y="12.0221" width="0.5" height="2" rx="0.25" transform="rotate(-30 10.0335 12.0221)" fill="#0061E0" fill-opacity="0.2"/>
<rect x="2.49585" y="11.4665" width="0.5" height="2" rx="0.25" transform="rotate(-120 2.49585 11.4665)" fill="#0061E0" fill-opacity="0.2"/>
<rect x="12.0221" y="5.96649" width="0.5" height="2" rx="0.25" transform="rotate(-120 12.0221 5.96649)" fill="#0061E0" fill-opacity="0.2"/>
<rect x="2.24585" y="4.96649" width="0.5" height="2" rx="0.25" transform="rotate(-60 2.24585 4.96649)" fill="#0061E0" fill-opacity="0.2"/>
<rect x="11.7721" y="10.4665" width="0.5" height="2" rx="0.25" transform="rotate(-60 11.7721 10.4665)" fill="#0061E0" fill-opacity="0.2"/>
<rect x="4.96652" y="13.7542" width="0.5" height="2" rx="0.25" transform="rotate(-150 4.96652 13.7542)" fill="#0061E0" fill-opacity="0.2"/>
<rect x="10.4665" y="4.22787" width="0.5" height="2" rx="0.25" transform="rotate(-150 10.4665 4.22787)" fill="#0061E0" fill-opacity="0.2"/>
<rect x="6.62506" y="1.64215" width="0.5" height="1" rx="0.25" transform="rotate(-10 6.62506 1.64215)" fill="#0061E0" fill-opacity="0.1"/>
<rect x="8.70883" y="13.4598" width="0.5" height="1" rx="0.25" transform="rotate(-10 8.70883 13.4598)" fill="#0061E0" fill-opacity="0.1"/>
<rect x="1.64212" y="9.37491" width="0.5" height="1" rx="0.25" transform="rotate(-100 1.64212 9.37491)" fill="#0061E0" fill-opacity="0.1"/>
<rect x="13.4598" y="7.29114" width="0.5" height="1" rx="0.25" transform="rotate(-100 13.4598 7.29114)" fill="#0061E0" fill-opacity="0.1"/>
<rect x="5.54196" y="1.97748" width="0.5" height="1" rx="0.25" transform="rotate(-20 5.54196 1.97748)" fill="#0061E0" fill-opacity="0.1"/>
<rect x="9.64621" y="13.2538" width="0.5" height="1" rx="0.25" transform="rotate(-20 9.64621 13.2538)" fill="#0061E0" fill-opacity="0.1"/>
<rect x="1.97751" y="10.458" width="0.5" height="1" rx="0.25" transform="rotate(-110 1.97751 10.458)" fill="#0061E0" fill-opacity="0.1"/>
<rect x="13.2538" y="6.35379" width="0.5" height="1" rx="0.25" transform="rotate(-110 13.2538 6.35379)" fill="#0061E0" fill-opacity="0.1"/>
<rect x="3.63043" y="3.18137" width="0.5" height="1" rx="0.25" transform="rotate(-40 3.63043 3.18137)" fill="#0061E0" fill-opacity="0.1"/>
<rect x="11.3439" y="12.3739" width="0.5" height="1" rx="0.25" transform="rotate(-40 11.3439 12.3739)" fill="#0061E0" fill-opacity="0.1"/>
<rect x="3.18146" y="12.3696" width="0.5" height="1" rx="0.25" transform="rotate(-130 3.18146 12.3696)" fill="#0061E0" fill-opacity="0.1"/>
<rect x="12.374" y="4.65616" width="0.5" height="1" rx="0.25" transform="rotate(-130 12.374 4.65616)" fill="#0061E0" fill-opacity="0.1"/>
<rect x="2.86008" y="4.01334" width="0.5" height="1" rx="0.25" transform="rotate(-50 2.86008 4.01334)" fill="#0061E0" fill-opacity="0.1"/>
<rect x="12.0526" y="11.7268" width="0.5" height="1" rx="0.25" transform="rotate(-50 12.0526 11.7268)" fill="#0061E0" fill-opacity="0.1"/>
<rect x="4.01346" y="13.1399" width="0.5" height="1" rx="0.25" transform="rotate(-140 4.01346 13.1399)" fill="#0061E0" fill-opacity="0.1"/>
<rect x="11.7269" y="3.94739" width="0.5" height="1" rx="0.25" transform="rotate(-140 11.7269 3.94739)" fill="#0061E0" fill-opacity="0.1"/>
<rect x="1.80655" y="6.01175" width="0.5" height="1" rx="0.25" transform="rotate(-70 1.80655 6.01175)" fill="#0061E0" fill-opacity="0.1"/>
<rect x="13.0829" y="10.116" width="0.5" height="1" rx="0.25" transform="rotate(-70 13.0829 10.116)" fill="#0061E0" fill-opacity="0.1"/>
<rect x="6.01184" y="14.1935" width="0.5" height="1" rx="0.25" transform="rotate(-160 6.01184 14.1935)" fill="#0061E0" fill-opacity="0.1"/>
<rect x="10.1161" y="2.91714" width="0.5" height="1" rx="0.25" transform="rotate(-160 10.1161 2.91714)" fill="#0061E0" fill-opacity="0.1"/>
<rect x="1.55542" y="7.11743" width="0.5" height="1" rx="0.25" transform="rotate(-80 1.55542 7.11743)" fill="#0061E0" fill-opacity="0.1"/>
<rect x="13.3731" y="9.2012" width="0.5" height="1" rx="0.25" transform="rotate(-80 13.3731 9.2012)" fill="#0061E0" fill-opacity="0.1"/>
<rect x="7.11758" y="14.4446" width="0.5" height="1" rx="0.25" transform="rotate(-170 7.11758 14.4446)" fill="#0061E0" fill-opacity="0.1"/>
<rect x="9.20135" y="2.62692" width="0.5" height="1" rx="0.25" transform="rotate(-170 9.20135 2.62692)" fill="#0061E0" fill-opacity="0.1"/>
</g>
<defs>
<linearGradient id="paint0_linear_832_10" x1="8" y1="0" x2="8" y2="16" gradientUnits="userSpaceOnUse">
<stop stop-color="white"/>
<stop offset="1" stop-color="#B0DDFF"/>
</linearGradient>
<clipPath id="clip0_832_10">
<rect width="16" height="16" rx="4" fill="white"/>
</clipPath>
</defs>
</svg>
